<?xml version="1.0" standalone="no"?>
<!DOCTYPE svg PUBLIC "-//W3C//DTD SVG 20010904//EN"
 "http://www.w3.org/TR/2001/REC-SVG-20010904/DTD/svg10.dtd">
<svg version="1.0" xmlns="http://www.w3.org/2000/svg"
 width="120.000000pt" height="120.000000pt" viewBox="0 0 120.000000 120.000000"
 preserveAspectRatio="xMidYMid meet">

<g transform="translate(0.000000,120.000000) scale(0.100000,-0.100000)"
fill="#000000" stroke="none">
<path d="M450 1083 c-61 -32 -78 -47 -107 -94 -45 -75 -59 -161 -36 -239 13
-46 27 -67 90 -128 l75 -73 -11 -87 c-7 -48 -16 -114 -21 -147 -5 -33 -12 -95
-16 -137 l-6 -78 146 -2 c80 -1 158 -2 174 -2 27 -1 27 0 25 54 -2 30 -10 84
-18 120 -38 170 -55 268 -50 281 3 8 23 26 45 39 22 14 40 28 40 31 0 3 13 22
30 40 16 19 30 43 30 55 0 11 4 24 10 30 13 13 15 132 3 177 -32 112 -153 197
-283 197 -37 0 -66 -9 -120 -37z m234 -138 c45 -22 126 -102 126 -126 0 -24
-68 -98 -112 -120 -49 -25 -157 -29 -209 -7 -35 16 -139 114 -139 132 0 25 56
86 102 111 86 47 150 49 232 10z"/>
<path d="M542 874 c-32 -22 -30 -76 3 -103 22 -16 31 -18 56 -9 61 21 71 86
18 113 -36 19 -49 19 -77 -1z"/>
</g>
</svg>
