<?xml version="1.0" standalone="no"?>
<!DOCTYPE svg PUBLIC "-//W3C//DTD SVG 20010904//EN"
 "http://www.w3.org/TR/2001/REC-SVG-20010904/DTD/svg10.dtd">
<svg version="1.0" xmlns="http://www.w3.org/2000/svg"
 width="120.000000pt" height="120.000000pt" viewBox="0 0 120.000000 120.000000"
 preserveAspectRatio="xMidYMid meet">

<g transform="translate(0.000000,120.000000) scale(0.100000,-0.100000)"
fill="#000000" stroke="none">
<path d="M550 1068 c-101 -7 -161 -29 -196 -71 -20 -24 -24 -37 -20 -61 12
-61 100 -97 251 -102 167 -5 296 26 325 81 20 37 -13 94 -71 122 -57 27 -176
40 -289 31z m146 -27 c83 -10 149 -34 158 -58 26 -68 -147 -122 -314 -98 -71
10 -131 33 -145 55 -13 20 7 49 47 70 33 17 87 30 163 39 6 0 46 -3 91 -8z"/>
<path d="M330 772 c0 -113 12 -131 107 -160 85 -26 145 -31 236 -21 135 15
177 28 225 72 19 18 22 30 22 104 0 66 -3 83 -14 83 -8 0 -18 -4 -21 -10 -7
-11 -55 -34 -109 -51 -22 -6 -92 -12 -155 -12 -131 -1 -210 17 -260 59 l-31
26 0 -90z"/>
<path d="M398 563 c-2 -5 -1 -95 2 -202 l5 -194 60 -15 c73 -17 290 -11 350 9
l40 14 -2 194 c-2 107 -5 196 -7 198 -2 2 -28 -3 -57 -11 -98 -27 -214 -29
-303 -6 -92 23 -84 22 -88 13z"/>
</g>
</svg>
