<?xml version="1.0" standalone="no"?>
<!DOCTYPE svg PUBLIC "-//W3C//DTD SVG 20010904//EN"
 "http://www.w3.org/TR/2001/REC-SVG-20010904/DTD/svg10.dtd">
<svg version="1.0" xmlns="http://www.w3.org/2000/svg"
 width="120.000000pt" height="120.000000pt" viewBox="0 0 120.000000 120.000000"
 preserveAspectRatio="xMidYMid meet">
<metadata>
Created by potrace 1.10, written by Peter Selinger 2001-2011
</metadata>
<g transform="translate(0.000000,120.000000) scale(0.100000,-0.100000)"
fill="#000000" stroke="none">
<path d="M565 1051 c-88 -16 -167 -77 -206 -159 -26 -57 -36 -174 -19 -227 28
-86 104 -166 191 -203 l44 -19 0 -164 0 -164 36 -9 c69 -17 69 -16 69 167 l0
164 58 26 c31 13 70 38 85 55 16 17 37 39 46 50 46 50 67 203 37 273 -28 64
-102 145 -163 178 -63 34 -115 44 -178 32z m179 -102 c74 -50 94 -84 103 -174
4 -40 1 -81 -7 -109 -14 -52 -67 -110 -120 -133 -42 -17 -151 -19 -182 -2 -32
17 -118 110 -118 129 -1 8 -7 32 -14 53 -12 32 -12 47 1 102 13 57 20 70 69
114 61 56 74 60 163 53 48 -4 75 -12 105 -33z"/>
<path d="M545 889 c-14 -17 -24 -37 -22 -43 6 -20 46 -18 73 3 34 27 49 26 68
-1 14 -20 13 -24 -24 -71 -36 -44 -50 -84 -35 -99 9 -9 55 4 55 16 0 6 14 29
30 50 32 43 40 99 19 139 -17 32 -28 37 -86 37 -45 0 -54 -4 -78 -31z"/>
<path d="M597 623 c-4 -3 -7 -16 -7 -29 0 -15 8 -24 25 -28 35 -9 45 -1 45 35
0 25 -4 29 -28 29 -16 0 -32 -3 -35 -7z"/>
</g>
</svg>
