<?xml version="1.0" standalone="no"?>
<!DOCTYPE svg PUBLIC "-//W3C//DTD SVG 20010904//EN"
 "http://www.w3.org/TR/2001/REC-SVG-20010904/DTD/svg10.dtd">
<svg version="1.0" xmlns="http://www.w3.org/2000/svg"
 width="120.000000pt" height="120.000000pt" viewBox="0 0 120.000000 120.000000"
 preserveAspectRatio="xMidYMid meet">
<metadata>
Created by potrace 1.10, written by Peter Selinger 2001-2011
</metadata>
<g transform="translate(0.000000,120.000000) scale(0.100000,-0.100000)"
fill="#000000" stroke="none">
<path d="M822 988 l-102 -101 0 -54 c0 -29 4 -53 8 -53 4 0 52 43 105 95 54
52 100 95 104 95 3 0 49 -45 103 -100 53 -55 99 -100 102 -100 3 0 4 27 3 61
l-2 60 -99 100 c-54 54 -103 99 -109 99 -6 0 -56 -46 -113 -102z"/>
<path d="M335 925 c-10 -31 -20 -54 -58 -135 -20 -41 -43 -99 -52 -128 -10
-29 -27 -67 -40 -85 -19 -28 -27 -32 -62 -30 l-40 2 2 -62 c2 -57 4 -62 26
-65 13 -2 35 -14 49 -27 20 -19 116 -65 135 -65 18 0 -2 22 -39 44 -24 14 -46
33 -50 41 -6 17 11 103 25 120 4 6 28 62 53 125 44 112 69 144 82 103 3 -10
10 -26 15 -35 5 -10 9 -23 9 -30 0 -7 20 -58 45 -113 29 -65 45 -113 45 -140
0 -38 -3 -42 -53 -70 -40 -23 -47 -31 -32 -33 29 -4 110 34 133 62 10 13 27
25 38 28 13 2 20 13 21 33 1 17 4 41 5 55 3 23 0 25 -30 22 -37 -4 -72 20 -72
48 0 10 -7 23 -15 30 -8 7 -15 21 -15 32 0 11 -6 32 -14 46 -8 15 -22 47 -31
72 -9 25 -23 60 -31 78 -8 18 -14 38 -14 45 0 7 -6 22 -14 33 -14 19 -15 19
-21 -1z"/>
<path d="M829 728 c-92 -92 -102 -106 -107 -144 -2 -24 -2 -50 2 -59 5 -14 11
-12 36 13 16 17 30 34 30 39 0 5 13 16 29 26 15 9 45 35 65 57 20 22 40 40 46
40 5 0 51 -43 103 -95 51 -52 96 -95 100 -95 4 0 7 25 7 56 l0 57 -90 90 c-49
49 -90 93 -90 97 0 4 -6 10 -14 13 -9 4 -53 -33 -117 -95z"/>
<path d="M875 508 c-23 -24 -66 -67 -98 -96 l-57 -53 0 -60 c0 -32 3 -59 8
-59 4 0 27 24 52 53 25 28 68 74 97 100 l52 49 100 -104 c111 -114 127 -119
114 -30 -7 47 -15 58 -102 146 -51 53 -101 96 -110 96 -9 0 -34 -19 -56 -42z"/>
</g>
</svg>
