<?xml version="1.0" standalone="no"?>
<!DOCTYPE svg PUBLIC "-//W3C//DTD SVG 20010904//EN"
 "http://www.w3.org/TR/2001/REC-SVG-20010904/DTD/svg10.dtd">
<svg version="1.0" xmlns="http://www.w3.org/2000/svg"
 width="120.000000pt" height="120.000000pt" viewBox="0 0 120.000000 120.000000"
 preserveAspectRatio="xMidYMid meet">
<metadata>
Created by potrace 1.10, written by Peter Selinger 2001-2011
</metadata>
<g transform="translate(0.000000,120.000000) scale(0.050000,-0.050000)"
fill="#000000" stroke="none">
<path d="M1065 2296 c11 -34 71 -67 89 -49 9 9 -2 29 -23 45 -47 34 -77 36
-66 4z"/>
<path d="M900 2273 c0 -47 97 -124 124 -97 18 18 12 35 -24 74 -51 54 -100 66
-100 23z"/>
<path d="M740 2235 c1 -63 92 -185 139 -185 73 0 68 32 -17 125 -77 85 -122
107 -122 60z"/>
<path d="M1410 2240 c-7 -11 4 -26 24 -33 72 -26 228 -153 257 -209 31 -60 95
-78 121 -34 16 26 -103 140 -247 237 -91 62 -134 73 -155 39z"/>
<path d="M1220 2162 c0 -10 39 -41 87 -69 47 -28 123 -88 167 -134 63 -65 90
-80 123 -70 74 23 48 65 -111 180 -143 103 -266 146 -266 93z"/>
<path d="M591 2141 c-6 -10 -3 -24 9 -31 11 -7 20 -32 21 -56 1 -54 83 -200
109 -196 56 8 51 143 -8 206 -18 19 -44 48 -58 65 -29 35 -56 40 -73 12z"/>
<path d="M1055 2078 c-53 -31 -43 -54 40 -89 41 -17 113 -71 159 -120 80 -85
170 -111 217 -64 15 15 -124 149 -214 207 -41 25 -79 56 -86 67 -17 26 -70 26
-116 -1z"/>
<path d="M451 1965 c8 -30 13 -76 12 -102 -2 -27 29 -91 69 -145 77 -106 93
-117 86 -63 -3 19 1 64 10 100 13 56 5 78 -61 164 -87 113 -140 134 -116 46z"/>
<path d="M873 1927 c-35 -36 -4 -88 88 -147 55 -36 113 -84 129 -107 31 -43
159 -52 198 -13 18 18 -140 200 -174 200 -10 0 -41 18 -69 40 -49 39 -145 54
-172 27z"/>
<path d="M280 1821 c0 -21 10 -45 22 -52 14 -9 18 -43 10 -91 -11 -66 -2 -93
53 -178 69 -105 95 -123 95 -65 0 19 14 61 30 92 34 65 39 113 11 113 -10 0
-23 16 -30 35 -31 97 -191 219 -191 146z"/>
<path d="M1645 1806 c-14 -5 -25 -42 -26 -83 -1 -79 -35 -155 -127 -283 -58
-81 -62 -111 -10 -89 33 13 178 230 178 265 0 13 9 24 20 24 23 0 28 153 5
166 -8 5 -26 5 -40 0z"/>
<path d="M1790 1735 c11 -71 5 -98 -38 -161 -29 -42 -52 -84 -52 -95 0 -10 -9
-19 -19 -19 -21 0 -81 -103 -81 -139 0 -74 104 26 208 202 80 133 91 214 35
264 -56 51 -67 40 -53 -52z"/>
<path d="M1967 1703 c8 -47 5 -86 -7 -93 -11 -7 -20 -29 -20 -50 0 -20 -8 -40
-18 -43 -34 -13 -164 -224 -154 -250 42 -108 314 301 284 424 -24 95 -100 107
-85 12z"/>
<path d="M724 1736 c-91 -91 104 -283 287 -283 133 0 143 21 56 111 -157 162
-287 228 -343 172z"/>
<path d="M1465 1707 c-14 -6 -25 -31 -25 -56 0 -50 -26 -107 -92 -201 -78
-113 -82 -124 -27 -88 59 40 227 309 209 338 -13 21 -25 23 -65 7z"/>
<path d="M2153 1687 c-7 -8 -13 -48 -13 -90 0 -50 -14 -91 -40 -117 -22 -22
-40 -53 -40 -70 0 -16 -8 -30 -18 -30 -24 0 -102 -133 -102 -173 0 -24 13 -28
55 -18 56 15 84 43 85 86 0 14 8 25 18 25 11 0 25 27 32 60 7 33 21 60 32 60
10 0 18 12 18 28 0 15 14 38 30 52 39 33 38 129 -1 169 -36 35 -38 36 -56 18z"/>
<path d="M115 1628 c-6 -6 3 -37 22 -68 27 -49 29 -68 8 -123 -24 -64 79 -277
135 -277 30 0 100 114 100 165 0 99 -219 350 -265 303z"/>
<path d="M2314 1510 c-6 -39 -37 -105 -68 -146 -120 -158 -162 -284 -96 -284
36 0 110 70 110 105 0 14 32 72 70 129 78 117 88 184 33 234 -36 32 -38 30
-49 -38z"/>
<path d="M610 1524 c-73 -16 -91 -92 -45 -190 40 -85 435 -179 435 -103 0 64
-324 308 -390 293z"/>
<path d="M9 1298 c7 -37 13 -91 13 -120 0 -58 132 -198 186 -198 79 0 -50 271
-168 354 -45 32 -45 32 -31 -36z"/>
<path d="M404 1209 c-75 -85 7 -201 188 -266 163 -57 330 -28 209 36 -21 12
-51 46 -65 76 -57 120 -274 220 -332 154z"/>
<path d="M292 1048 c-20 -53 -14 -88 17 -88 15 0 34 18 41 40 22 68 -33 114
-58 48z"/>
<path d="M1226 1006 c-73 -10 -123 -57 -92 -88 13 -13 49 -13 108 1 423 97
461 -160 83 -551 -305 -315 -307 -308 95 -308 307 0 320 2 320 40 0 38 -13 40
-220 40 -260 0 -258 -4 -84 172 451 458 358 765 -210 694z"/>
<path d="M280 885 c0 -29 331 -325 364 -325 52 0 62 35 16 60 -22 12 -62 56
-89 98 -65 103 -291 233 -291 167z"/>
</g>
</svg>
