<?xml version="1.0" standalone="no"?>
<!DOCTYPE svg PUBLIC "-//W3C//DTD SVG 20010904//EN"
 "http://www.w3.org/TR/2001/REC-SVG-20010904/DTD/svg10.dtd">
<svg version="1.0" xmlns="http://www.w3.org/2000/svg"
 width="120.000000pt" height="120.000000pt" viewBox="0 0 120.000000 120.000000"
 preserveAspectRatio="xMidYMid meet">
<metadata>
Created by potrace 1.10, written by Peter Selinger 2001-2011
</metadata>
<g transform="translate(0.000000,120.000000) scale(0.050000,-0.050000)"
fill="#000000" stroke="none">
<path d="M845 2386 c-14 -5 -68 -54 -120 -108 -52 -54 -174 -179 -270 -277
-217 -222 -235 -358 -74 -552 44 -53 3 -54 -42 -2 -53 61 -101 46 -148 -45
-85 -165 135 -415 294 -333 l48 25 -9 -185 c-18 -387 135 -581 451 -575 136 2
145 -1 146 -41 2 -71 91 -283 122 -289 16 -3 154 122 308 277 515 522 659 663
704 693 168 113 -139 346 -456 346 -258 0 -405 -79 -574 -307 -38 -52 -45 -55
-45 -21 0 67 264 336 377 385 151 65 348 60 458 -12 198 -130 106 221 -99 375
-118 90 -348 88 -412 -3 -37 -53 -83 -46 -153 22 -177 171 -659 129 -731 -64
-11 -30 -30 -83 -43 -116 -40 -107 -65 -36 -30 85 58 197 166 263 442 266 210
3 225 11 203 99 -14 57 -127 131 -199 131 -60 0 -63 5 -29 59 41 66 -49 192
-119 167z m255 -914 c123 -45 105 -98 -27 -82 -155 20 -276 -25 -409 -150 -58
-55 -109 -100 -113 -100 -17 0 19 95 57 150 124 180 308 248 492 182z"/>
<path d="M1486 2030 c-118 -83 -70 -204 62 -157 45 16 102 24 127 18 64 -17
56 20 -22 100 -74 76 -104 83 -167 39z"/>
</g>
</svg>
