<?xml version="1.0" standalone="no"?>
<!DOCTYPE svg PUBLIC "-//W3C//DTD SVG 20010904//EN"
 "http://www.w3.org/TR/2001/REC-SVG-20010904/DTD/svg10.dtd">
<svg version="1.0" xmlns="http://www.w3.org/2000/svg"
 width="120.000000pt" height="120.000000pt" viewBox="0 0 120.000000 120.000000"
 preserveAspectRatio="xMidYMid meet">
<metadata>
Created by potrace 1.10, written by Peter Selinger 2001-2011
</metadata>
<g transform="translate(0.000000,120.000000) scale(0.050000,-0.050000)"
fill="#000000" stroke="none">
<path d="M940 2238 c0 -23 79 -96 105 -97 29 -2 15 53 -22 86 -41 38 -83 43
-83 11z"/>
<path d="M1460 2220 c0 -10 35 -37 77 -59 43 -21 123 -86 180 -143 98 -101
173 -102 110 -2 -56 90 -367 262 -367 204z"/>
<path d="M760 2202 c0 -9 14 -28 30 -42 17 -14 30 -40 30 -58 0 -44 39 -82 83
-82 62 0 57 32 -17 117 -67 77 -126 107 -126 65z"/>
<path d="M1264 2163 c-26 -17 48 -83 92 -83 9 0 68 -49 130 -110 110 -108 159
-131 185 -88 17 27 -81 131 -161 173 -33 17 -85 52 -117 78 -60 50 -87 56
-129 30z"/>
<path d="M620 2111 c0 -88 114 -292 141 -251 31 49 22 97 -34 180 -43 66 -107
108 -107 71z"/>
<path d="M1105 2066 c-67 -13 -55 -60 26 -98 39 -18 112 -73 162 -122 86 -83
207 -111 207 -47 0 23 -195 201 -220 201 -12 0 -41 18 -65 40 -23 22 -48 39
-54 37 -6 -1 -31 -6 -56 -11z"/>
<path d="M449 1978 c-7 -12 -3 -32 9 -44 12 -12 22 -47 22 -78 0 -30 29 -102
64 -160 l65 -104 17 79 c26 115 27 110 -55 224 -76 107 -98 122 -122 83z"/>
<path d="M936 1926 c-65 -16 -70 -126 -5 -126 16 0 29 -10 29 -22 0 -13 17
-18 37 -13 22 6 46 -5 60 -28 13 -20 37 -37 53 -37 17 0 30 -18 30 -40 0 -43
145 -61 169 -21 33 52 -296 305 -373 287z"/>
<path d="M280 1791 c0 -16 10 -35 21 -42 14 -8 17 -43 8 -92 -10 -59 -5 -89
19 -115 18 -20 49 -70 69 -111 l37 -76 43 89 c57 117 55 126 -32 234 -122 151
-165 181 -165 113z"/>
<path d="M1657 1766 c-1 -20 -1 -70 2 -111 3 -44 -5 -75 -18 -75 -12 0 -31
-22 -41 -50 -10 -27 -28 -50 -40 -50 -11 0 -20 -12 -20 -27 0 -15 -18 -43 -40
-63 -47 -42 -51 -70 -12 -70 58 0 255 314 248 396 -6 79 -73 122 -79 50z"/>
<path d="M1836 1790 c-6 -7 -7 -49 -2 -96 7 -63 0 -95 -27 -127 -20 -24 -50
-63 -67 -88 -16 -24 -40 -54 -52 -67 -55 -58 -71 -112 -32 -112 44 0 124 80
124 124 0 18 14 37 30 43 17 7 30 24 30 40 0 15 14 40 31 54 22 18 29 54 25
126 -5 90 -30 132 -60 103z"/>
<path d="M2023 1669 c3 -64 -6 -102 -26 -117 -16 -12 -36 -35 -43 -52 -15 -31
-54 -92 -122 -188 -20 -29 -32 -58 -26 -64 72 -73 312 308 278 440 -26 100
-65 88 -61 -19z"/>
<path d="M741 1701 c-45 -83 21 -201 112 -201 15 0 27 -8 27 -17 0 -47 165
-78 248 -45 38 15 -142 222 -193 222 -10 0 -42 18 -70 40 -63 50 -98 51 -124
1z"/>
<path d="M1505 1687 c-14 -6 -25 -32 -25 -58 0 -26 -45 -106 -99 -178 -55 -72
-88 -131 -74 -131 39 0 253 302 253 357 0 24 -14 26 -55 10z"/>
<path d="M2200 1604 c0 -46 -13 -90 -30 -104 -16 -14 -30 -32 -30 -41 0 -9
-36 -70 -80 -137 -92 -138 -100 -171 -35 -151 54 17 38 -1 116 129 36 61 78
125 94 143 34 40 26 220 -10 232 -17 6 -25 -16 -25 -71z"/>
<path d="M128 1551 c36 -55 42 -142 12 -161 -34 -21 -22 -69 30 -126 28 -29
50 -64 50 -76 0 -85 79 -69 127 26 49 95 -25 266 -152 355 -72 50 -106 41 -67
-18z"/>
<path d="M2382 1550 c-4 -11 -5 -40 -3 -65 2 -27 -21 -70 -58 -107 -34 -34
-61 -82 -61 -110 0 -26 -9 -48 -20 -48 -25 0 -92 -135 -75 -152 28 -28 101 21
128 87 16 39 48 95 70 124 31 43 38 78 32 172 -4 66 -10 110 -13 99z"/>
<path d="M586 1495 c-46 -21 -49 -56 -17 -179 17 -63 200 -136 342 -136 113 0
117 12 32 101 -40 42 -82 87 -93 98 -26 28 -151 110 -190 124 -16 6 -50 2 -74
-8z"/>
<path d="M0 1204 c0 -112 160 -307 200 -244 33 52 22 102 -40 180 -33 42 -60
85 -60 97 0 20 -61 63 -89 63 -6 0 -11 -43 -11 -96z"/>
<path d="M432 1190 c-42 -32 -48 -122 -14 -187 24 -44 243 -123 340 -123 90 0
95 36 14 114 -39 39 -72 78 -72 86 0 13 -207 141 -225 139 -3 0 -22 -13 -43
-29z"/>
<path d="M291 1033 c-6 -18 -15 -47 -21 -64 -7 -22 1 -30 25 -25 41 8 58 71
28 101 -15 15 -25 12 -32 -12z"/>
<path d="M1184 1020 c-83 -19 -96 -32 -66 -67 17 -22 41 -24 98 -11 256 59
391 -13 343 -185 -28 -102 -75 -135 -216 -150 -168 -17 -189 -97 -23 -89 157
7 294 -105 272 -223 -26 -142 -180 -208 -368 -158 -92 25 -124 18 -124 -27 0
-71 369 -88 496 -22 141 73 158 301 31 412 -71 63 -72 63 -29 93 101 71 125
269 44 369 -55 68 -290 98 -458 58z"/>
<path d="M283 845 c23 -52 317 -305 354 -305 55 0 55 27 -2 74 -25 21 -55 55
-67 77 -48 85 -319 232 -285 154z"/>
</g>
</svg>
