<?xml version="1.0" standalone="no"?>
<!DOCTYPE svg PUBLIC "-//W3C//DTD SVG 20010904//EN"
 "http://www.w3.org/TR/2001/REC-SVG-20010904/DTD/svg10.dtd">
<svg version="1.0" xmlns="http://www.w3.org/2000/svg"
 width="120.000000pt" height="120.000000pt" viewBox="0 0 120.000000 120.000000"
 preserveAspectRatio="xMidYMid meet">
<metadata>
Created by potrace 1.10, written by Peter Selinger 2001-2011
</metadata>
<g transform="translate(0.000000,120.000000) scale(0.050000,-0.050000)"
fill="#000000" stroke="none">
<path d="M1183 2095 c-13 -80 -37 -212 -52 -295 -15 -82 -41 -226 -58 -320
-37 -204 -76 -401 -85 -435 -13 -47 -59 -25 -178 87 -66 61 -130 117 -143 125
-13 7 -84 70 -159 140 -129 121 -178 137 -128 43 13 -24 44 -112 70 -196 26
-85 76 -237 112 -339 82 -236 83 -236 -238 -133 -149 48 -143 24 44 -169 154
-159 287 -310 340 -386 44 -63 67 -27 26 42 -19 31 -34 70 -34 87 0 16 -13 40
-30 54 -95 79 6 77 115 -2 107 -77 111 -61 46 183 -57 214 -58 219 -32 219 21
0 221 -293 221 -323 0 -9 11 -17 25 -17 23 0 99 276 148 535 6 36 19 65 28 65
17 0 21 -11 58 -170 13 -55 36 -149 52 -210 16 -60 31 -132 34 -158 9 -89 47
-65 153 98 169 256 181 220 59 -176 -29 -94 -8 -102 107 -38 125 70 134 61 69
-65 -74 -140 -48 -176 47 -66 199 230 316 364 364 415 96 103 79 109 -134 50
-173 -48 -190 -49 -190 -6 0 34 68 276 100 356 42 105 121 376 112 385 -5 5
-94 -65 -196 -157 -102 -92 -195 -174 -206 -183 -11 -9 -51 -43 -89 -76 -82
-71 -97 -73 -110 -14 -51 242 -78 382 -91 475 -9 61 -31 178 -49 260 -17 83
-40 212 -50 287 -25 192 -49 201 -78 28z"/>
</g>
</svg>
