<?xml version="1.0" standalone="no"?>
<!DOCTYPE svg PUBLIC "-//W3C//DTD SVG 20010904//EN"
 "http://www.w3.org/TR/2001/REC-SVG-20010904/DTD/svg10.dtd">
<svg version="1.0" xmlns="http://www.w3.org/2000/svg"
 width="120.000000pt" height="120.000000pt" viewBox="0 0 120.000000 120.000000"
 preserveAspectRatio="xMidYMid meet">
<metadata>
Created by potrace 1.10, written by Peter Selinger 2001-2011
</metadata>
<g transform="translate(0.000000,120.000000) scale(0.050000,-0.050000)"
fill="#000000" stroke="none">
<path d="M307 1858 c7 -27 13 -105 13 -175 0 -141 -15 -119 255 -363 157 -141
171 -175 95 -221 -27 -16 -117 -96 -199 -177 l-149 -146 4 -171 c2 -99 13
-175 25 -179 22 -7 769 706 769 734 0 31 -750 718 -805 738 -13 4 -16 -11 -8
-40z"/>
<path d="M1819 1723 c-110 -218 -219 -323 -296 -284 -60 30 -326 105 -336 94
-6 -5 31 -60 82 -122 171 -211 181 -248 92 -350 -23 -26 -41 -55 -41 -65 0 -9
-37 -57 -83 -106 -109 -119 -42 -122 233 -9 90 36 148 39 174 8 14 -17 35 -41
46 -55 12 -13 55 -72 98 -130 105 -145 123 -130 117 100 -4 135 2 196 20 210
37 29 311 126 355 126 99 0 42 42 -135 100 -256 84 -245 71 -245 291 0 252
-23 307 -81 192z"/>
<path d="M60 1446 c0 -63 15 -87 100 -166 123 -114 123 -113 0 -226 -88 -82
-100 -102 -100 -173 0 -118 31 -105 242 102 l186 183 -72 62 c-40 34 -130 114
-201 177 -153 136 -155 136 -155 41z"/>
</g>
</svg>
