<?xml version="1.0" standalone="no"?>
<!DOCTYPE svg PUBLIC "-//W3C//DTD SVG 20010904//EN"
 "http://www.w3.org/TR/2001/REC-SVG-20010904/DTD/svg10.dtd">
<svg version="1.0" xmlns="http://www.w3.org/2000/svg"
 width="120.000000pt" height="120.000000pt" viewBox="0 0 120.000000 120.000000"
 preserveAspectRatio="xMidYMid meet">
<metadata>
Created by potrace 1.10, written by Peter Selinger 2001-2011
</metadata>
<g transform="translate(0.000000,120.000000) scale(0.050000,-0.050000)"
fill="#000000" stroke="none">
<path d="M462 1978 c-48 -78 -62 -164 -68 -398 l-4 -170 70 -11 c137 -21 140
-17 140 210 0 191 -34 367 -81 419 -9 9 -35 -13 -57 -50z"/>
<path d="M1864 1922 c-38 -99 -45 -148 -40 -315 l6 -197 96 -6 96 -6 -8 226
c-15 392 -71 502 -150 298z"/>
<path d="M1184 1855 c-64 -77 -101 -251 -107 -505 l-7 -259 76 -13 c42 -6 98
-8 125 -3 l49 10 0 272 c0 240 -6 287 -47 388 -56 138 -61 144 -89 110z"/>
<path d="M376 1317 c-14 -9 -51 -17 -81 -17 -35 0 -55 -11 -55 -30 0 -25 41
-30 249 -30 237 0 339 24 217 51 -31 7 -69 18 -86 24 -48 18 -216 20 -244 2z"/>
<path d="M1735 1305 c-48 -5 -75 -18 -75 -36 0 -24 47 -29 262 -29 200 0 259
6 253 25 -15 44 -221 63 -440 40z"/>
<path d="M413 1167 c-16 -17 -17 -193 -1 -235 18 -47 162 -44 176 3 12 40 -1
197 -19 226 -13 22 -135 26 -156 6z"/>
<path d="M1850 1168 c-11 -4 -20 -60 -19 -123 l1 -115 78 0 77 0 2 110 c3 129
-41 170 -139 128z"/>
<path d="M1031 981 c-7 -11 -44 -21 -81 -21 -73 0 -107 -31 -73 -65 18 -18
288 -26 598 -17 97 3 80 49 -30 80 -128 36 -397 51 -414 23z"/>
<path d="M420 822 c0 -26 60 -45 103 -31 21 7 32 20 26 30 -15 24 -129 25
-129 1z"/>
<path d="M1865 815 c5 -14 29 -25 55 -25 26 0 50 11 55 25 5 16 -13 25 -55 25
-42 0 -60 -9 -55 -25z"/>
<path d="M1080 630 l0 -172 115 6 115 6 0 160 0 160 -115 6 -115 6 0 -172z"/>
<path d="M1114 367 c-27 -26 11 -47 87 -47 57 0 79 8 79 30 0 31 -138 45 -166
17z"/>
</g>
</svg>
