<?xml version="1.0" standalone="no"?>
<!DOCTYPE svg PUBLIC "-//W3C//DTD SVG 20010904//EN"
 "http://www.w3.org/TR/2001/REC-SVG-20010904/DTD/svg10.dtd">
<svg version="1.0" xmlns="http://www.w3.org/2000/svg"
 width="120.000000pt" height="120.000000pt" viewBox="0 0 120.000000 120.000000"
 preserveAspectRatio="xMidYMid meet">
<metadata>
Created by potrace 1.10, written by Peter Selinger 2001-2011
</metadata>
<g transform="translate(0.000000,120.000000) scale(0.050000,-0.050000)"
fill="#000000" stroke="none">
<path d="M991 1930 c-26 -23 -80 -96 -221 -300 -54 -77 -103 -144 -111 -150
-7 -5 -67 -86 -134 -180 -66 -93 -139 -187 -163 -208 -51 -46 -55 -92 -7 -91
36 1 159 26 662 138 317 71 321 70 277 -23 -17 -36 -41 -106 -54 -156 -28
-110 -118 -343 -141 -368 -10 -11 -46 4 -87 35 -120 91 -132 78 -64 -71 26
-58 59 -141 75 -184 42 -120 39 -120 287 39 55 35 142 83 194 106 152 69 161
133 11 76 -143 -55 -147 -44 -41 110 40 59 83 125 95 147 27 49 215 336 230
350 12 11 148 207 206 296 54 83 82 143 73 153 -7 7 -428 -50 -733 -100 -123
-20 -110 4 110 201 107 96 191 180 185 186 -18 20 -625 15 -649 -6z"/>
</g>
</svg>
