<?xml version="1.0" standalone="no"?>
<!DOCTYPE svg PUBLIC "-//W3C//DTD SVG 20010904//EN"
 "http://www.w3.org/TR/2001/REC-SVG-20010904/DTD/svg10.dtd">
<svg version="1.0" xmlns="http://www.w3.org/2000/svg"
 width="120.000000pt" height="120.000000pt" viewBox="0 0 120.000000 120.000000"
 preserveAspectRatio="xMidYMid meet">
<metadata>
Created by potrace 1.10, written by Peter Selinger 2001-2011
</metadata>
<g transform="translate(0.000000,120.000000) scale(0.050000,-0.050000)"
fill="#000000" stroke="none">
<path d="M900 2263 c0 -32 83 -123 111 -123 41 0 36 45 -12 96 -40 44 -99 60
-99 27z"/>
<path d="M752 2224 c-13 -22 61 -173 100 -206 74 -61 95 28 27 113 -69 88
-111 118 -127 93z"/>
<path d="M1400 2205 c0 -9 44 -45 99 -80 54 -36 124 -101 155 -144 58 -83 77
-93 124 -63 22 15 21 27 -10 70 -83 116 -368 284 -368 217z"/>
<path d="M1200 2144 c0 -17 109 -104 131 -104 6 0 51 -40 98 -90 79 -82 191
-126 191 -74 0 20 -123 137 -233 221 -76 58 -187 86 -187 47z"/>
<path d="M600 2120 c0 -11 8 -36 19 -55 10 -19 24 -57 30 -85 18 -83 86 -156
111 -120 33 50 23 99 -41 191 -56 82 -119 118 -119 69z"/>
<path d="M1055 2046 c-54 -14 -43 -33 58 -106 50 -36 121 -98 156 -136 60 -66
171 -84 171 -29 0 27 -129 158 -218 222 -88 63 -101 67 -167 49z"/>
<path d="M474 1987 c-44 -44 77 -368 126 -337 26 16 49 152 28 167 -22 16 -62
79 -88 138 -19 45 -42 56 -66 32z"/>
<path d="M881 1891 c-36 -43 -18 -90 49 -127 33 -19 88 -64 122 -101 58 -62
69 -66 145 -53 109 18 107 24 -59 178 -145 134 -210 160 -257 103z"/>
<path d="M300 1801 c0 -12 11 -39 25 -61 20 -32 20 -48 -1 -81 -22 -35 -16
-56 41 -159 66 -121 115 -154 115 -79 0 22 15 63 32 90 36 54 45 32 -87 219
-54 76 -125 117 -125 71z"/>
<path d="M1612 1765 c-7 -6 -12 -45 -12 -85 0 -50 -19 -100 -60 -157 -33 -45
-60 -89 -60 -97 0 -7 -20 -34 -43 -60 -44 -46 -40 -79 7 -61 56 21 236 315
236 384 0 62 -39 106 -68 76z"/>
<path d="M1769 1705 c12 -69 2 -92 -99 -243 -74 -111 -105 -175 -92 -188 49
-49 295 311 273 401 -30 120 -101 146 -82 30z"/>
<path d="M735 1718 c-121 -70 94 -298 281 -298 119 0 119 26 0 146 -168 168
-212 193 -281 152z"/>
<path d="M1940 1643 c0 -62 -24 -113 -112 -242 -73 -108 -105 -172 -92 -185
31 -31 102 24 149 114 22 44 62 108 88 142 64 83 68 248 7 248 -33 0 -40 -13
-40 -77z"/>
<path d="M1432 1655 c-3 -14 -17 -57 -29 -96 -30 -95 -29 -109 8 -78 39 32 89
127 89 168 0 37 -58 42 -68 6z"/>
<path d="M2114 1647 c-7 -6 -8 -35 -2 -64 6 -36 -10 -85 -51 -153 -91 -149
-109 -176 -136 -206 -29 -32 -33 -84 -6 -84 45 0 121 41 121 66 0 15 36 83 80
152 90 139 107 246 43 281 -21 11 -43 14 -49 8z"/>
<path d="M154 1608 c-6 -6 -1 -39 10 -72 15 -41 15 -81 1 -126 -24 -80 74
-277 132 -266 82 16 117 225 46 276 -8 5 -36 44 -61 85 -45 75 -106 124 -128
103z"/>
<path d="M2275 1461 c-6 -46 -36 -113 -70 -156 -130 -166 -161 -310 -56 -262
28 13 51 38 51 55 0 18 41 95 90 171 104 162 106 169 43 228 l-47 45 -11 -81z"/>
<path d="M563 1482 c-55 -34 -15 -213 52 -234 19 -7 53 -19 75 -28 207 -86
330 -68 241 33 -17 21 -59 71 -93 112 -34 41 -74 75 -88 75 -14 0 -36 14 -50
30 -27 33 -95 39 -137 12z"/>
<path d="M1299 1379 c-24 -34 -37 -68 -29 -75 15 -15 110 86 110 117 0 38 -38
18 -81 -42z"/>
<path d="M8 1332 c-7 -19 -3 -45 9 -57 13 -13 23 -55 23 -95 0 -58 16 -88 86
-156 89 -88 114 -90 114 -11 0 108 -205 390 -232 319z"/>
<path d="M413 1178 c-87 -124 93 -296 311 -297 95 -1 111 27 47 86 -28 26 -51
62 -51 80 0 36 -192 173 -244 173 -18 0 -47 -19 -63 -42z"/>
<path d="M302 1016 c-19 -50 1 -89 36 -67 28 17 29 85 2 101 -11 7 -28 -8 -38
-34z"/>
<path d="M1246 845 c-77 -107 -151 -217 -166 -245 -14 -27 -32 -54 -39 -60
-38 -29 -103 -165 -97 -203 6 -42 15 -44 206 -41 244 3 246 2 254 -146 6 -119
7 -120 66 -120 58 0 60 3 54 80 -10 126 23 190 97 190 91 0 73 66 -21 80 l-70
10 -5 300 c-7 351 -6 350 -82 350 -51 0 -76 -25 -197 -195z m150 -250 l-6
-205 -118 -6 c-170 -9 -187 2 -127 81 27 36 65 97 85 135 19 39 41 75 48 80 7
6 29 35 48 65 62 97 76 67 70 -150z"/>
<path d="M300 855 c1 -51 277 -315 330 -315 66 0 64 11 -27 109 -43 46 -81 92
-85 102 -26 62 -218 153 -218 104z"/>
</g>
</svg>
