<?xml version="1.0" standalone="no"?>
<!DOCTYPE svg PUBLIC "-//W3C//DTD SVG 20010904//EN"
 "http://www.w3.org/TR/2001/REC-SVG-20010904/DTD/svg10.dtd">
<svg version="1.0" xmlns="http://www.w3.org/2000/svg"
 width="360.000000pt" height="360.000000pt" viewBox="0 0 360.000000 360.000000"
 preserveAspectRatio="xMidYMid meet">
<metadata>
Created by potrace 1.10, written by Peter Selinger 2001-2011
</metadata>
<g transform="translate(0.000000,360.000000) scale(0.100000,-0.100000)"
fill="#000000" stroke="none">
<path d="M2105 2910 c-150 -6 -177 -10 -232 -33 -34 -14 -76 -28 -93 -32 -16
-4 -32 -10 -35 -15 -3 -5 -43 -27 -88 -50 -45 -22 -93 -47 -107 -55 -26 -15
-126 -102 -194 -171 -23 -22 -49 -43 -58 -47 -13 -4 -18 -17 -18 -41 0 -29 7
-39 42 -65 59 -44 91 -41 123 9 13 21 33 44 42 49 10 5 47 38 83 73 43 43 82
70 115 82 28 10 59 27 70 37 31 28 106 59 145 59 19 0 47 7 62 14 50 26 341
20 488 -11 82 -17 152 -49 250 -114 137 -91 235 -175 274 -237 13 -20 38 -50
54 -66 22 -20 33 -42 38 -73 4 -25 18 -58 35 -79 16 -20 29 -49 29 -63 0 -14
7 -48 16 -76 20 -66 36 -350 24 -417 -6 -28 -10 -67 -10 -87 0 -36 -36 -158
-58 -197 -6 -12 -21 -47 -32 -77 -12 -31 -34 -67 -49 -80 -16 -13 -39 -42 -52
-65 -13 -23 -32 -45 -41 -48 -10 -3 -27 -17 -38 -32 -12 -15 -36 -38 -54 -52
-18 -14 -59 -44 -90 -68 -31 -24 -80 -55 -109 -69 -29 -14 -65 -35 -82 -47
-16 -11 -52 -23 -80 -27 -27 -4 -88 -13 -135 -20 -88 -14 -245 -14 -327 1
-133 23 -171 33 -205 55 -20 14 -57 30 -83 36 -30 8 -57 24 -78 46 -18 19 -51
46 -74 59 -22 14 -44 31 -47 39 -2 7 -28 32 -56 54 -48 38 -56 41 -115 41 -75
0 -90 -13 -82 -69 13 -100 363 -361 517 -386 25 -4 73 -18 107 -30 70 -27 103
-32 258 -44 89 -7 129 -5 210 9 55 10 111 23 125 29 14 6 57 20 97 30 67 17
108 41 241 136 93 67 260 229 292 283 18 31 52 86 76 122 23 36 47 82 54 103
6 21 22 50 34 65 17 21 28 59 45 161 25 152 26 195 11 408 -11 152 -23 208
-59 267 -11 17 -29 56 -41 88 -11 31 -32 71 -45 90 -13 18 -31 48 -40 67 -8
19 -24 40 -33 47 -10 7 -40 45 -66 84 -27 39 -58 75 -70 80 -11 4 -30 18 -41
29 -58 65 -331 222 -410 236 -22 4 -47 13 -55 20 -13 11 -108 31 -180 39 -14
1 -101 0 -195 -4z"/>
<path d="M2116 2476 l-47 -55 -2 -383 c-1 -211 2 -405 6 -431 8 -45 11 -50 54
-68 66 -28 94 -24 165 23 88 58 129 84 160 99 184 95 235 149 253 273 6 39 4
46 -14 56 -45 24 -219 -28 -303 -89 -23 -17 -50 -31 -59 -31 -37 0 -40 21 -38
273 l3 245 -29 57 c-26 51 -63 85 -93 85 -5 0 -30 -24 -56 -54z"/>
<path d="M534 2318 c-23 -24 -79 -80 -125 -126 -67 -67 -130 -134 -146 -155
-1 -1 -5 -91 -8 -199 -7 -218 -7 -218 56 -283 21 -22 45 -53 53 -69 14 -27 13
-32 -15 -84 -23 -44 -29 -67 -29 -116 0 -34 4 -66 8 -73 14 -22 62 -33 142
-33 123 0 171 -42 125 -108 -15 -20 -14 -24 17 -57 l33 -35 242 -4 c189 -2
247 0 261 10 15 10 20 30 25 89 3 42 11 83 17 91 9 10 38 14 112 14 132 0 138
4 138 85 0 57 -3 68 -29 98 -49 55 -49 77 -2 131 23 26 55 59 71 73 17 14 34
33 39 42 5 9 6 99 2 201 l-6 185 -36 45 c-20 25 -86 96 -147 157 -62 62 -112
117 -112 121 0 26 -65 32 -348 38 l-298 5 -40 -43z m264 -783 c5 -83 -4 -107
-68 -173 -52 -54 -64 -62 -96 -62 -29 0 -44 7 -70 35 -55 59 -55 148 -1 211
24 28 95 43 187 40 l45 -1 3 -50z m399 15 c81 -60 91 -104 42 -180 -46 -70
-88 -83 -171 -51 -39 15 -70 82 -76 163 -6 90 1 98 92 98 64 0 76 -3 113 -30z"/>
</g>
</svg>
