<?xml version="1.0" standalone="no"?>
<!DOCTYPE svg PUBLIC "-//W3C//DTD SVG 20010904//EN"
 "http://www.w3.org/TR/2001/REC-SVG-20010904/DTD/svg10.dtd">
<svg version="1.0" xmlns="http://www.w3.org/2000/svg"
 width="125.000000pt" height="125.000000pt" viewBox="0 0 125.000000 125.000000"
 preserveAspectRatio="xMidYMid meet">
<metadata>
Created by potrace 1.10, written by Peter Selinger 2001-2011
</metadata>
<g transform="translate(0.000000,125.000000) scale(0.050000,-0.050000)"
fill="#000000" stroke="none">
<path d="M1024 2429 c-92 -65 -62 -172 76 -278 119 -90 160 -109 160 -73 0 10
46 51 102 92 185 133 89 370 -103 256 -54 -32 -60 -32 -95 0 -46 42 -82 43
-140 3z"/>
<path d="M983 1732 c-106 -111 -123 -139 -124 -205 0 -42 -13 -99 -29 -127
-16 -27 -29 -70 -29 -94 -1 -46 -57 -153 -135 -258 -86 -115 5 -256 205 -319
60 -19 119 -47 131 -62 24 -28 118 -38 117 -12 0 8 -13 32 -30 54 -16 21 -29
51 -29 66 0 14 -26 72 -57 127 l-58 100 -63 -54 c-103 -86 -123 -34 -37 96 38
58 77 129 85 156 9 28 36 82 61 121 24 39 48 88 52 108 13 68 71 85 117 35 51
-54 73 -55 100 -4 36 67 76 45 136 -75 31 -63 80 -151 108 -195 64 -102 135
-264 122 -277 -17 -18 -75 11 -110 55 -41 51 -49 43 -127 -128 -32 -71 -70
-142 -84 -156 -66 -71 7 -87 98 -22 32 23 106 59 163 80 223 80 252 168 124
373 -78 125 -92 166 -107 304 -20 175 -46 223 -191 357 -147 136 -246 125
-409 -44z"/>
<path d="M51 1336 c-66 -95 -46 -149 102 -271 109 -90 135 -100 161 -60 9 14
54 51 100 82 178 121 88 374 -95 266 -54 -32 -119 -27 -119 9 0 39 -118 18
-149 -26z"/>
<path d="M2011 1336 c-67 -96 -38 -172 98 -256 39 -24 71 -52 71 -62 0 -55
107 1 244 128 51 46 59 66 48 118 -20 103 -135 154 -192 86 -14 -16 -41 -30
-60 -30 -19 0 -46 14 -60 30 -37 44 -113 37 -149 -14z"/>
<path d="M1061 1262 c-86 -121 9 -382 140 -382 145 0 249 271 150 389 -46 56
-51 57 -87 25 -46 -42 -81 -43 -125 -3 -32 29 -38 26 -78 -29z"/>
<path d="M1008 390 c-80 -80 -56 -172 63 -241 47 -28 90 -64 97 -80 14 -37 85
-38 106 -2 9 15 45 42 80 60 109 56 140 168 69 250 -39 44 -131 58 -153 23
-15 -25 -104 -26 -119 -2 -26 42 -97 38 -143 -8z"/>
</g>
</svg>
