<?xml version="1.0" standalone="no"?>
<!DOCTYPE svg PUBLIC "-//W3C//DTD SVG 20010904//EN"
 "http://www.w3.org/TR/2001/REC-SVG-20010904/DTD/svg10.dtd">
<svg version="1.0" xmlns="http://www.w3.org/2000/svg"
 width="120.000000pt" height="120.000000pt" viewBox="0 0 120.000000 120.000000"
 preserveAspectRatio="xMidYMid meet">
<metadata>
Created by potrace 1.10, written by Peter Selinger 2001-2011
</metadata>
<g transform="translate(0.000000,120.000000) scale(0.050000,-0.050000)"
fill="#000000" stroke="none">
<path d="M1230 2122 c-44 -19 -195 -66 -335 -104 -302 -81 -306 -94 -40 -146
l201 -39 67 58 c216 190 269 304 107 231z"/>
<path d="M1438 2135 c-17 -14 -64 -67 -104 -119 -41 -52 -102 -121 -134 -153
-33 -33 -60 -70 -60 -81 0 -28 634 -662 662 -662 27 0 358 342 358 370 0 27
-644 670 -671 670 -12 0 -35 -11 -51 -25z"/>
<path d="M479 1855 c-1 -3 -5 -38 -9 -79 -4 -41 -18 -94 -31 -118 -13 -24 -31
-89 -40 -146 -25 -151 -75 -358 -111 -464 -35 -103 -27 -118 72 -139 69 -15
193 -49 302 -82 118 -36 152 -22 165 69 14 100 59 293 123 534 75 279 79 308
47 318 -15 4 -81 19 -147 34 -66 14 -149 37 -184 52 -55 22 -184 37 -187 21z"/>
<path d="M1087 1635 c-9 -14 -19 -47 -23 -75 -4 -27 -15 -59 -25 -72 -11 -12
-19 -44 -18 -70 1 -79 -61 -342 -103 -433 -80 -177 -69 -185 173 -108 98 31
272 83 386 115 265 74 265 68 10 312 -120 113 -249 240 -289 281 -79 82 -88
87 -111 50z"/>
<path d="M2084 1316 c-13 -13 -24 -34 -24 -47 0 -12 -44 -69 -98 -125 -110
-115 -114 -148 -43 -384 53 -177 67 -150 173 330 20 88 44 171 54 184 35 49
-19 85 -62 42z"/>
<path d="M1490 909 c-225 -71 -372 -115 -527 -158 -48 -13 -96 -39 -106 -57
-17 -31 -23 -31 -73 4 -30 20 -99 48 -154 61 -55 13 -133 33 -174 45 -127 37
-155 5 -56 -66 47 -34 177 -156 289 -270 233 -238 237 -239 188 -43 -20 80
-36 159 -35 175 2 52 115 -206 129 -295 16 -102 72 -127 174 -79 36 17 142 50
235 75 94 25 179 51 190 60 11 8 83 30 160 49 173 42 206 69 174 140 -13 29
-24 72 -24 97 0 25 -8 54 -17 64 -10 10 -28 64 -42 119 -42 175 -33 173 -331
79z"/>
</g>
</svg>
