<?xml version="1.0" standalone="no"?>
<!DOCTYPE svg PUBLIC "-//W3C//DTD SVG 20010904//EN"
 "http://www.w3.org/TR/2001/REC-SVG-20010904/DTD/svg10.dtd">
<svg version="1.0" xmlns="http://www.w3.org/2000/svg"
 width="120.000000pt" height="120.000000pt" viewBox="0 0 120.000000 120.000000"
 preserveAspectRatio="xMidYMid meet">
<metadata>
Created by potrace 1.10, written by Peter Selinger 2001-2011
</metadata>
<g transform="translate(0.000000,120.000000) scale(0.100000,-0.100000)"
fill="#000000" stroke="none">
<path d="M146 863 c-19 -19 -3 -51 39 -81 25 -18 48 -32 51 -32 3 0 35 -20 72
-44 37 -24 85 -53 107 -65 22 -12 65 -37 95 -56 78 -49 79 -49 98 -33 9 8 51
34 92 57 41 24 82 47 90 51 8 5 38 21 65 36 28 14 57 32 66 40 8 8 19 14 24
14 4 0 27 12 51 28 40 25 56 54 36 66 -4 2 -200 7 -436 10 -235 3 -431 8 -435
11 -5 2 -11 2 -15 -2z"/>
<path d="M144 553 c3 -102 9 -189 12 -192 3 -3 203 -6 444 -7 l439 -2 -3 191
c-1 114 -6 191 -12 190 -16 -3 -189 -106 -192 -115 -2 -4 -8 -8 -12 -8 -5 0
-51 -25 -102 -55 -129 -77 -133 -78 -210 -27 -14 9 -57 35 -95 56 -37 22 -110
66 -161 98 -51 32 -98 58 -103 58 -7 0 -9 -61 -5 -187z"/>
</g>
</svg>
