<?xml version="1.0" standalone="no"?>
<!DOCTYPE svg PUBLIC "-//W3C//DTD SVG 20010904//EN"
 "http://www.w3.org/TR/2001/REC-SVG-20010904/DTD/svg10.dtd">
<svg version="1.0" xmlns="http://www.w3.org/2000/svg"
 width="120.000000pt" height="120.000000pt" viewBox="0 0 120.000000 120.000000"
 preserveAspectRatio="xMidYMid meet">
<metadata>
Created by potrace 1.10, written by Peter Selinger 2001-2011
</metadata>
<g transform="translate(0.000000,120.000000) scale(0.050000,-0.050000)"
fill="#000000" stroke="none">
<path d="M870 1806 c-109 -10 -453 -82 -545 -114 l-75 -26 -5 -553 c-6 -591
-4 -601 89 -514 108 101 458 240 604 241 76 0 96 -19 176 -175 61 -117 97
-132 127 -50 77 210 138 261 274 225 217 -56 325 -106 510 -234 52 -36 99 -66
105 -66 5 0 10 242 10 537 l0 537 -45 20 c-318 142 -806 211 -1225 172z m146
-471 l-6 -205 -120 -14 c-66 -9 -176 -30 -245 -49 -152 -40 -141 -50 -157 147
-15 188 11 233 146 257 42 8 121 26 176 40 55 15 125 27 156 28 l55 1 -5 -205z
m609 146 c91 -21 190 -48 220 -59 l55 -21 0 -213 c0 -239 17 -223 -170 -157
-55 19 -118 43 -140 52 -22 10 -80 20 -130 23 l-90 6 -6 204 -5 204 50 0 c27
0 124 -17 216 -39z"/>
</g>
</svg>
