<?xml version="1.0" standalone="no"?>
<!DOCTYPE svg PUBLIC "-//W3C//DTD SVG 20010904//EN"
 "http://www.w3.org/TR/2001/REC-SVG-20010904/DTD/svg10.dtd">
<svg version="1.0" xmlns="http://www.w3.org/2000/svg"
 width="120.000000pt" height="120.000000pt" viewBox="0 0 120.000000 120.000000"
 preserveAspectRatio="xMidYMid meet">
<metadata>
Created by potrace 1.10, written by Peter Selinger 2001-2011
</metadata>
<g transform="translate(0.000000,120.000000) scale(0.050000,-0.050000)"
fill="#000000" stroke="none">
<path d="M240 2103 c0 -9 50 -63 111 -119 110 -101 111 -102 78 -152 -32 -50
-32 -52 94 -191 148 -163 168 -168 264 -61 79 87 78 129 -3 147 -113 25 -159
83 -120 153 l35 61 -59 12 c-33 7 -69 24 -82 39 -13 16 -38 28 -57 28 -19 0
-78 22 -133 50 -106 54 -128 59 -128 33z"/>
<path d="M2030 2051 c-162 -78 -244 -111 -277 -111 -46 0 -58 -33 -29 -80 30
-49 -22 -102 -139 -141 -85 -29 -82 -55 15 -147 44 -41 80 -84 80 -94 0 -40
39 -12 177 125 146 147 158 165 123 187 -42 26 -16 84 80 176 146 141 137 166
-30 85z"/>
<path d="M905 1588 c-36 -28 -65 -60 -65 -71 0 -11 -27 -42 -60 -70 -89 -75
-90 -276 -1 -359 55 -52 57 -58 30 -111 -54 -103 -40 -130 71 -145 98 -13 100
-15 100 -83 l0 -69 200 0 c195 0 200 1 200 46 0 64 37 94 115 94 78 0 101 40
71 120 -21 56 -7 101 48 156 16 17 26 77 26 161 l0 134 -119 125 -119 124
-216 0 c-201 0 -220 -4 -281 -52z m229 -537 c-23 -142 -128 -214 -203 -140
-83 84 -10 209 123 209 l91 0 -11 -69z m311 41 c80 -60 -1 -247 -98 -229 -54
11 -116 137 -100 203 16 62 131 77 198 26z"/>
<path d="M533 757 c-129 -130 -135 -141 -105 -175 46 -51 44 -56 -78 -173 -60
-58 -110 -111 -110 -117 0 -21 49 -12 110 20 33 17 130 54 215 83 131 44 209
105 135 105 -64 0 -9 77 90 127 141 72 132 168 -11 123 -56 -18 -104 26 -90
82 21 84 -18 65 -156 -75z"/>
<path d="M1688 853 c-7 -18 -7 -46 -1 -62 15 -40 -18 -57 -115 -59 -119 -3
-108 -52 23 -102 122 -47 140 -75 81 -129 l-42 -40 58 -21 c32 -12 129 -49
215 -82 179 -68 227 -67 144 3 -127 109 -158 160 -111 189 41 25 17 82 -60
139 -44 32 -84 74 -90 92 -20 63 -87 110 -102 72z"/>
</g>
</svg>
