<?xml version="1.0" standalone="no"?>
<!DOCTYPE svg PUBLIC "-//W3C//DTD SVG 20010904//EN"
 "http://www.w3.org/TR/2001/REC-SVG-20010904/DTD/svg10.dtd">
<svg version="1.0" xmlns="http://www.w3.org/2000/svg"
 width="120.000000pt" height="120.000000pt" viewBox="0 0 120.000000 120.000000"
 preserveAspectRatio="xMidYMid meet">
<metadata>
Created by potrace 1.10, written by Peter Selinger 2001-2011
</metadata>
<g transform="translate(0.000000,120.000000) scale(0.050000,-0.050000)"
fill="#000000" stroke="none">
<path d="M656 1706 c-8 -70 -65 -77 -201 -26 -121 46 -123 19 -6 -99 52 -53
84 -101 75 -114 -17 -28 -339 -107 -436 -107 -167 0 -75 -44 257 -122 107 -25
195 -55 195 -67 0 -39 -58 -107 -130 -151 -148 -91 -88 -122 100 -51 145 55
179 40 133 -60 -38 -83 22 -59 114 45 96 108 103 136 33 118 -27 -6 -70 -17
-95 -22 -87 -21 -111 21 -50 85 71 74 70 79 -25 95 -233 39 -287 128 -97 158
147 24 169 45 108 106 -103 103 -72 120 134 74 73 -17 68 5 -24 108 l-78 86
-7 -56z"/>
<path d="M2150 1531 c-32 -15 -132 -27 -221 -28 -90 -1 -206 -11 -259 -23
-146 -33 -715 -63 -738 -40 -46 46 -62 15 -62 -123 l0 -142 180 -9 c440 -21
415 -24 434 49 37 142 216 167 331 45 74 -79 77 -80 220 -80 l145 0 0 -58 c0
-63 41 -91 103 -71 25 8 37 31 37 71 0 34 13 64 30 71 40 15 41 193 1 226 -16
13 -31 48 -35 77 -7 64 -71 77 -166 35z"/>
<path d="M1625 1167 c-45 -18 -27 -98 32 -142 47 -34 91 -43 255 -47 l198 -6
6 54 7 54 -182 0 c-176 0 -183 2 -201 50 -18 47 -57 60 -115 37z"/>
<path d="M1195 937 c-63 -23 -73 -85 -26 -148 17 -22 30 -82 30 -134 1 -88 5
-95 51 -95 42 0 50 9 50 61 0 54 4 58 39 40 22 -12 179 -21 367 -21 329 0 329
0 362 -50 41 -63 68 -63 91 -1 13 32 38 50 73 55 30 3 59 17 63 31 16 48 -107
70 -415 75 -170 3 -323 7 -340 9 -16 2 -57 2 -90 1 -78 -3 -119 7 -125 28 -3
9 192 20 433 23 432 5 535 20 517 75 -8 22 -40 22 -205 4 -22 -3 -56 4 -76 14
-24 12 -46 11 -62 -2 -14 -12 -32 -16 -39 -8 -7 7 -131 11 -274 9 -206 -3
-270 3 -304 27 -50 34 -46 34 -120 7z"/>
</g>
</svg>
