<?xml version="1.0" standalone="no"?>
<!DOCTYPE svg PUBLIC "-//W3C//DTD SVG 20010904//EN"
 "http://www.w3.org/TR/2001/REC-SVG-20010904/DTD/svg10.dtd">
<svg version="1.0" xmlns="http://www.w3.org/2000/svg"
 width="240.000000pt" height="240.000000pt" viewBox="0 0 240.000000 240.000000"
 preserveAspectRatio="xMidYMid meet">

<g transform="translate(0.000000,240.000000) scale(0.100000,-0.100000)"
fill="#000000" stroke="none">
<path d="M695 2229 c-16 -6 -84 -9 -150 -7 l-120 3 -27 -55 c-48 -98 -29 -142
49 -121 26 7 76 7 161 0 89 -8 127 -8 135 0 11 11 11 166 1 183 -6 9 -10 9
-49 -3z"/>
<path d="M1332 2228 c-8 -8 -46 -13 -100 -14 -48 -1 -91 -3 -97 -5 -5 -2 -32
0 -58 5 -43 7 -51 5 -68 -15 -20 -23 -24 -70 -13 -129 l7 -32 91 8 c106 9 105
9 219 -1 62 -6 91 -5 96 3 11 17 -4 159 -19 176 -15 19 -41 21 -58 4z"/>
<path d="M1638 2206 c-13 -24 0 -155 16 -158 6 -1 95 -2 198 -2 164 -1 188 1
188 15 0 8 -8 24 -18 35 -11 11 -21 39 -25 63 -3 24 -10 48 -17 55 -7 7 -67
11 -171 11 -147 0 -162 -2 -171 -19z"/>
<path d="M1875 1913 c-49 -13 -281 -23 -565 -23 -318 -1 -759 8 -809 15 -43 6
-52 5 -50 -6 18 -71 57 -170 69 -175 8 -4 320 -8 693 -8 l678 -1 9 37 c6 20
17 49 25 65 16 29 20 99 8 106 -5 2 -30 -3 -58 -10z"/>
<path d="M1687 1559 c-10 -6 -72 -10 -140 -10 -67 1 -142 1 -167 0 -84 -1
-135 -1 -424 1 l-290 2 -19 -23 c-11 -14 -16 -31 -12 -43 14 -48 0 -365 -17
-399 -6 -12 -5 -23 2 -32 8 -9 9 -26 4 -47 -4 -18 -7 -62 -6 -97 1 -39 -3 -68
-9 -72 -6 -4 -12 -38 -13 -77 -1 -42 -6 -76 -14 -84 -17 -17 -15 -46 6 -56 15
-8 228 -8 1034 0 150 2 219 6 222 13 2 7 -2 38 -9 71 -7 32 -16 122 -19 199
-4 77 -13 178 -21 225 -9 46 -20 157 -25 246 -5 89 -13 169 -16 178 -7 18 -40
21 -67 5z m-453 -122 c15 -19 26 -45 26 -58 0 -14 7 -34 15 -46 8 -11 27 -54
41 -94 15 -41 33 -81 41 -90 7 -8 13 -26 13 -38 0 -35 52 -81 92 -81 49 0 58
-14 58 -97 l0 -73 -34 -14 c-18 -8 -37 -19 -40 -25 -12 -19 -54 -12 -70 11
-14 20 -14 23 -1 31 8 4 15 16 15 26 0 21 -66 167 -79 175 -4 3 -14 32 -21 66
-7 33 -23 74 -36 92 -13 17 -24 42 -24 53 0 12 -9 30 -20 40 -20 18 -20 17
-20 -38 0 -49 -3 -59 -25 -73 -14 -9 -25 -26 -25 -38 0 -13 -11 -33 -25 -46
-14 -13 -25 -31 -24 -40 3 -19 -6 -44 -33 -94 -18 -35 -19 -49 -13 -133 7 -88
6 -95 -11 -91 -10 2 -21 14 -24 27 -4 17 -15 27 -38 33 -22 6 -32 15 -32 28 0
10 -12 32 -26 49 -20 24 -25 39 -22 73 3 42 4 43 38 43 50 1 88 30 100 76 6
21 24 67 40 101 17 35 30 73 30 85 0 12 5 25 10 28 6 3 10 19 10 35 0 15 7 30
14 33 8 3 18 23 22 44 11 63 40 70 78 20z m5 -690 c13 -6 23 -16 22 -21 -2 -5
3 -12 10 -17 10 -6 5 -11 -16 -19 -64 -25 -141 28 -87 59 23 14 42 13 71 -2z"/>
<path d="M1200 406 c0 -94 -11 -106 -74 -82 -43 17 -96 14 -96 -5 0 -11 31
-43 64 -64 30 -20 34 -60 12 -103 -28 -56 -29 -69 -2 -74 29 -6 36 -2 59 34
15 24 24 28 62 28 25 0 45 -4 45 -9 0 -18 59 -71 79 -71 26 0 27 20 1 70 -11
22 -20 58 -20 80 0 38 3 42 38 56 55 22 67 29 70 48 3 13 -6 16 -47 16 -27 0
-53 -4 -56 -10 -14 -23 -37 -7 -56 38 -11 26 -27 64 -36 85 -27 62 -43 48 -43
-37z"/>
</g>
</svg>
