<?xml version="1.0" standalone="no"?>
<!DOCTYPE svg PUBLIC "-//W3C//DTD SVG 20010904//EN"
 "http://www.w3.org/TR/2001/REC-SVG-20010904/DTD/svg10.dtd">
<svg version="1.0" xmlns="http://www.w3.org/2000/svg"
 width="120.000000pt" height="120.000000pt" viewBox="0 0 120.000000 120.000000"
 preserveAspectRatio="xMidYMid meet">
<metadata>
Created by potrace 1.10, written by Peter Selinger 2001-2011
</metadata>
<g transform="translate(0.000000,120.000000) scale(0.050000,-0.050000)"
fill="#000000" stroke="none">
<path d="M997 2085 c-197 -165 -239 -308 -125 -427 51 -54 52 -56 17 -114 -50
-86 -27 -129 66 -121 69 7 75 3 85 -53 9 -55 17 -60 85 -57 41 1 111 3 155 5
66 2 84 11 99 51 14 35 37 50 85 55 64 6 66 8 66 99 0 60 12 106 35 131 77 86
49 249 -66 373 l-100 109 -168 2 c-155 2 -173 -2 -234 -53z m131 -417 c80 -31
7 -188 -87 -188 -87 0 -110 91 -41 160 41 41 74 49 128 28z m281 -11 c58 -27
65 -69 20 -133 -69 -98 -192 -19 -161 105 14 57 58 65 141 28z"/>
<path d="M242 1158 c-193 -120 -266 -323 -164 -456 30 -39 33 -61 18 -117 -23
-83 -8 -129 39 -124 97 10 122 -1 129 -56 8 -74 319 -88 333 -15 10 50 39 69
107 70 69 0 80 20 52 94 -20 52 -16 71 23 134 76 124 53 262 -65 385 l-93 97
-163 10 c-129 8 -175 3 -216 -22z m138 -495 c0 -74 -81 -152 -138 -134 -95 31
-27 191 81 191 49 0 57 -8 57 -57z m273 30 c47 -51 -10 -173 -82 -173 -66 0
-114 129 -66 177 19 19 128 16 148 -4z"/>
<path d="M1683 1061 c-124 -124 -151 -267 -68 -369 29 -36 42 -70 33 -90 -49
-114 -37 -142 60 -142 89 0 92 -2 92 -61 l0 -61 164 6 c156 6 165 8 176 55 9
38 30 54 88 68 75 18 76 19 64 93 -9 57 -2 87 28 126 80 101 56 246 -60 369
l-99 105 -190 0 -189 0 -99 -99z m192 -354 c58 -15 59 -80 2 -141 -77 -82
-172 -41 -146 62 19 75 66 100 144 79z m288 -12 c75 -60 40 -175 -53 -175 -89
0 -132 98 -70 160 46 46 80 50 123 15z"/>
</g>
</svg>
