<?xml version="1.0" standalone="no"?>
<!DOCTYPE svg PUBLIC "-//W3C//DTD SVG 20010904//EN"
 "http://www.w3.org/TR/2001/REC-SVG-20010904/DTD/svg10.dtd">
<svg version="1.0" xmlns="http://www.w3.org/2000/svg"
 width="120.000000pt" height="120.000000pt" viewBox="0 0 120.000000 120.000000"
 preserveAspectRatio="xMidYMid meet">
<metadata>
Created by potrace 1.10, written by Peter Selinger 2001-2011
</metadata>
<g transform="translate(0.000000,120.000000) scale(0.050000,-0.050000)"
fill="#000000" stroke="none">
<path d="M1788 1927 l-102 -110 -78 33 c-434 182 -990 55 -1329 -304 -222
-234 -250 -351 -122 -511 93 -117 196 -220 294 -296 129 -99 129 -97 38 -197
l-71 -79 45 -41 c60 -56 64 -55 150 47 96 116 93 115 268 58 491 -160 1072 61
1376 523 111 168 -23 413 -342 625 -94 63 -94 83 4 189 l79 85 -42 46 c-56 58
-50 61 -168 -68z m-339 -173 c119 -31 128 -51 60 -131 -60 -72 -76 -75 -158
-32 -325 170 -719 -222 -552 -549 51 -100 42 -144 -47 -212 -92 -70 -101 -68
-262 67 -82 70 -250 277 -250 308 0 69 278 379 364 406 20 6 36 19 36 28 0 23
209 106 330 132 121 26 345 18 479 -17z m405 -217 c202 -156 317 -315 280
-387 -149 -291 -574 -531 -938 -530 -285 1 -387 51 -308 150 l47 59 115 -36
c309 -98 562 78 558 387 -1 109 -11 168 -35 201 -44 64 -44 67 39 159 91 100
109 100 242 -3z m-540 -89 c8 -22 -15 -59 -71 -112 -45 -43 -94 -94 -108 -112
-15 -19 -59 -65 -100 -102 l-74 -68 -22 58 c-67 177 62 368 250 368 85 0 115
-8 125 -32z m145 -167 c84 -156 -60 -359 -255 -360 -155 -1 -151 30 25 211 83
86 151 163 151 172 0 32 59 15 79 -23z"/>
</g>
</svg>
