<?xml version="1.0" standalone="no"?>
<!DOCTYPE svg PUBLIC "-//W3C//DTD SVG 20010904//EN"
 "http://www.w3.org/TR/2001/REC-SVG-20010904/DTD/svg10.dtd">
<svg version="1.0" xmlns="http://www.w3.org/2000/svg"
 width="120.000000pt" height="120.000000pt" viewBox="0 0 120.000000 120.000000"
 preserveAspectRatio="xMidYMid meet">
<metadata>
Created by potrace 1.10, written by Peter Selinger 2001-2011
</metadata>
<g transform="translate(0.000000,120.000000) scale(0.050000,-0.050000)"
fill="#000000" stroke="none">
<path d="M870 1961 c-132 -42 -294 -96 -360 -120 -66 -24 -156 -52 -200 -63
-263 -66 -271 -74 -120 -118 195 -57 214 -58 318 -22 306 106 446 128 745 115
292 -12 415 -33 605 -99 93 -33 160 -46 180 -36 18 9 59 21 92 28 188 35 207
79 49 113 -80 17 -590 159 -849 236 -167 50 -211 47 -460 -34z"/>
<path d="M970 1678 c-44 -9 -120 -22 -170 -28 -190 -23 -270 -59 -266 -121 7
-85 21 -109 65 -109 40 0 55 -48 44 -140 -25 -208 0 -371 68 -441 79 -81 82
-94 36 -174 -60 -103 -26 -165 92 -165 142 0 161 -12 161 -102 l0 -78 259 0
259 0 -4 85 -4 85 125 6 c140 7 161 45 95 171 -42 80 -38 97 30 163 l61 58
-11 191 c-18 310 -9 286 -110 316 -311 91 -616 97 -970 19 -85 -18 -1 43 96
71 263 74 694 51 938 -51 103 -43 193 74 110 143 -91 75 -704 144 -904 101z
m191 -852 c24 -62 4 -124 -68 -215 -111 -138 -285 77 -182 225 50 71 222 64
250 -10z m403 0 c108 -104 32 -263 -118 -248 -46 4 -126 148 -126 227 l0 75
94 0 c75 0 105 -11 150 -54z"/>
<path d="M262 1515 c0 -47 8 -193 16 -325 12 -195 10 -248 -14 -285 -41 -64
-22 -236 31 -289 l41 -41 31 58 c82 152 87 210 22 275 -24 24 -33 100 -42 336
-7 168 -21 317 -32 331 -37 46 -55 26 -53 -60z"/>
</g>
</svg>
