<?xml version="1.0" standalone="no"?>
<!DOCTYPE svg PUBLIC "-//W3C//DTD SVG 20010904//EN"
 "http://www.w3.org/TR/2001/REC-SVG-20010904/DTD/svg10.dtd">
<svg version="1.0" xmlns="http://www.w3.org/2000/svg"
 width="120.000000pt" height="120.000000pt" viewBox="0 0 120.000000 120.000000"
 preserveAspectRatio="xMidYMid meet">
<metadata>
Created by potrace 1.10, written by Peter Selinger 2001-2011
</metadata>
<g transform="translate(0.000000,120.000000) scale(0.100000,-0.100000)"
fill="#000000" stroke="none">
<path d="M365 980 c-3 -6 -15 -10 -26 -10 -10 0 -19 -4 -19 -10 0 -5 -7 -10
-15 -10 -8 0 -59 -24 -113 -54 -54 -29 -107 -56 -118 -60 -20 -6 -21 -13 -20
-216 1 -125 5 -213 11 -218 6 -6 55 -34 110 -63 153 -80 189 -98 200 -99 9 0
302 145 313 155 3 3 4 188 3 361 l-1 71 -52 28 c-55 29 -140 72 -220 112 -28
14 -49 19 -53 13z m130 -81 c106 -52 125 -64 125 -79 0 -6 -6 -10 -12 -10 -7
0 -72 -29 -144 -66 l-131 -66 -94 46 c-125 62 -147 79 -130 100 7 9 20 16 29
16 8 0 30 11 48 25 18 14 38 25 45 25 7 0 20 6 28 14 33 28 96 56 116 50 11
-4 65 -28 120 -55z m166 -198 c2 -183 -2 -266 -14 -278 -17 -17 -234 -123
-251 -123 -23 0 -26 24 -24 198 l2 163 98 49 c54 27 112 60 130 73 50 40 58
28 59 -82z"/>
<path d="M786 958 c4 -13 6 -52 5 -88 l-2 -65 96 -89 c52 -48 95 -95 95 -105
0 -9 -28 -41 -63 -72 -152 -137 -136 -114 -138 -204 -2 -64 1 -81 13 -83 15
-3 378 350 378 367 0 6 -66 74 -147 153 -81 79 -162 158 -180 176 -38 38 -68
44 -57 10z"/>
</g>
</svg>
