<?xml version="1.0" standalone="no"?>
<!DOCTYPE svg PUBLIC "-//W3C//DTD SVG 20010904//EN"
 "http://www.w3.org/TR/2001/REC-SVG-20010904/DTD/svg10.dtd">
<svg version="1.0" xmlns="http://www.w3.org/2000/svg"
 width="120.000000pt" height="120.000000pt" viewBox="0 0 120.000000 120.000000"
 preserveAspectRatio="xMidYMid meet">
<metadata>
Created by potrace 1.10, written by Peter Selinger 2001-2011
</metadata>
<g transform="translate(0.000000,120.000000) scale(0.050000,-0.050000)"
fill="#000000" stroke="none">
<path d="M920 2283 c0 -51 71 -111 112 -95 30 12 27 21 -23 73 -65 68 -89 74
-89 22z"/>
<path d="M1420 2251 c0 -15 17 -34 38 -40 21 -7 68 -39 105 -71 37 -33 74 -60
81 -60 8 0 29 -27 46 -60 31 -60 111 -85 109 -35 -2 91 -379 356 -379 266z"/>
<path d="M760 2231 c0 -63 70 -170 112 -171 70 0 69 22 -5 113 -74 90 -107
108 -107 58z"/>
<path d="M1229 2179 c-13 -22 44 -77 82 -78 11 -1 73 -50 136 -111 102 -97
121 -107 158 -87 41 22 41 24 -28 85 -220 193 -314 245 -348 191z"/>
<path d="M600 2143 c0 -22 9 -46 20 -53 11 -7 20 -31 20 -53 0 -43 72 -157 99
-157 46 0 31 105 -27 193 -69 105 -112 132 -112 70z"/>
<path d="M1053 2087 c-29 -29 -10 -67 46 -97 33 -17 102 -71 152 -120 95 -93
147 -110 187 -63 17 21 0 46 -80 115 -57 48 -125 108 -153 133 -49 43 -124 59
-152 32z"/>
<path d="M455 2028 c-7 -7 -4 -34 6 -61 11 -28 14 -72 7 -98 -7 -27 -4 -49 7
-49 11 0 31 -27 45 -59 42 -103 71 -110 99 -24 32 97 -109 347 -164 291z"/>
<path d="M884 1936 c-42 -42 -26 -94 37 -127 34 -17 96 -63 139 -101 68 -62
86 -69 149 -57 87 16 91 49 11 96 -33 19 -60 46 -61 59 -1 68 -229 176 -275
130z"/>
<path d="M288 1852 c-6 -16 -1 -47 10 -69 12 -22 16 -66 10 -97 -12 -60 80
-245 122 -245 58 0 97 161 52 216 -24 29 -56 80 -71 113 -36 77 -107 124 -123
82z"/>
<path d="M1614 1807 c-8 -7 -14 -52 -14 -99 0 -70 -17 -111 -92 -218 -51 -73
-88 -137 -82 -143 50 -49 258 269 250 381 -6 75 -32 109 -62 79z"/>
<path d="M1780 1727 c0 -79 -15 -116 -101 -243 -72 -105 -95 -156 -81 -170 23
-23 121 53 123 94 0 12 27 57 59 100 69 92 94 195 63 264 -35 76 -63 56 -63
-45z"/>
<path d="M713 1747 c-93 -94 195 -341 335 -288 57 22 68 56 23 73 -16 7 -35
28 -41 49 -28 87 -269 213 -317 166z"/>
<path d="M1960 1685 c0 -57 -25 -112 -100 -225 -109 -163 -120 -200 -62 -200
26 0 59 38 102 115 36 63 77 129 91 145 30 34 44 179 21 216 -28 46 -52 23
-52 -51z"/>
<path d="M1449 1699 c-7 -12 -15 -41 -18 -65 -3 -24 -41 -98 -86 -164 -79
-117 -90 -148 -45 -120 33 20 220 313 220 344 0 31 -52 35 -71 5z"/>
<path d="M2134 1611 c-6 -38 -57 -138 -113 -223 -110 -167 -122 -208 -62 -208
27 0 65 43 123 140 45 78 91 146 100 152 31 18 22 208 -9 208 -16 0 -33 -29
-39 -69z"/>
<path d="M131 1625 c28 -67 33 -141 10 -182 -28 -53 82 -263 137 -263 62 0
132 199 81 231 -11 7 -42 47 -69 89 -78 123 -199 219 -159 125z"/>
<path d="M2312 1517 c-7 -35 -37 -96 -67 -135 -62 -80 -145 -239 -145 -278 0
-69 89 -10 142 94 31 59 74 127 97 151 40 43 54 135 29 199 -19 50 -42 37 -56
-31z"/>
<path d="M544 1491 c-56 -124 107 -275 300 -279 126 -2 134 33 34 139 -168
178 -293 230 -334 140z"/>
<path d="M7 1310 c7 -44 13 -98 13 -120 0 -46 155 -215 182 -199 55 35 -45
255 -165 361 l-43 38 13 -80z"/>
<path d="M410 1220 c-71 -78 -4 -221 121 -256 243 -69 328 -56 231 34 -34 32
-62 71 -62 87 0 28 -195 175 -233 175 -12 0 -37 -18 -57 -40z"/>
<path d="M281 1043 c-21 -41 -10 -63 32 -63 15 0 27 22 27 50 0 59 -30 65 -59
13z"/>
<path d="M1363 1006 c-10 -20 -14 -109 -9 -199 12 -198 15 -195 -228 -189
-185 4 -186 4 -207 -49 -34 -90 0 -107 228 -113 l203 -6 6 -204 c6 -224 22
-249 131 -207 50 19 52 25 57 215 l6 196 170 2 c243 2 240 2 240 56 0 108 -8
111 -220 98 -231 -14 -218 -28 -215 244 l1 180 -72 6 c-53 5 -76 -3 -91 -30z"/>
<path d="M289 898 c-15 -25 286 -338 324 -338 56 0 45 46 -32 133 -44 51 -81
100 -81 108 0 9 -17 22 -38 28 -20 7 -58 30 -83 52 -52 45 -71 48 -90 17z"/>
</g>
</svg>
