<svg xmlns="http://www.w3.org/2000/svg" xmlns:xlink="http://www.w3.org/1999/xlink" width="0" height="0">
    <svg version="1.1" id="r_1_1" viewBox="0 0 98 88" xmlns="http://www.w3.org/2000/svg"
        xmlns:svg="http://www.w3.org/2000/svg">
        <g transform="translate(-25,-20) scale(1.5)">
            <path
                d="m 30.07258,62.365141 c -2.795019,-3.553291 -2.607799,-6.739013 0.583596,-9.930408 2.200272,-2.200272 3.30014,-2.569802 6.40802,-2.152948 3.27204,0.438872 4.169626,0.07219 7.018695,-2.867307 3.191324,-3.292611 3.224547,-3.417282 1.436993,-5.392507 -2.579592,-2.850416 -3.90612,-2.545232 -7.294218,1.678129 -2.788509,3.475956 -3.070847,3.597576 -4.660753,2.007671 C 31.590409,43.733267 32.288856,42 35.059017,42 36.462732,42 37,41.307995 37,39.5 37,37.5 36.5,37 34.5,37 32.692005,37 32,37.537268 32,38.940983 32,41.625852 30.833829,42.088845 28.488972,40.334931 26.552303,38.886335 26.598612,38.760972 30.25,35.56763 34.368642,31.965648 34.746039,30.864047 32.5,29 c -1.554031,-1.289731 -2.067373,-4.014464 -0.75,-3.98088 0.4125,0.01052 4.531719,3.624218 9.153819,8.030447 l 8.403819,8.011327 8.883579,-8.69305 c 6.868504,-6.721192 9.153536,-8.423091 10.073704,-7.502923 0.920168,0.920168 0.910242,1.580838 -0.04376,2.912603 -2.534469,3.538052 -2.440188,4.401281 0.851644,7.79759 3.067137,3.164482 3.207074,3.57358 1.728243,5.052411 C 68.919817,42.508754 67,41.688312 67,39.003132 67,37.740746 66.343797,37.173728 65,37.274953 62.6344,37.453148 62.096465,42 64.440983,42 c 2.132109,0 2.907507,1.875169 1.484437,3.589863 -1.078593,1.299626 -1.765932,0.995294 -5.095842,-2.256275 l -3.849082,-3.758529 -2.194528,2.194529 -2.194529,2.194529 2.891372,3.017941 C 57.787284,49.387411 59.214245,50 62.512777,50 c 3.033057,0 4.719417,0.618257 6.312909,2.314451 C 73.579259,57.374398 69.981435,65 62.840536,65 58.253381,65 56,62.485709 56,57.367426 56,54.181831 55.343483,52.756012 52.694459,50.188477 L 49.388917,46.98462 46.472655,50.028542 C 44.167601,52.4345 43.620658,53.818385 43.863021,56.631489 44.28752,61.558644 41.0122,65 35.898266,65 33.034795,65 31.653877,64.375434 30.07258,62.365141 Z m 9.480394,-2.423677 c 2.006671,-2.217347 1.391715,-4.312205 -1.869805,-6.369518 -3.561273,-2.246394 -7.444468,3.600893 -4.637488,6.983096 1.694156,2.041333 4.329512,1.792843 6.507293,-0.613578 z m 26.618285,0.403548 C 68.524833,58.215057 68.480768,56.745064 65.995938,54.496324 61.926738,50.813749 56.316001,56.916001 60.2,60.8 c 1.663017,1.663017 3.81181,1.499288 5.971259,-0.454988 z M 46.807498,27.75 c -0.266617,-3.684975 -0.590709,-4.211103 -2.43775,-3.957428 -1.689764,0.232074 -2.221103,-0.326429 -2.569614,-2.700985 -0.382791,-2.608122 -0.108511,-3.032055 2.130253,-3.292571 C 45.718148,17.590981 46.597229,16.815396 46.819551,15.25 47.25942,12.152822 53,11.920615 53,15 c 0,1.1 0.45,2.05625 1,2.125 0.55,0.06875 1.5625,0.18125 2.25,0.25 0.6875,0.06875 1.391011,1.5875 1.563358,3.375 0.279894,2.902918 0.03961,3.25 -2.25,3.25 C 53.23944,24 53,24.373635 53,28 c 0,3.760408 -0.17625,4 -2.942502,4 -2.746866,0 -2.962947,-0.282567 -3.25,-4.25 z" />
        </g>
    </svg>
    <svg version="1.1" id="r_1_2" viewBox="0 0 98 93" xmlns="http://www.w3.org/2000/svg">
        <g transform="translate(-25,-20) scale(1.5)">
            <path
                d="m 41.783848,97.402439 c -0.904147,-1.067899 -0.903797,-1.069835 0.04888,-0.269959 0.527758,0.443113 2.033612,0.888358 3.346342,0.989447 l 2.386782,0.183785 -2.435665,0.08617 C 43.129951,98.462652 42.531719,98.28576 41.783846,97.40244 Z M 39.617071,95.25122 c -0.594631,-0.758214 -0.577722,-0.775123 0.18049,-0.180492 0.460122,0.360855 0.836585,0.737318 0.836585,0.836585 0,0.393453 -0.392567,0.140216 -1.017075,-0.656093 z M 37.481409,93.1 l -0.910677,-1.07561 1.075609,0.910679 c 1.010808,0.855812 1.293238,1.240541 0.910678,1.240541 -0.09071,0 -0.574738,-0.484024 -1.07561,-1.07561 z m -2.852946,-2.868292 -1.404073,-1.553659 1.553659,1.404072 c 0.854512,0.77224 1.553658,1.471387 1.553658,1.553659 0,0.369321 -0.394451,0.04417 -1.703244,-1.404072 z m 10.44639,-0.459276 C 44.806446,89.433447 44.476319,88.618293 44.341237,87.960976 44.206155,87.303659 43.728402,85.475122 43.279564,83.897561 42.830726,82.32 42.281941,80.383903 42.060041,79.595122 41.83814,78.806342 41.332306,77.085366 40.935965,75.770732 36.736846,61.842575 36.325355,59.779847 36.453161,53.299255 l 0.122636,-6.218481 4.053957,-4.776972 c 2.229676,-2.627335 4.249775,-4.916612 4.489109,-5.087281 0.674666,-0.481106 6.380175,-0.994054 7.333242,-0.659288 0.467685,0.164274 2.141066,1.927503 3.718627,3.918285 1.577561,1.990782 3.362619,4.185397 3.966791,4.876921 1.071288,1.226177 1.094435,1.464516 0.934523,9.623171 -0.118393,6.040242 -0.373805,8.963869 -0.918781,10.517073 -0.415142,1.183171 -2.091989,6.883903 -3.726323,12.668293 -1.634339,5.78439 -3.136115,10.839756 -3.337282,11.234146 -0.493003,0.966538 -7.294724,1.28674 -8.014807,0.37731 z m 5.450591,-24.399261 c 0.212713,-0.328659 0.494312,-3.071464 0.625776,-6.095122 l 0.239024,-5.497561 1.662964,-0.239024 c 1.294982,-0.186134 1.768604,-0.540219 2.140344,-1.600149 0.396762,-1.131279 0.322511,-1.474365 -0.439704,-2.031708 -0.50439,-0.368819 -1.510587,-0.670583 -2.235997,-0.670583 -1.268297,0 -1.32442,-0.104257 -1.462289,-2.716376 -0.131717,-2.495605 -0.248141,-2.744237 -1.432497,-3.059154 -1.901341,-0.505561 -2.710732,0.380806 -2.873031,3.146262 -0.136954,2.333605 -0.179925,2.395909 -1.813449,2.629268 -1.591565,0.227365 -1.67317,0.331728 -1.67317,2.139709 0,1.967983 0.07094,2.027954 3.465853,2.930037 0.433681,0.115239 0.597561,1.648747 0.597561,5.591675 0,2.988086 0.143415,5.576305 0.3187,5.751586 0.539589,0.539593 2.47126,0.352547 2.879915,-0.27886 z M 32.222643,87.887112 c -0.211335,-0.341948 -0.131137,-0.422145 0.210812,-0.210809 0.551071,0.340581 0.739859,0.762722 0.341099,0.762722 -0.115946,0 -0.364306,-0.248361 -0.551911,-0.551913 z M 30.310677,85.929268 29.4,84.853659 l 1.07561,0.910678 c 1.010808,0.855812 1.293237,1.240541 0.910677,1.240541 -0.09071,0 -0.574738,-0.484024 -1.07561,-1.07561 z M 19.6,75.292683 c 0,-0.131463 0.107561,-0.239024 0.239024,-0.239024 0.131464,0 0.239025,0.107561 0.239025,0.239024 0,0.131464 -0.107561,0.239024 -0.239025,0.239024 -0.131463,0 -0.239024,-0.10756 -0.239024,-0.239024 z M 45.156873,30.236585 c -0.558166,-1.335077 -0.88601,-1.553658 -2.330295,-1.553658 -1.859708,0 -2.935725,-1.199992 -2.166396,-2.416002 0.647706,-1.023771 0.544585,-2.203622 -0.263204,-3.011411 -1.186061,-1.18606 -1.693404,-3.128726 -1.368871,-5.241539 0.244037,-1.58876 0.866539,-2.563824 3.031303,-4.748121 l 2.7242,-2.748781 h 4.753793 4.753794 l 2.585216,2.617733 c 2.491428,2.522766 2.588027,2.717873 2.662703,5.378049 0.0616,2.194331 -0.156418,3.113211 -1.063281,4.481393 -0.965893,1.457248 -1.062133,1.927895 -0.627812,3.070244 0.68057,1.790037 0.295965,2.618435 -1.215668,2.618435 -1.908739,0 -3.090892,0.843197 -3.090892,2.204652 0,1.213939 -0.0033,1.214789 -3.867519,1.05879 -3.857465,-0.155719 -3.869211,-0.160165 -4.517071,-1.709784 z m 2.080055,-3.924544 c 1.851277,-2.503988 1.278952,-4.321797 -1.360694,-4.321797 -2.429929,0 -4.009458,1.797972 -3.275484,3.72847 0.929178,2.443923 3.065809,2.717364 4.636178,0.593327 z m 8.239749,-0.54042 c 0.823486,-1.538691 -0.567985,-3.303328 -2.604773,-3.303328 -2.92913,0 -3.428036,2.309979 -0.924265,4.279445 1.370542,1.078068 2.613698,0.734216 3.529038,-0.976117 z" />
        </g>
    </svg>
    <svg version="1.1" id="r_1_3" viewBox="0 0 208 208" xmlns="http://www.w3.org/2000/svg">
        <g transform="translate(-25,-25) scale(1.3)">
            <path
                d="m 90.75,205.33772 c 0.6875,-0.27741 1.8125,-0.27741 2.5,0 0.6875,0.27741 0.125,0.50439 -1.25,0.50439 -1.375,0 -1.9375,-0.22698 -1.25,-0.50439 z m 14,0 c 0.6875,-0.27741 1.8125,-0.27741 2.5,0 0.6875,0.27741 0.125,0.50439 -1.25,0.50439 -1.375,0 -1.9375,-0.22698 -1.25,-0.50439 z M 88.069624,176.97492 C 65.903027,169.00316 54.972871,143.51763 64.904513,122.9615 c 2.619188,-5.4211 2.641854,-7.60334 0.09549,-9.19357 -2.25483,-1.40817 -2.563596,-3.89261 -0.82897,-6.67018 0.941736,-1.50796 0.745931,-2.86329 -1,-6.92182 -2.549039,-5.9254 -2.66114,-7.758685 -0.753584,-12.324108 2.749841,-6.581296 7.419043,-9.103228 18.28945,-9.87851 9.050817,-0.645509 11.954765,-2.233279 12.486713,-6.827266 0.215901,-1.86456 0.970908,-2.740422 2.556391,-2.965597 1.9822,-0.281517 2.25,0.116687 2.25,3.34563 0,7.398528 -7.257766,12.454257 -17.928139,12.488663 -5.700486,0.01838 -9.178033,1.722429 -10.917195,5.349582 C 67.315328,93.200402 68.417764,99 70.986296,99 72.028915,99 73.160081,98.55 73.5,98 c 1.062239,-1.718739 3.905143,-1.065495 6.284485,1.444054 l 2.284486,2.409496 6.715514,-2.338336 c 12.479685,-4.345423 17.068355,-4.940142 24.694655,-3.200576 6.97984,1.592111 14.62145,6.014072 19.72555,11.414552 1.4403,1.52395 4.5608,6.37081 6.93443,10.77081 l 4.3157,8 -0.0552,10.5 c -0.0502,9.54779 -0.33126,11.08947 -3.099,17 -5.2104,11.12684 -13.78983,19.02234 -25.33403,23.31447 -6.45654,2.40054 -20.761921,2.22642 -27.896946,-0.33955 z M 109.01506,61.25 c 0.008,-0.4125 0.66353,-2.55 1.4561,-4.75 0.79258,-2.2 1.46081,-4.819643 1.48495,-5.821429 0.04,-1.65905 -0.0968,-1.680754 -1.53409,-0.243451 -2.04019,2.040192 -5.45695,3.863288 -6.07745,3.242779 -0.26628,-0.266278 -0.74422,-3.92293 -1.06209,-8.125894 -0.45759,-6.050346 -0.8893,-7.580344 -2.07303,-7.346879 C 100.38715,38.367307 99.216134,39.4 98.607183,40.5 97.998232,41.6 97.22529,42.725 96.889532,43 96.553775,43.275 95.529719,44.9625 94.613852,46.75 92.548982,50.780013 91.587316,50.83212 90,47 88.737915,43.953056 86.675551,43.097919 85.434017,45.106763 84.290095,46.957668 83.032108,43.911521 83.015313,39.25 83.006891,36.9125 83.363375,35 83.8075,35 c 0.444124,0 2.234851,2.025 3.979392,4.5 4.903484,6.956627 5.139924,6.773253 12.665678,-9.82303 C 102.40366,25.374304 104,21.436804 104,20.92697 104,20.417137 104.38055,20 104.84568,20 c 0.46512,0 1.13496,5.707752 1.48853,12.683893 0.39582,7.809825 1.08404,12.956567 1.79098,13.393477 0.63147,0.39027 3.22413,-0.507285 5.76147,-1.994568 7.39725,-4.335968 8.24814,-4.495543 6.85075,-1.284797 -0.64678,1.486097 -2.24382,4.662971 -3.54896,7.05972 -2.51348,4.615705 -2.1918,5.767562 1.76155,6.307599 2.07886,0.283976 1.59606,0.75127 -3.18705,3.084676 -6.04206,2.94758 -6.77126,3.163706 -6.74789,2 z M 80.591957,51.5 C 78.993917,49.061083 79.01554,49 81.476947,49 83.501537,49 84,49.493909 84,51.5 84,52.875 83.601754,54 83.11501,54 82.628265,54 81.492892,52.875 80.591957,51.5 Z" />
        </g>
    </svg>
    <svg version="1.1" id="r_1_4" viewBox="0 0 201 196" xmlns="http://www.w3.org/2000/svg">
        <g transform="translate(-22,-25) scale(1.3)">
            <path
                d="m 127.3457,39.328125 c -1.24341,-0.01326 -4.5605,1.900121 -10.27734,5.458984 -5.19159,3.231879 -11.8845,9.110574 -21.310548,18.712891 -7.558655,7.7 -13.746198,14.3375 -13.75,14.75 -0.0038,0.4125 3.127344,0.75 6.958985,0.75 6.791381,0 7.089036,-0.107194 11.808593,-4.298828 8.12531,-7.216434 16.06728,-16.389193 21.7832,-25.158203 4.55886,-6.993901 6.38579,-10.197797 4.78711,-10.214844 z m 14.24414,8.355469 -4.29492,4.880859 C 134.9326,55.249046 133,57.902534 133,58.460938 c 0,0.558401 6.63265,7.658184 14.73828,15.777343 8.10562,8.119159 14.96812,14.7569 15.25,14.75 C 164.21305,88.958489 172,80.951962 172,79.722656 c 0,-0.74681 -6.8424,-8.261808 -15.20508,-16.699218 z M 136.92383,71 c -0.89862,0 -2.71203,1.285734 -4.0293,2.857422 -2.5077,2.992046 -11.06151,12.621768 -21.64453,24.365234 -6.48477,7.195844 -7.09944,8.308214 -5,9.054684 2.42994,0.86398 17.52429,0.75878 19.88477,-0.13867 1.31649,-0.50053 7.56172,-5.87378 13.8789,-11.941404 L 151.5,84.164062 145.0293,77.582031 C 141.47019,73.961735 137.82245,71 136.92383,71 Z M 81.148438,85.574219 71.142578,85.708984 59.072266,96.517578 C 52.432882,102.46266 47,107.72482 47,108.21094 c 0,1.07107 8.533989,9.6793 11.953125,12.05664 2.446781,1.70127 2.472312,1.68588 8.59375,-5.03125 3.37678,-3.70539 8.527636,-9.66133 11.445313,-13.23633 2.917674,-3.575 7.090949,-8.370052 9.273437,-10.65625 2.182489,-2.286198 3.724439,-4.549217 3.427734,-5.029297 -0.296705,-0.480079 -5.041846,-0.813994 -10.544921,-0.740234 z M 34.486328,104 c -1.278673,0 -10.053278,8.76004 -9.423828,9.4082 0.240698,0.24785 6.937761,7.23281 14.882812,15.52149 C 47.890366,137.21836 55.118797,144 56.007812,144 c 1.432865,0 2.936983,-1.58732 7.826172,-8.25781 1.204874,-1.64385 -0.0988,-3.26678 -13.472656,-16.78125 C 42.218266,110.73226 35.074875,104 34.486328,104 Z M 101.5,112.97656 91.371094,123.44531 c -9.359343,9.67197 -20.983956,25.35916 -22.179688,29.93164 -0.599138,2.29111 -1.110152,2.54924 11.808594,-5.99218 11.062272,-7.31399 36.79917,-31.28301 35.62695,-33.17969 -0.46863,-0.75827 -3.41341,-1.2098 -7.93554,-1.2168 z m -56.476562,36.18164 0.04492,0.0449 c 0.113926,0.0295 0.229393,0.0533 0.345703,0.0742 l -0.04883,-0.0488 c -0.136182,-0.0256 -0.24743,-0.0584 -0.341796,-0.0703 z m 0.570312,0.57618 0.144531,0.14453 c 0.114111,0.0179 0.226947,0.0421 0.341797,0.0566 l -0.09961,-0.0977 c -0.07976,-0.0312 -0.157113,-0.0697 -0.238281,-0.0957 -0.03195,-0.0102 -0.09909,-0.003 -0.148438,-0.008 z m 32.314453,31.7871 c 0.01585,0.0327 0.02876,0.0558 0.04297,0.084 0.03819,0.0241 0.07371,0.0529 0.113281,0.0742 0.06476,0.0349 0.0093,-0.0222 -0.07617,-0.0957 -0.01609,-0.003 -0.03332,-0.0153 -0.05273,-0.041 -0.0099,-0.008 -0.01733,-0.0134 -0.02734,-0.0215 z" />
        </g>
    </svg>
    <svg version="1.1" id="r_1" viewBox="0 0 215 204" xmlns="http://www.w3.org/2000/svg">
        <g transform="translate(-20,-22) scale(1.3)">
            <path
                d="m 102.28906,27.533203 c -0.22772,0.0042 -0.41853,0.04625 -0.55859,0.132813 -0.48457,0.299481 0.10087,1.589939 1.30078,2.867187 2.13086,2.268195 5.41975,2.334124 4.68164,0.09375 -0.42948,-1.303593 -3.82977,-3.123296 -5.42383,-3.09375 z m -12.816404,0.417969 c -0.466213,-0.01634 -0.844741,0.08888 -1.099609,0.34375 -0.569587,0.569587 1.222467,4.3489 3.035156,6.40039 0.600635,0.679762 1.63646,1.887399 2.302735,2.685547 1.348669,1.615615 4.888867,1.101926 5.625,-0.816406 C 100.26736,34.1372 92.73615,28.065537 89.472656,27.951172 Z M 77.998047,31.833984 C 77.367479,31.913503 77,32.337852 77,33.154297 77,34.845335 81.979882,45.21159 83.771484,47.25 c 1.82515,2.076578 1.506148,2.036695 4.681641,0.589844 3.810059,-1.735979 3.166411,-4.759096 -2.263672,-10.634766 -2.829729,-3.061933 -5.712804,-5.013841 -7.476562,-5.33789 -0.264564,-0.04861 -0.504655,-0.05971 -0.714844,-0.0332 z m 49.742183,0.04687 c -0.89226,0.0384 -1.58605,0.296991 -2.07031,0.78125 -0.3646,0.364599 2.62311,2.769046 6.63867,5.341797 4.01557,2.57275 9.50023,7.223287 12.1875,10.335938 4.75789,5.511047 7.30757,6.705021 10.28711,4.814453 3.31303,-2.102173 -2.20178,-8.343839 -13.89062,-15.720703 -6.00506,-3.78981 -10.47555,-5.667933 -13.15235,-5.552735 z m -11.61718,3.941407 c -6.83142,0.25682 -6.51232,3.647442 0.67578,7.185546 2.58598,1.27287 7.62617,5.36654 11.20117,9.097657 3.575,3.731117 7.00625,6.809594 7.625,6.839843 2.92224,0.142919 7.375,-1.324235 7.375,-2.429687 0,-2.352398 -7.81569,-10.096485 -15.58984,-15.447266 -6.04594,-4.161286 -8.59739,-5.34721 -11.28711,-5.246093 z m -49.228519,2.80664 c -0.598632,0.01757 -1.038044,0.303419 -1.265625,0.896485 -0.297772,0.775982 -0.123315,1.669156 0.386719,1.984375 0.510035,0.315218 1.210969,2.717364 1.558594,5.33789 0.413954,3.120536 1.807895,6.384484 4.039062,9.458985 C 74.981357,60.94783 78,62.440131 78,59.464844 c 0,-0.844351 0.723868,-2.637854 1.607422,-3.986328 1.490631,-2.274991 1.472605,-2.65939 -0.25,-5.332032 C 75.072584,43.49851 69.488604,38.552778 66.894531,38.628906 Z m 36.667969,4.011719 c -0.28247,-0.02061 -0.53388,-0.01028 -0.75195,0.0332 -5.404387,1.077687 -7.446951,6.399667 -3.083988,8.03711 3.026608,1.135902 11.560478,7.422068 16.273438,11.988281 4.63942,4.494969 6.07933,4.786103 13.25,2.679687 2.73613,-0.80375 2.13669,-2.192576 -3.44531,-7.988281 -6.89321,-7.157093 -18.00517,-14.440859 -22.24219,-14.75 z m -46.738281,6.375 c -1.455343,-0.01331 -1.621181,0.974928 -1.269531,7.537109 0.380087,7.092882 0.69563,7.971124 5.175781,14.466797 2.6236,3.803901 5.107031,6.93175 5.519531,6.949219 0.4125,0.01747 0.75185,-1.65625 0.753906,-3.71875 0.0021,-2.0625 0.890971,-5.203197 1.97461,-6.980469 l 1.96875,-3.232422 -5.105469,-6.767578 C 60.281704,49.900297 59.339538,49.038626 56.824219,49.015625 Z M 91.009766,53 C 88.584178,53 84,57.196012 84,59.416016 c 0,1.956766 3.538872,5.262024 8.212891,7.671875 2.042273,1.052964 5.796061,3.939921 8.341799,6.414062 2.5457,2.474141 5.15008,4.489126 5.78711,4.478516 3.12404,-0.05203 11.1582,-2.747801 11.1582,-3.744141 0,-0.623195 -2.74615,-4.194682 -6.10352,-7.935547 C 105.23433,59.434764 95.370469,53 91.009766,53 Z m -46.660157,8.216797 c -1.01688,0.220965 -1.682045,1.049462 -1.476562,1.841797 1.661211,6.405564 1.884697,8.524256 1.0625,10.060547 -1.756119,3.281337 -0.936782,5.720577 4.638672,13.814453 C 54.166611,95.05206 56,96.124854 56,91.279297 c 0,-1.431719 1.171213,-4.602835 2.603516,-7.046875 l 2.605468,-4.44336 -4.542968,-6.648437 C 50.929466,64.744891 46.747701,60.695697 44.349609,61.216797 Z M 142.92383,64 c -1.92397,0 -2.92083,3.486055 -2.71485,9.5 0.0709,2.070741 -1.63692,5.663484 -5.51562,11.597656 -3.0906,4.728446 -6.28522,9.147999 -7.09766,9.822266 -0.81244,0.674267 -1.22617,1.879661 -0.91992,2.677734 1.15462,3.008884 6.5528,-2.029805 14.02734,-13.089844 6.7377,-9.969605 7.36803,-11.317413 6.77344,-14.5 C 146.68114,65.750214 145.355,64 142.92383,64 Z m 11.92187,0 C 153.25176,64 153,64.839078 153,70.167969 c 0,5.989224 -0.2032,6.467007 -7,16.46875 -3.85,5.665414 -7,10.989997 -7,11.832031 0,1.84681 3.83076,2.00643 6.01172,0.25 0.83195,-0.670009 3.51398,-4.36875 5.95898,-8.21875 2.445,-3.85 5.47774,-8.271473 6.73828,-9.826172 C 162.11398,75.240917 160.18362,64 154.8457,64 Z m -75.275388,3 c -6.398786,0 -9.169719,6.86459 -5.283203,13.087891 1.436279,2.299849 10.198953,7.898681 15.660157,10.005859 2.503723,0.966049 5.618248,1.543667 6.919922,1.283203 1.301664,-0.260464 3.664172,-0.733614 5.250002,-1.050781 4.24189,-0.848377 3.61118,-3.028121 -2.876956,-9.949219 C 91.532274,72.154621 83.952748,67 79.570312,67 Z m 87.996098,0.164062 c -1.08575,0.20141 -1.47821,2.095661 -1.7461,6.302735 -0.29725,4.668254 -0.97667,7.102676 -2.44336,8.75 C 160.07513,85.925274 151,100.75795 151,102.44531 c 0,3.52311 7.89358,1.08041 9.9668,-3.083982 0.78358,-1.573953 3.86864,-6.577599 6.85547,-11.11914 5.13131,-7.802296 5.40372,-8.534715 4.94726,-13.285157 -0.32167,-3.347697 -1.11615,-5.506519 -2.37695,-6.460937 -1.27403,-0.964438 -2.17473,-1.452877 -2.82617,-1.332032 z M 132.25,71.015625 c -4.30442,0.02397 -5.57446,1.320549 -5.01562,5.123047 0.41818,2.845503 -0.39353,4.690528 -5.29102,12.02539 -3.1814,4.764719 -5.55052,8.894801 -5.26563,9.179688 1.14015,1.140159 3.31755,-0.75221 6.97852,-6.066406 12.91611,-18.74878 13.56903,-20.289419 8.59375,-20.261719 z m 48.81445,1.332031 c -0.17576,-0.027 -0.33997,-0.02175 -0.49414,0.01367 C 179.54253,72.597474 179,74.213217 179,77.154297 c 0,3.209903 -1.11767,5.733092 -5.45312,12.316406 -6.89117,10.464121 -10.01439,16.870807 -9.22657,18.923827 0.33897,0.88337 1.47058,1.60547 2.51367,1.60547 2.31644,0 7.16602,-3.66679 7.16602,-5.41797 0,-1.34242 7.67857,-13.711404 9.06445,-14.601561 3.23559,-2.07824 3.14323,-13.576245 -0.13281,-16.541016 -0.71535,-0.647383 -1.33989,-1.010805 -1.86719,-1.091797 z M 32.453125,76.505859 c -1.331613,0.05778 -1.690878,1.746956 -0.496094,5.367188 1.199175,3.633534 1.130874,5.189992 -0.583984,13.216797 -0.402789,1.885349 0.412931,4.098614 2.996094,8.136716 1.951658,3.05093 4.273029,6.27303 5.160156,7.16016 C 40.416425,111.27385 41.527252,112 41.998047,112 44.117244,112 50,101.91483 50,98.28125 50,97.470252 47.534776,93.025142 44.521484,88.402344 39.593769,80.842561 34.672481,76.40956 32.453125,76.505859 Z M 193.02344,81.142578 C 192.35575,81.014353 192,81.836027 192,83.615234 c 0,1.438534 -1.9533,5.601034 -4.33984,9.25 -7.61261,11.639516 -11.83201,20.020966 -11.1543,22.156246 0.46592,1.46799 1.51981,1.97852 4.07812,1.97852 3.01036,0 3.66824,-0.47671 5.18164,-3.75 0.9536,-2.0625 4.09688,-7.55141 6.98438,-12.19727 5.79169,-9.31852 6.24471,-11.707276 3.16797,-16.685542 -1.2477,-2.018823 -2.22685,-3.096384 -2.89453,-3.22461 z m -75.41992,0.316406 C 116.21561,81.515457 114,83.910637 114,85.654297 c 0,1.992968 1.9739,1.270489 3.72266,-1.363281 0.85767,-1.291727 1.01766,-2.333247 0.41601,-2.705078 -0.15559,-0.09616 -0.33688,-0.135021 -0.53515,-0.126954 z m -50.851567,2.591797 c -1.94447,0.134074 -3.465242,1.141528 -4.816406,3.039063 -2.199863,3.089423 -2.200172,3.089619 -0.337891,8.568359 1.024336,3.013545 2.497394,6.010517 3.271485,6.660157 0.774092,0.64964 5.28289,2.53647 10.019531,4.19141 8.033,2.80668 8.940443,2.92516 13.509766,1.76757 2.694291,-0.68257 5.117054,-1.4608 5.384765,-1.72851 C 95.317276,105.01476 80.236776,89.452059 74.113281,86.25 71.064664,84.655836 68.696423,83.916707 66.751953,84.050781 Z M 21.615234,97.349609 c -1.261045,0.04233 -1.69916,1.299441 -0.652343,4.052731 C 21.53333,102.90271 22,106.0909 22,108.48828 c 0,3.93585 0.558043,4.94932 5.75,10.43164 6.646059,7.01774 9.273514,7.56301 10.373047,2.15625 0.762375,-3.74883 -0.04474,-5.65107 -6.400391,-15.10937 -3.617452,-5.38339 -8.00568,-8.68774 -10.107422,-8.617191 z m 34.957032,7.734371 c -2.278346,-0.2216 -3.996829,0.63981 -5.5,2.55079 -2.581781,3.2822 -2.557994,4.52684 0.208984,11.28906 l 2.21875,5.42383 8,2.74804 c 8.530344,2.93011 10.831865,3.23993 16.75,2.26172 4.642592,-0.76737 4.956171,-3.08812 0.830078,-6.13867 -1.605622,-1.18709 -3.930149,-3.95928 -5.166016,-6.1582 -1.437027,-2.55685 -4.49362,-5.45095 -8.480468,-8.0293 -3.744094,-2.42136 -6.582983,-3.72566 -8.861328,-3.94727 z m 21.755859,7.31641 c -0.142949,0.0219 -0.28382,0.0718 -0.414063,0.15234 -0.520966,0.32197 -0.683303,1.01224 -0.361328,1.53321 0.321976,0.52097 1.012237,0.68331 1.533204,0.36133 0.520966,-0.32197 0.683303,-1.01224 0.361328,-1.53321 -0.241482,-0.39073 -0.690293,-0.57929 -1.119141,-0.51367 z m -33.320313,4.8418 c -1.446739,0.29707 -3.900074,5.71719 -3.248046,7.50781 0.610862,1.67757 2.719085,1.58224 4.189453,-0.18945 1.461973,-1.76157 1.00703,-6.75749 -0.666016,-7.30664 -0.08628,-0.0283 -0.17894,-0.0315 -0.275391,-0.0117 z m -23.333984,8.81445 c -0.0051,-0.002 -0.0047,0.025 -0.0059,0.0449 0.01257,0.0123 0.02853,0.0288 0.04102,0.041 -0.0056,-0.0162 -0.0098,-0.0327 -0.01563,-0.0488 -0.0086,-0.0238 -0.01495,-0.0356 -0.01953,-0.0371 z m 0.63086,0.30274 c -0.02658,-0.007 -0.04994,0.15233 -0.05664,0.32421 0.05586,0.0534 0.100824,0.0958 0.154297,0.14649 -0.01833,-0.14469 -0.04096,-0.28882 -0.07813,-0.42969 -0.0067,-0.0255 -0.01284,-0.0392 -0.01953,-0.041 z m 35.49414,3.67187 c -0.714813,0.0174 -0.03536,1.14238 1.507813,2.5 3.022775,2.65932 4.238576,3.01551 5.167968,1.51172 0.624311,-1.01016 -4.460273,-4.06562 -6.675781,-4.01172 z m -14.185547,0.0293 C 42.545619,130.10033 42,130.64456 42,131.69922 c 0,0.93453 5.058164,6.59336 11.240234,12.57617 10.290944,9.95924 11.491662,10.82862 14.21875,10.2832 4.804737,-0.96094 4.920881,-2.08985 0.56836,-5.53711 -2.2564,-1.7871 -4.985247,-4.9763 -6.0625,-7.08789 -1.418196,-2.77989 -3.837381,-4.95662 -8.769532,-7.88671 -4.572808,-2.71666 -7.802593,-4.05263 -9.582031,-3.98633 z M 93.912109,132 c -4.286205,0 -8.071349,0.44789 -8.410156,0.99609 -1.263807,2.04488 -1.654321,37.1162 -0.429687,38.5918 2.921464,3.52015 4.12681,1.03079 4.300781,-8.88086 0.114681,-6.53369 0.324127,-7.2355 2.246094,-7.50976 1.692015,-0.24144 3.189828,1.37366 7.417968,8 5.667901,8.88274 6.497481,9.76328 9.212891,9.78711 2.74846,0.024 2.09865,-2.09869 -2.75,-8.98438 -2.475,-3.51481 -4.5,-6.9895 -4.5,-7.7207 0,-0.73121 1.10104,-1.74793 2.44727,-2.25977 4.05303,-1.54095 5.69566,-5.11075 5.35546,-11.64062 -0.2787,-5.34943 -0.57308,-5.9909 -3.70117,-8.09375 C 102.28581,132.39227 100.37008,132 93.912109,132 Z M 121.75,134.5 c -4.95064,0 -6.55956,1.60042 -2.55859,2.54492 2.28882,0.54032 2.30859,0.68032 2.30859,15.98633 0,14.65079 -0.10238,15.46021 -2,15.8125 -2.61777,0.486 -4.62022,2.15222 -3.92969,3.26953 0.3014,0.48768 4.34574,0.88672 8.98828,0.88672 7.67766,0 8.44141,-0.17486 8.44141,-1.93359 0,-1.36598 -0.80725,-2.02646 -2.75,-2.25 L 127.5,168.5 l -0.5,-17 -0.5,-17 z M 95.152344,136 c 3.96838,0 5.441726,0.50423 7.503906,2.56641 2.07002,2.07002 2.449,3.18194 1.95313,5.75 -0.33814,1.75104 -1.56338,3.97109 -2.72266,4.93359 -2.794712,2.32033 -11.408173,2.43809 -12.279298,0.16797 -0.784566,-2.04454 -0.784566,-9.7914 0,-11.83594 C 90.047533,136.43512 91.5716,136 95.152344,136 Z M 51.5,155.5 l 0.396484,0.42773 c 0.02526,-0.002 0.05083,-0.004 0.07617,-0.006 z m 22.142578,22.27148 c -0.03166,-0.003 -0.05533,0.10752 -0.06445,0.23829 0.09438,0.0889 0.22038,0.21686 0.310547,0.30078 -0.06708,-0.17039 -0.138077,-0.34018 -0.216797,-0.50586 -0.01024,-0.0216 -0.02025,-0.0323 -0.0293,-0.0332 z" />
        </g>
    </svg>
    <svg version="1.1" id="r_2_1" viewBox="0 0 218 202" xmlns="http://www.w3.org/2000/svg">
        <g transform="translate(-35,-15) scale(1.3)">
            <path
                d="M 46.774565,125.94722 33,111.89444 v -6.82542 -6.825417 L 46.685563,84.371801 60.371126,70.5 l 6.805944,0.07632 6.805943,0.07632 6.258494,5.92368 c 3.442171,3.258024 9.570159,9.378135 13.617751,13.600248 l 7.359262,7.676567 0.5302,6.605275 0.53021,6.60527 L 87.934094,125.53184 73.589255,140 H 67.069192 60.549129 Z M 81.5,122.03408 c 1.1,-0.95483 2.731181,-1.99238 3.624846,-2.30566 1.613777,-0.56572 3.031344,-6.12089 2.152525,-8.43533 -0.278705,-0.73399 -1.523514,-0.99386 -3.17681,-0.6632 C 81.05752,111.2385 81.793886,112.52388 74.00081,93 71.695684,87.225 69.220678,81.884254 68.500797,81.131676 67.023665,79.587451 65,80.395407 65,82.529382 65,83.305623 63.92717,86.316565 62.615932,89.220365 61.304695,92.124164 59.204957,97.425 57.949848,101 c -2.68611,7.651 -4.610198,10.24258 -7.033472,9.47346 -2.128214,-0.67547 -2.616837,0.0325 -3.067363,4.44423 -0.296748,2.90589 0.10024,3.69049 2.650987,5.23938 7.642708,4.64087 9.82118,4.93134 7.353857,0.98053 -1.32382,-2.11978 -0.845659,-4.47492 2.56579,-12.6376 0.689588,-1.65 2.331983,-5.8125 3.649766,-9.25 1.317783,-3.4375 2.686158,-6.25 3.040834,-6.25 1.015268,0 2.377873,2.165569 4.089888,6.5 0.868956,2.2 2.755701,6.925 4.192767,10.5 3.069166,7.63519 3.180744,9.19487 0.906143,12.66635 -1.689132,2.57794 -1.683919,2.5908 0.75,1.84988 C 78.39707,124.10588 80.4,122.98891 81.5,122.03408 Z m 49.27456,3.91314 L 117,111.89444 v -7.24185 -7.241845 l 14.32995,-14.207813 14.32996,-14.207814 6.42004,0.605886 L 158.5,70.20689 172.25,83.923798 186,97.640706 v 6.852154 6.85215 L 171.79463,125.67251 157.58925,140 h -6.52006 -6.52006 z M 142.2,121.8 c -1.80829,-1.80829 -1.47259,-4.63476 1.40151,-11.8 1.43399,-3.575 3.57279,-8.91241 4.75287,-11.860908 1.18009,-2.948499 2.59198,-5.423499 3.13754,-5.5 0.54555,-0.0765 2.30237,3.235908 3.90405,7.360908 1.60167,4.125 3.74281,9.4076 4.75808,11.7391 2.1288,4.88866 2.40874,9.86714 0.59595,10.59862 -0.71359,0.28794 -0.45943,0.53826 0.59227,0.58333 1.01325,0.0434 2.98644,-0.82105 4.38486,-1.92105 1.39842,-1.1 3.1569,-2 3.90773,-2 0.95128,0 1.36514,-1.36424 1.36514,-4.5 0,-4.29078 -0.13379,-4.5 -2.87756,-4.5 -3.26121,0 -4.54638,-1.24545 -5.5313,-5.36035 -0.37655,-1.57319 -1.51192,-4.723195 -2.52304,-7.000002 C 159.05699,95.362842 156.98551,90.4625 155.46483,86.75 153.94415,83.0375 152.37257,80 151.97243,80 c -1.28779,0 -2.75667,2.37692 -4.94535,8.002497 -1.17637,3.023627 -2.60842,6.622503 -3.18233,7.997503 -0.57391,1.375 -2.01249,4.975 -3.19684,8 -1.93439,4.9407 -2.48358,5.53187 -5.40064,5.81336 -3.03323,0.2927 -3.24727,0.56179 -3.24727,4.08246 0,3.2322 0.53417,4.13489 3.75,6.33707 3.92777,2.68971 8.74236,3.85947 6.45,1.56711 z M 106,87.266466 C 103.05964,86.919117 100.38138,84.718659 89.25,73.504669 L 76,60.156331 V 53.772195 47.388058 L 89.511032,33.944029 C 100.61561,22.894522 103.68801,20.376682 106.76103,19.80763 c 8.73349,-1.61724 8.45729,-1.772675 22.76716,12.812893 14.27356,14.548554 14.3935,14.762576 13.6089,24.283122 -0.34138,4.142345 -1.14349,5.195577 -13.51776,17.75 C 115.32404,89.157055 116.5341,88.510874 106,87.266466 Z m 0,-12.899171 C 106,73.489455 101.88276,70 100.84699,70 99.145023,70 100.06645,63.908144 102.62011,58.277335 107.14657,48.296526 108,46.225396 108,45.221316 c 0,-0.537035 0.6126,-1.484839 1.36133,-2.106231 1.09123,-0.90564 1.71608,-0.185897 3.14931,3.627555 0.98338,2.616548 2.78969,6.862798 4.01401,9.436111 2.90189,6.099281 3.83397,11.282638 2.48285,13.807235 -1.41671,2.647155 0.76976,2.74522 4.10764,0.184231 1.31167,-1.006381 3.19844,-2.127264 4.1928,-2.490851 1.43155,-0.523439 1.74384,-1.547785 1.5,-4.920217 -0.26387,-3.64958 -0.60367,-4.218827 -2.37423,-3.977413 C 123.35025,59.202161 121.82147,56.794188 115.93804,42.25 112.97002,34.912887 110.00517,29 109.29419,29 c -0.70617,0 -2.12818,1.9125 -3.16002,4.25 C 101.20622,44.413616 99,49.839037 99,50.794006 c 0,0.574153 -0.784027,2.410003 -1.742282,4.079666 -1.233665,2.149538 -2.620311,3.121953 -4.75,3.33104 -2.850835,0.279886 -3.015029,0.539944 -3.147892,4.985749 -0.124908,4.179671 0.147341,4.813431 2.5,5.819671 1.452096,0.621065 4.648024,2.222858 7.102064,3.559539 C 103.32915,74.948459 106,75.630628 106,74.367295 Z" />
        </g>
    </svg>
    <svg version="1.1" id="r_2_2_1" viewBox="0 0 209 204" xmlns="http://www.w3.org/2000/svg">
        <g transform="translate(-45,-30) scale(1.4)">
            <path
                d="m 111.02148,40.164062 c -1.95738,0.01761 -4.44374,0.148444 -7.5957,0.363282 L 93,41.238281 v 2.832031 c 0,2.737502 0.189205,2.84246 5.75,3.191407 17.85838,1.120634 19.25,0.881857 19.25,-3.300781 0,-2.871184 -1.10638,-3.849694 -6.97852,-3.796876 z M 145.45898,49 c -0.63208,0 -6.86867,5.625 -13.85937,12.5 -6.99069,6.875 -13.21264,12.5 -13.82617,12.5 -0.61354,0 -1.9395,-0.744053 -2.94532,-1.654297 C 113.33846,70.997515 113,69.162044 113,62.451172 c 0,-6.589509 -0.31677,-8.358226 -1.58203,-8.84375 -2.29746,-0.881619 -5.4046,-0.738684 -9.66797,0.445312 L 98,55.09375 v 6.501953 C 98,68.797239 96.620783,72.283996 91.544922,77.912109 89.765003,79.885682 85.65527,84.425 82.412109,88 L 76.515625,94.5 85.5,94.792969 c 10.133434,0.329866 12.211467,1.357987 8.638672,4.277343 C 92.224045,100.63477 90.192436,101 83.388672,101 H 75 v 8.97461 8.97266 l -10,9.70117 c -5.5,5.33491 -10,10.38778 -10,11.22851 0,1.72157 5.841417,8.12305 7.412109,8.12305 0.560716,0 3.128269,-2.0772 5.707032,-4.61719 2.578762,-2.53998 5.15736,-4.32955 5.728515,-3.97656 0.571156,0.353 0.987895,2.80212 0.927735,5.44336 -0.06016,2.64124 0.211859,5.32137 0.603515,5.95508 0.516454,0.83569 8.7354,1.08927 29.916014,0.92383 L 134.5,151.5 l 0.26758,-24.92969 c 0.20713,-19.27753 -0.0196,-25.11209 -1,-25.73437 -0.69732,-0.44261 -5.65508,-0.81231 -11.01758,-0.82032 -7.81544,-0.0123 -9.75,-0.301958 -9.75,-1.457026 0,-2.346517 1.70548,-2.77613 10.50977,-2.652344 4.78366,0.06726 8.63002,-0.32295 8.99414,-0.912109 0.34991,-0.566155 -0.74511,-2.774359 -2.4336,-4.90625 C 128.38182,87.956 127,85.68625 127,85.042969 127,84.399688 132.7375,78.03762 139.75,70.90625 146.7625,63.77488 152.66211,57.464159 152.86133,56.882812 153.29708,55.611213 147.08891,49 145.45898,49 Z m -37.47851,56 c 2.22305,0 2.85808,1.85165 3.25781,9.5 l 0.26172,5 6.5,0.5 6.5,0.5 0.30859,3.70703 c 0.50664,6.10195 -0.95666,7.64918 -7.5664,7.99414 L 111.5,132.5 111,138.46094 c -0.44566,5.31223 -0.77172,6.03315 -3,6.64844 -4.00578,1.10606 -7.50783,0.98435 -8.800781,-0.3086 -0.66,-0.66 -1.199219,-3.5779 -1.199219,-6.48242 0,-5.89317 -0.201155,-6.03904 -9,-6.55469 -3.795129,-0.22241 -4.549285,-0.61275 -4.816406,-2.49219 -0.399214,-2.80882 7.273895,-10.24156 10.591797,-10.25976 1.748764,-0.01 2.421016,-0.7418 2.90625,-3.16797 C 98.431776,112.09308 105.16811,105 107.98047,105 Z M 2.9394531,112.38086 c 0.00842,0.0662 0.012815,0.1717 0.021484,0.23437 v -0.21289 c -0.0066,-0.008 -0.014999,-0.0138 -0.021484,-0.0215 z m 0.2714844,1.50586 c -2.755e-4,2e-4 -0.0017,0.0259 -0.00195,0.0273 4.892e-4,10e-4 0.0073,0.007 0.00781,0.008 -2.895e-4,-8.5e-4 -0.00561,-0.0354 -0.00586,-0.0352 z m 1.2167969,1.50586 c -0.00164,0.0174 -0.00731,0.0352 -0.00977,0.0527 0.00436,0.005 0.013198,0.0145 0.017578,0.0195 -0.00318,-0.024 -0.00442,-0.0483 -0.00781,-0.0723 z m 15.8398436,11.20508 c 0.01835,0.0322 0.01235,0.0307 0.0332,0.0664 0.0071,0.0121 -0.0059,-0.0336 -0.0078,-0.041 -0.0059,-0.006 -0.0195,-0.0196 -0.02539,-0.0254 z m 4.525391,4.45117 c 0.0015,0.004 0.0159,0.0414 0.01563,0.041 0.0023,2.3e-4 0.0074,-2.3e-4 0.0098,0 -0.0018,-0.005 -0.0039,-0.0144 -0.0059,-0.0195 -0.006,-0.006 -0.0135,-0.0156 -0.01953,-0.0215 z m 0.542969,1.07422 c -0.06848,0.006 -0.07137,0.0197 0.0332,0.0449 0.209527,0.0506 0.424609,0.0683 0.640625,0.0801 -0.02862,-0.0281 -0.06522,-0.0638 -0.09375,-0.0918 -0.256295,-0.0216 -0.480555,-0.0415 -0.580078,-0.0332 z m 10.554687,16.04297 c 0.228344,0.2321 0.45834,0.4664 0.6875,0.69921 -0.111224,-0.12054 -0.222194,-0.2411 -0.330078,-0.36523 -0.219553,-0.25262 -0.234255,-0.2224 0.06641,-0.125 -0.141497,-0.0694 -0.28316,-0.13832 -0.423828,-0.20898 z m 26.089844,25.57226 c 0.008,0.0472 -0.0016,-9.3e-4 0.0078,0.0547 0.01038,0.0178 0.01192,0.0142 0.02539,0.0332 -0.003,-0.0152 -0.0066,-0.0306 -0.0098,-0.0469 -0.0078,-0.0137 -0.01555,-0.0274 -0.02344,-0.041 z m 25.736328,19.48047 c -0.11747,0.0201 -0.234192,0.0439 -0.351563,0.0644 0.008,0.0614 0.0085,0.1963 0.01758,0.24414 0.127231,-0.0803 0.266214,-0.16681 0.335938,-0.21289 0.0019,-0.0183 -0.0014,-0.0324 0,-0.0508 -0.18049,0.0961 -0.230216,0.12339 0,-0.008 9.94e-4,-0.0134 -0.0027,-0.0238 -0.002,-0.0371 z m -3.423828,1.75195 c -0.07299,0.01 -0.145631,0.0267 -0.216797,0.0508 -0.107617,0.0364 -0.199981,0.096 -0.28711,0.16407 0.100963,-5.2e-4 0.201847,-0.002 0.302735,-0.002 0.06642,-0.0678 0.163318,-0.15967 0.212891,-0.21289 -0.0039,4.9e-4 -0.0079,-5.2e-4 -0.01172,0 z m -0.603516,0.29688 c -0.04773,0.0455 -0.09512,0.0926 -0.138672,0.14453 0.05143,-2e-4 0.102845,-8.2e-4 0.154297,0 -0.006,-0.0496 -0.01041,-0.097 -0.01563,-0.14453 z m 4.800781,4.74609 c -0.07283,0.0111 -0.145924,0.0207 -0.21875,0.0312 0.154189,0.13578 0.318183,0.28288 0.445313,0.39063 -7.24e-4,-0.0658 -7.3e-4,-0.1315 -0.002,-0.19727 -0.07664,-0.0752 -0.148043,-0.14853 -0.22461,-0.22461 z" />
        </g>
    </svg>
    <svg version="1.1" id="r_2_2_2" viewBox="0 0 201 206" xmlns="http://www.w3.org/2000/svg">
        <g transform="translate(-45,-30) scale(1.4)">
            <path
                d="M 102.71484,46.09375 C 96.160037,46.185046 89,51.693009 89,57.419922 c 0,6.043912 3.660237,10.741141 9.818359,12.599609 3.691661,1.114109 3.701251,1.113621 6.867191,-0.08594 6.26152,-2.372426 9.3214,-8.068895 7.875,-14.654297 -0.79417,-3.615834 -4.85069,-8.062014 -8.09766,-8.876953 -0.8891,-0.223149 -1.81164,-0.321636 -2.74805,-0.308594 z M 147.49219,55 c -0.6136,0 -6.71368,5.616138 -13.55469,12.480469 -13.97417,14.021803 -13.6291,13.875434 -25.50391,10.892578 -5.98342,-1.502988 -6.80471,-1.502988 -10.740231,0 C 95.349881,79.26803 92.195371,80 90.683594,80 89.171816,80 86.376085,80.652284 84.46875,81.449219 L 81,82.898438 80.90625,93.199219 c -0.05167,5.665565 -0.390666,14.497281 -0.751953,19.626951 l -0.65625,9.32813 -11.283203,10.67187 c -6.206456,5.87033 -11.26941,11.25078 -11.25,11.95508 0.03861,1.40086 6.813927,7.71875 8.277344,7.71875 0.499486,0 5.132986,-4.26892 10.296874,-9.48633 6.442737,-6.50951 9.711039,-9.16201 10.417969,-8.45508 0.566609,0.56661 1.773286,5.06052 2.679688,9.98633 0.906402,4.9258 2.146458,9.28538 2.755859,9.68946 1.780529,1.18062 19.403942,0.90401 20.158202,-0.31641 0.36773,-0.595 1.30582,-4.3075 2.08399,-8.25 0.77817,-3.9425 1.62456,-8.13582 1.88281,-9.31836 0.2762,-1.26477 1.70828,-2.58085 3.47656,-3.19727 L 122,132.10352 V 114.41602 96.728516 L 138.5,80.396484 C 147.575,71.413842 155,63.508987 155,62.830078 155,61.271735 148.98652,55 147.49219,55 Z M 25.900391,137.28711 c 0.01778,0.0233 0.03508,0.0468 0.05273,0.0703 0.04775,-0.0108 0.06389,-0.0261 -0.0039,-0.0527 -0.01976,-0.008 -0.02948,-0.01 -0.04883,-0.0176 z m 12.949218,12.60937 c 0.09983,-0.49991 -0.08693,0.37912 -0.322265,1.46875 0.02173,0.0185 0.03726,0.0322 0.05859,0.0508 0.07566,-0.50442 0.180095,-1.10099 0.263671,-1.51954 z m 14.988282,15.33204 c 0.02085,-0.035 -0.0095,0.005 -0.126953,0.15625 -0.03445,0.0493 -0.05442,0.11757 -0.08203,0.17578 0.0028,0.002 0.01483,0.008 0.01758,0.01 0.0764,-0.13549 0.172474,-0.31004 0.191407,-0.34179 z" />
        </g>
    </svg>
    <svg version="1.1" id="r_2_3" viewBox="0 0 214 208" xmlns="http://www.w3.org/2000/svg">
        <g transform="translate(-45,-30) scale(1.4)">
            <path
                d="m 98.324471,203.28216 c -1.74654,-0.21877 -3.749838,-1.15926 -4.451771,-2.08996 -1.079804,-1.43174 -1.060483,-1.4998 0.125528,-0.4422 0.770975,0.6875 3.81333,1.25 6.760792,1.25 3.31803,0 5.12364,0.38085 4.74098,1 -0.61843,1.00065 -1.24337,1.02522 -7.175529,0.28216 z M 82.164762,190 c -4.565,-4.95 -8.147689,-9 -7.961532,-9 0.186158,0 4.369704,4.05 9.29677,9 4.927066,4.95 8.509755,9 7.961531,9 -0.548223,0 -4.731769,-4.05 -9.296769,-9 z m 14.151372,-0.39382 C 95.86726,188.80726 95.725,179.23153 96,168.3268 L 96.5,148.5 h 13 13 v 21 21 l -12.68387,0.27938 c -10.259858,0.22599 -12.839833,0.002 -13.499996,-1.1732 z M 70.098893,177.75 c -1.377292,-2.24201 -1.374595,-2.24323 0.759453,-0.34501 2.291288,2.03808 2.587928,2.59501 1.382201,2.59501 -0.417699,0 -1.381444,-1.0125 -2.141654,-2.25 z M 59.437091,166.75 56.5,163.5 l 3.25,2.93709 C 62.779455,169.17487 63.459652,170 62.687091,170 c -0.1721,0 -1.6346,-1.4625 -3.25,-3.25 z m 46.571579,-23.64111 c -4.30191,-0.477 -5.56867,-1.01613 -5.84839,-2.48906 -0.538526,-2.83568 1.57305,-3.5877 10.1211,-3.60452 6.29097,-0.0124 7.90163,0.29803 8.40915,1.62061 0.96048,2.50297 -1.06646,4.85184 -4.29138,4.97297 -1.59453,0.0599 -5.37025,-0.16511 -8.39048,-0.5 z M 99.666667,132.33333 C 99.3,131.96667 99,126.16989 99,119.45161 v -12.21506 l 8.44414,-0.70339 C 120.57452,105.43941 120,104.82012 120,120.06739 V 133 h -9.83333 c -5.40834,0 -10.13334,-0.3 -10.500003,-0.66667 z m 2.442203,-31.05874 -7.391121,-0.36791 0.581346,-6.934289 C 95.618836,90.15853 95.623463,85.454527 95.309378,83.519049 94.837043,80.608389 94.315426,80 92.292235,80 90.926698,80 88.56567,81.280483 86.94746,82.898694 84.23683,85.609324 83.479497,85.812127 75.274383,86.02458 62.936922,86.344029 63,86.356609 63,83.576725 63,81.609114 59.713644,76.400047 56.958126,74 55.353376,72.602268 53,68.350465 53,66.848922 c 0,-0.938336 0.5625,-2.301312 1.25,-3.028836 4.305174,-4.555806 8.608803,-10.776891 8.904464,-12.871794 0.336908,-2.387159 0.594634,-2.455811 10.321563,-2.749424 7.473368,-0.225588 10.232908,0.03679 11,1.045891 C 87.572415,53.318018 95,55.663055 95,52.567388 c 0,-1.595625 3.199545,-2.987522 6.97827,-3.035755 1.69594,-0.02165 2.57485,-0.662986 2.78421,-2.031633 0.58052,-3.795004 3.42475,-12.497683 4.25152,-13.008654 1.08952,-0.673359 3.7564,4.748277 4.60381,9.359313 0.78125,4.251017 1.77415,5.113117 5.91295,5.134028 2.40861,0.01217 3.25207,0.60163 4.10885,2.871477 0.71252,1.887698 2.05841,3.100379 3.96923,3.576394 5.08466,1.266663 12.96275,6.396214 20.40292,13.284672 9.81558,9.087723 21.17163,23.432714 19.7085,24.895839 -0.24297,0.242976 -3.72739,-1.583946 -7.74315,-4.059827 -10.15099,-6.2585 -20.45947,-10.342056 -28.07769,-11.122565 -4.98861,-0.511098 -6.7319,-0.337458 -7.64384,0.761365 -0.69469,0.837057 -1.29964,5.72524 -1.46847,11.865712 L 122.5,101.5 116,101.5713 c -3.575,0.0392 -9.82601,-0.0943 -13.89113,-0.29666 z" />
        </g>
    </svg>
    <svg version="1.1" id="r_2_4" viewBox="0 0 213 198" xmlns="http://www.w3.org/2000/svg">
        <g transform="translate(-45,-30) scale(1.4)">
            <path
                d="m 98.594454,153.15283 c -0.287969,-0.46594 -5.472532,-3.95344 -11.52125,-7.75 -6.048718,-3.79656 -11.014665,-7.46152 -11.035437,-8.14436 -0.02077,-0.68284 0.93194,-1.80784 2.117137,-2.5 1.185198,-0.69216 6.418646,-4.07097 11.629885,-7.50847 10.622771,-7.00712 12.788101,-7.66871 11.765631,-3.59486 -0.40085,1.5971 -0.21321,2.93523 0.47086,3.35801 0.62549,0.38658 8.47593,0.48026 17.44543,0.2082 8.96949,-0.27207 17.48382,-0.1996 18.92073,0.16104 2.57121,0.64534 2.61256,0.79615 2.61256,9.52967 0,7.52757 -0.26552,8.97638 -1.75,9.549 -0.9625,0.37126 -9.4,0.60736 -18.75,0.52465 -9.35,-0.0827 -17.61498,-0.11332 -18.36663,-0.068 -1.3301,0.0801 -1.23746,1.4516 0.36017,5.33233 0.54816,1.33152 0.2307,1.75 -1.32753,1.75 -1.12639,0 -2.283587,-0.38123 -2.571556,-0.84717 z M 54,124.53588 C 49.233403,121.83616 44.746716,120 42.916519,120 40.480522,120 33,112.37253 33,109.88867 c 0,-2.72251 2.615594,-8.69591 5.41453,-12.3655 1.525142,-1.999565 3.145945,-6.766913 4.60803,-13.553827 2.218664,-10.29891 2.346723,-10.56235 7.86641,-16.18256 5.545256,-5.646246 5.679719,-5.713648 11.470749,-5.75 L 68.219437,62 l 5.90317,6.127262 c 3.246744,3.369994 6.078017,7.082494 6.291719,8.25 C 82.384226,87.139311 84.657984,94.999781 86.524395,97.5 89.839101,101.94034 92,106.59066 92,109.28367 c 0,3.21959 -6.111722,9.16106 -11.321749,11.00637 -8.083078,2.8629 -11.185362,4.21964 -11.912938,5.20996 -1.71817,2.33864 -0.5776,-1.86132 2.097844,-7.72496 1.574736,-3.45127 3.180061,-7.28754 3.567388,-8.52504 0.879791,-2.81091 1.878097,-2.82102 5.616813,-0.0569 5.782683,4.27533 5.251543,0.87364 -2.143847,-13.730269 -8.66713,-17.11525 -9.067752,-17.596644 -12.197352,-14.656537 -2.726828,2.561722 -4.537514,2.796734 -5.344533,0.693676 -1.472347,-3.836875 -4.217333,-1.310133 -10.048959,9.25 -10.492612,19.00043 -11.655306,23.28947 -5.03685,18.58037 2.273733,-1.61778 4.11925,-2.3154 4.647608,-1.75683 1.481259,1.56597 7.167575,15.72803 6.863172,17.09309 -0.228101,1.02288 -0.796863,0.99619 -2.786597,-0.13075 z m 91,-0.60052 c -1.925,-1.04276 -5.83755,-2.60448 -8.69456,-3.47049 -3.51445,-1.06528 -6.21843,-2.74068 -8.36017,-5.17999 -3.98493,-4.53858 -3.6881,-8.47338 1.23127,-16.322093 1.88317,-3.004533 3.93411,-7.712787 4.55765,-10.462787 0.62354,-2.75 1.64952,-7.325822 2.27995,-10.168492 0.97277,-4.386312 2.10469,-6.088846 7.47949,-11.25 C 149.38871,61.420766 150.14837,61 154.47331,61 c 4.23096,0 5.14052,0.467309 10.17251,5.22635 6.86022,6.488115 7.15765,7.052506 9.34641,17.735706 0.98063,4.78639 2.52305,10.015497 3.4276,11.620236 0.90455,1.604739 2.75513,4.900988 4.1124,7.324988 1.35727,2.42401 2.46777,5.40915 2.46777,6.63364 0,3.03936 -6.34744,8.56471 -12.5,10.88106 -2.75,1.03533 -5.88763,2.48893 -6.97251,3.23022 -2.26789,1.54964 -4.52749,1.7677 -4.52749,0.43693 0,-0.83686 6.83562,-16.07884 7.61753,-16.98547 0.188,-0.21798 2.15096,0.8009 4.36214,2.26419 3.63325,2.40437 4.02033,2.48139 4.02033,0.79997 0,-1.94625 -5.50421,-13.424114 -11.3499,-23.66782 -3.60931,-6.32478 -5.50738,-7.581822 -7.61451,-5.042889 -1.63295,1.967593 -4.64944,1.991563 -5.39722,0.04289 -1.11637,-2.909218 -3.53173,-1.436908 -6.97224,4.25 C 139.54908,94.208124 133,108.00558 133,110.32794 c 0,2.01309 0.008,2.01327 2.25,0.0489 5.7944,-5.07787 5.4245,-5.17306 8.83201,2.27271 1.72428,3.76774 3.5885,7.81855 4.14272,9.00182 1.65845,3.54079 0.54771,4.32749 -3.22473,2.28397 z M 56.989511,107.14041 c -3.907218,-3.73395 -5.01013,-11.830046 -2.297709,-16.866706 2.019704,-3.750364 2.462171,-3.874148 5.869004,-1.641905 2.303125,1.509065 2.62606,1.509065 4.293558,0 C 65.846078,87.73431 67.172992,87 67.803061,87 69.800946,87 72,92.719374 72,97.915544 c 0,4.183306 -0.514631,5.600996 -3.103592,8.549656 -3.945699,4.49391 -7.688883,4.70617 -11.906897,0.67521 z m 91.206659,-0.43802 C 145.37141,103.78798 145,102.75156 145,97.783432 c 0,-3.503877 0.65264,-6.758508 1.73258,-8.640207 l 1.73259,-3.018854 3.31563,2.049171 c 3.06036,1.891407 3.4527,1.925114 5.09615,0.437814 2.54634,-2.304399 3.44844,-2.029472 5.37678,1.638644 1.84569,3.510899 1.74565,11.01413 -0.19521,14.64065 -3.11239,5.81555 -9.20938,6.6124 -13.86235,1.81174 z M 120.06191,68.337161 c 0.57713,-1.517961 0.63689,-3.038365 0.13899,-3.536263 -0.48039,-0.480383 -9.28859,-1.153301 -19.57379,-1.495374 L 81.926749,62.683574 82.213375,54.091787 82.5,45.5 l 11,-0.08926 c 6.05,-0.0491 14.4875,-0.161595 18.75,-0.25 L 120,45 v -3.5 c 0,-3.998629 1.44439,-4.475875 5.11514,-1.69011 1.31167,0.99544 6.54725,4.4106 11.63461,7.589245 7.11881,4.447921 9.0582,6.12163 8.41829,7.265073 C 144.1216,56.534103 122.16656,71 120.37505,71 c -1.02233,0 -1.09396,-0.609118 -0.31314,-2.662839 z" />
        </g>
    </svg>
    <svg version="1.1" id="r_2" viewBox="0 0 209 205" xmlns="http://www.w3.org/2000/svg">
        <g transform="translate(-20,-22) scale(1.3)">
            <path
                d="M 99.998047,30 C 99.387476,29.992063 99,30.23778 99,30.777344 c 0,0.427621 0.700464,1.777621 1.55664,3 1.74093,2.485514 2.2873,2.632065 4.44336,1.1875 1.28016,-0.857709 1.15345,-1.294833 -0.86133,-2.984375 C 102.6514,30.733286 101.01567,30.013228 99.998047,30 Z m -12.957031,1 c -1.960342,0 -2.003671,0.172356 -0.667969,2.75 0.783758,1.5125 2.547152,3.958965 3.917969,5.435547 1.732497,1.866168 3.136073,2.516046 4.601562,2.132812 C 100.24183,39.919499 93.454746,31 87.041016,31 Z m 39.507814,3.962891 c -1.42684,-0.04767 -2.54116,0.215378 -2.93555,0.853515 -0.27755,0.449084 0.93382,1.646612 2.69141,2.66211 5.79965,3.35091 15.34666,11.389478 17.79101,14.978515 2.37703,3.490197 4.44545,4.17889 8.14649,2.712891 1.65538,-0.655706 1.65538,-0.861385 0,-4.148438 C 150.73023,49.019218 140.78059,40.155072 138.79492,40.041016 138.40684,40.018725 136.43048,38.875 134.4043,37.5 c -2.23128,-1.514188 -5.4774,-2.457654 -7.85547,-2.537109 z M 77.322266,35 c -1.094095,0 -2.248834,0.260552 -2.566407,0.578125 -0.736847,0.736848 3.913894,11.358334 5.986329,13.671875 2.793981,3.119036 8.267263,1.660662 8.251953,-2.199219 C 88.984783,44.691176 79.598347,35 77.322266,35 Z m 36.539064,3.728516 c -2.59538,0.01353 -5.18596,0.745382 -5.58399,1.939453 -0.20461,0.613845 2.68732,3.158366 6.42578,5.65625 3.73852,2.497884 9.25747,7.04774 12.26368,10.109375 3.00621,3.061634 6.15621,5.560234 7,5.552734 C 137.35605,61.956163 140,60.674103 140,59.0625 c 0,-3.882103 -11.53253,-14.150704 -21.93359,-19.529297 -1.08829,-0.562774 -2.64785,-0.812806 -4.20508,-0.804687 z M 65.126953,41.179688 C 63.389305,40.986141 62.910917,42.971346 64.419922,47.416016 65.289084,49.976074 66,52.767727 66,53.621094 c 0,0.853366 1.426686,3.537431 3.169922,5.964844 C 70.913158,62.01335 72.892126,64 73.568359,64 c 0.676232,0 2.198257,-1.856126 3.38086,-4.125 L 79.097656,55.75 76.529297,52.125 C 71.676608,45.277734 67.361072,41.428533 65.126953,41.179688 Z m 35.171877,4.289062 c -0.25349,0.01093 -0.490912,0.04292 -0.708986,0.09766 -2.886988,0.724587 -5.702988,4.001721 -4.984375,5.798828 0.249663,0.624359 2.777791,2.484766 5.619141,4.134766 2.84134,1.65 7.89069,5.601933 11.2207,8.78125 5.94626,5.677183 6.13518,5.769061 10.55469,5.152344 2.475,-0.345372 4.8375,-0.835939 5.25,-1.089844 5.04773,-3.107012 -19.09304,-23.213716 -26.95117,-22.875 z m -45.644533,5.980469 c -0.449856,0.01135 -0.845367,0.312164 -1.367188,0.833984 -1.269157,1.269156 -1.340918,2.125704 -0.404297,4.8125 0.626551,1.797333 0.881182,4.649585 0.564454,6.337891 -0.480228,2.55984 0.268476,4.273418 4.513672,10.318359 C 60.760791,77.738809 63.445488,81 63.925781,81 c 0.480294,0 1.078442,-1.9125 1.330078,-4.25 0.251637,-2.3375 1.05202,-5.660854 1.777344,-7.384766 1.244234,-2.957231 1.127541,-3.381128 -2.060547,-7.5 -1.85849,-2.401088 -4.900317,-5.887095 -6.759765,-7.746093 -1.90478,-1.904321 -2.808834,-2.688837 -3.558594,-2.669922 z m 33.857422,4.18164 c -0.309938,-0.0043 -0.597259,0.01796 -0.859375,0.07031 -3.538786,0.706854 -6.978011,5.820046 -5.621094,8.355469 0.504492,0.942652 3.51648,3.417364 6.693359,5.498047 3.176879,2.08068 7.678696,5.505939 10.003907,7.613281 4.801454,4.351566 5.018024,4.394174 12.113284,2.287109 6.01563,-1.786451 6.05285,-1.558362 -1.69727,-10.388672 -6.2413,-7.111193 -15.983746,-13.371067 -20.632811,-13.435547 z m -46.582031,7.988282 c -0.292593,0.04904 -0.5713,0.158995 -0.841797,0.326171 -1.171458,0.724002 -1.194741,1.601422 -0.142579,5.359376 1.015856,3.628292 1.011037,5.174829 -0.02539,8.041015 -1.379043,3.813675 -1.787552,2.983216 9.021484,18.373047 0.857018,1.220216 1.896094,2.23272 2.308594,2.25 0.704242,0.02951 1.174676,-2.417251 0.832031,-4.324219 -0.08463,-0.470985 1.208955,-3.270141 2.873047,-6.21875 l 3.025391,-5.361328 -6.240235,-8.203125 C 46.745406,65.979215 43.977836,63.275836 41.929688,63.619141 Z m 99.441402,3.503906 c -0.30115,-0.04132 -0.61512,-0.03403 -0.9375,0.02734 -1.60596,0.30576 -2.02342,1.469477 -2.46289,6.859375 -0.43477,5.332192 -1.14864,7.353489 -4,11.328125 -1.90894,2.660941 -3.9207,5.596015 -4.4707,6.521484 -0.55,0.925469 -2.0125,3.092912 -3.25,4.816406 C 125.0125,98.3993 124,100.3017 124,100.9043 124,101.5069 124.24652,102 124.54883,102 129.20682,102 145,80.276627 145,73.869141 c 0,-3.749751 -1.52083,-6.456857 -3.62891,-6.746094 z M 153.01562,67.5 c -2.30203,0 -2.4102,0.272868 -2.13867,5.388672 0.2648,4.989066 -0.0696,5.916792 -4.49609,12.5 -2.62973,3.911035 -6.08487,8.807618 -7.67969,10.880859 -1.59482,2.07324 -2.64449,4.435739 -2.33203,5.249999 0.6936,1.8075 3.6611,1.9233 5.90625,0.23047 0.91181,-0.6875 4.64323,-5.75 8.29297,-11.25 4.63969,-6.991827 6.76935,-11.203269 7.07617,-14 0.56604,-5.159669 -1.40964,-9 -4.62891,-9 z m -76.763667,2.222656 c -1.634564,0.0911 -3.06624,0.704553 -4.316406,1.835938 -2.110235,1.909737 -2.605737,7.322223 -0.953125,10.410156 1.516452,2.833517 9.91253,8.528222 16.017578,10.865234 3.025,1.15797 6.565518,1.872873 7.867188,1.587891 1.301664,-0.284983 3.664153,-0.778536 5.250002,-1.095703 C 101.72337,93.004937 103,92.100802 103,91.283203 103,89.008912 92.615773,78.074955 86.234375,73.630859 82.266402,70.867508 78.976227,69.570819 76.251953,69.722656 Z m 89.167967,0.298828 C 164.18344,70.206985 163.50007,72.24326 163.5,76.013672 163.49991,80.92693 163.0192,82.178285 158.89258,88 152.8536,96.519611 149,103.27331 149,105.33789 c 0,0.91418 0.5625,1.65644 1.25,1.64844 3.91957,-0.0428 6.02912,-1.69069 9.4043,-7.351564 2.01145,-3.373619 4.43453,-7.034766 5.38476,-8.134766 5.29455,-6.129063 6.82821,-15.685989 3.17578,-19.787109 -1.11155,-1.248101 -2.05303,-1.802707 -2.79492,-1.691407 z m -37.09375,4.080078 c -2.77538,0.05399 -3.75013,1.663769 -3.49414,5.464844 0.18057,2.681225 -0.50892,4.4999 -2.79687,7.388672 -1.6695,2.107917 -3.03516,4.189596 -3.03516,4.625 0,0.435405 -0.83998,1.720021 -1.86719,2.855469 -1.02721,1.135448 -2.65,3.29483 -3.60547,4.798828 l -1.73632,2.734375 2.91992,-1.01758 c 2.13375,-0.74383 4.83515,-3.905497 10.02539,-11.734373 8.34631,-12.589433 8.99291,-14.576356 4.89258,-15.044922 -0.47158,-0.05389 -0.90626,-0.07802 -1.30274,-0.07031 z m 50.39844,1.083985 C 177.30434,74.912027 177,75.62397 177,79.214844 c 0,3.703739 -1.03072,5.936787 -6.8418,14.822265 -8.27655,12.655321 -10.10799,16.747871 -8.06836,18.039061 0.77527,0.49078 1.91206,0.90021 2.52539,0.90821 2.05679,0.0282 6.42096,-4.1375 7.80469,-7.44922 0.75374,-1.80396 3.44415,-6.127157 5.97656,-9.607426 3.88289,-5.336242 4.6003,-7.039978 4.5879,-10.876953 -0.0171,-5.276426 -1.79281,-9.390142 -4.25977,-9.865234 z M 29.572266,79.455078 c -1.375269,0.218209 -1.348591,2.060195 0.05273,5.5625 1.62224,4.054381 1.624766,4.601562 0.05078,9.033203 C 28.754335,96.645244 28,99.199135 28,99.726562 c 0,0.527428 2.280794,4.208388 5.068359,8.177738 3.400407,4.84201 5.621721,7.11242 6.75,6.90039 1.581414,-0.29718 8.093247,-11.00764 8.154297,-13.41211 0.06413,-2.52571 -12.083369,-19.398553 -15.082031,-20.949221 -1.085674,-0.561424 -1.965926,-0.889105 -2.642578,-0.982421 -0.253745,-0.03499 -0.479314,-0.03683 -0.675781,-0.0059 z m 85.601564,4.808594 c -0.2109,-0.0219 -0.46307,0.01655 -0.75586,0.128906 C 113.54799,84.726422 112.64799,85 112.41797,85 112.18796,85 112,86.419053 112,88.154297 c 0,3.091645 0.0401,3.11934 2,1.345703 2.14403,-1.94032 2.65013,-5.083054 1.17383,-5.236328 z m 75.32031,0.371094 C 189.52077,84.450426 189,85.477773 189,87.689453 c 0,1.414354 -1.48359,4.65072 -3.29688,7.191406 C 181.219,101.16379 174,114.75232 174,116.91016 c 0,0.9661 0.32211,2.07796 0.71484,2.4707 0.39273,0.39276 2.08023,0.57958 3.75,0.41602 2.51401,-0.24627 3.48018,-1.15647 5.62305,-5.29688 1.42327,-2.75 4.6621,-8.3246 7.19727,-12.38867 5.06146,-8.113924 5.36777,-11.490975 1.43554,-15.83008 -0.89533,-0.987977 -1.64254,-1.53588 -2.22656,-1.646484 z M 64.828125,86.488281 c -2.004045,-0.06121 -3.527072,0.88404 -5.056641,2.822266 -2.183018,2.766259 -2.204889,5.008967 -0.107422,10.861333 1.842943,5.14212 2.645043,5.7283 12.835938,9.3789 5.309951,1.90211 8.149299,2.36996 11.761719,1.94141 C 89.824739,110.83225 92,110.11504 92,108.93945 92,106.70573 78.424981,93.126372 72.773438,89.707031 69.318275,87.616562 66.83217,86.549488 64.828125,86.488281 Z M 19.808594,100.0332 c -2.603827,-0.05123 -2.938298,1.41483 -1.246094,5.46485 0.933075,2.23315 1.297411,4.86399 0.914062,6.60937 -0.562629,2.56164 0.08989,3.65665 5.601563,9.39649 6.63347,6.90807 8.235794,7.64728 9.886719,4.5625 1.970623,-3.68214 1.020707,-7.04996 -4.175782,-14.79688 C 25.141097,102.84956 22.438931,100.0849 19.808594,100.0332 Z M 53.925781,108 c -3.364839,0 -4.241848,0.47131 -5.871093,3.15039 -1.893719,3.11397 -1.891681,3.21269 0.138671,8.75 1.129437,3.08027 2.468555,6.04961 2.976563,6.59961 0.508008,0.55 4.390383,2.21819 8.626953,3.70703 8.127741,2.85631 10.394321,3.15185 16.453125,2.15039 4.800604,-0.79349 4.76898,-2.44262 -0.132812,-6.87109 -2.135734,-1.92951 -4.439336,-4.851 -5.119141,-6.49219 -0.794082,-1.91709 -3.152321,-4.08067 -6.595703,-6.05078 -2.947839,-1.68658 -5.620371,-3.48763 -5.939453,-4.00391 C 58.14381,108.42316 56.101405,108 53.925781,108 Z m 21.732422,7.40039 c -0.429505,-0.0515 -0.889339,0.16472 -1.148437,0.58399 -0.345463,0.55897 0.07418,1.01562 0.93164,1.01562 1.756526,0 2.013997,-0.5998 0.626953,-1.45703 -0.127999,-0.0791 -0.266988,-0.12542 -0.410156,-0.14258 z M 9.2988281,117.9707 c -0.095112,0.0701 -0.093006,0.14531 0.068359,0.22461 0.088991,0.0437 0.1812505,0.076 0.2734375,0.10547 -0.1371501,-0.12813 -0.18912,-0.18961 -0.3417969,-0.33008 z M 42.166016,120 c -0.420161,0 -1.353588,1.63018 -2.074219,3.62305 -1.080646,2.98857 -1.080136,3.76499 0.002,4.43359 1.668453,1.03116 2.831816,0.30526 3.857422,-2.4082 C 44.754141,123.52327 43.641401,120 42.166016,120 Z M 55.9375,132.98047 c -1.306376,-0.15741 -1.457128,0.4999 -0.0625,1.89453 1.03125,1.03125 2.49375,2.12154 3.25,2.42188 3.799736,1.50898 4.105669,-1.41556 0.328125,-3.13672 -1.531879,-0.69798 -2.7318,-1.08525 -3.515625,-1.17969 z m -14.318359,0.0781 C 40.549979,133.09256 40,133.63416 40,134.69141 c 0,0.93012 4.8375,6.54916 10.75,12.48828 5.9125,5.93911 11.283852,10.80454 11.935547,10.81054 0.651696,0.006 2.348089,-0.43222 3.769531,-0.97265 2.205491,-0.83853 2.414283,-1.25427 1.427734,-2.83399 -0.635829,-1.01813 -2.394816,-2.68403 -3.908203,-3.70117 -1.513387,-1.01714 -3.489866,-3.52232 -4.392578,-5.56836 -1.227934,-2.78318 -3.349054,-4.75135 -8.421875,-7.8164 -4.533857,-2.7394 -7.759079,-4.09547 -9.541015,-4.03907 z M 89.623047,135 c -5.062547,0 -8.685064,0.46046 -9.423828,1.19922 -1.520213,1.52021 -1.682702,35.02897 -0.183594,37.83008 0.575022,1.07444 1.642067,1.65602 2.460937,1.34179 1.062191,-0.4076 1.522087,-2.71943 1.734376,-8.71289 0.263897,-7.45053 0.47356,-8.18382 2.416015,-8.46093 1.715139,-0.24468 3.233232,1.44926 7.839844,8.75 3.945044,6.25226 6.303593,9.05273 7.623043,9.05273 2.9989,0 2.32364,-3.15248 -2.08984,-9.76172 C 95.771044,159.90537 94.998652,157 97.544922,157 c 0.85,0 2.649998,-1.10508 3.999998,-2.45508 2.05663,-2.05662 2.45508,-3.41924 2.45508,-8.41015 0,-5.42378 -0.27464,-6.18759 -3.07617,-8.54493 C 98.159674,135.26397 97.01088,135 89.623047,135 Z m 29.968753,0.26562 c -0.77921,0.0307 -1.58475,0.10583 -2.41602,0.23047 -10.70125,1.6046 -10.43253,4.6552 0.38867,4.4043 8.69912,-0.2017 10.43555,0.79966 10.43555,6.02539 0,4.77573 -3.85893,10.71276 -12.38086,19.04492 -4.32875,4.23236 -6.61914,7.25952 -6.61914,8.75 0,2.24529 0.17715,2.2793 12,2.2793 11.33333,0 12,-0.11111 12,-2 0,-1.83209 -0.6671,-2 -7.94141,-2 -4.36754,0 -8.17107,-0.37371 -8.45312,-0.83008 -0.28206,-0.45638 1.99643,-3.26888 5.0625,-6.25 3.06606,-2.98113 6.86959,-7.42005 8.45312,-9.86523 6.77846,-10.46681 1.1588,-20.25024 -10.52929,-19.78907 z m -27.830081,3.87696 C 96.962459,139.30695 99,141.4748 99,146.49805 c 0,3.91779 -0.354426,4.63373 -2.951172,5.97656 C 94.426141,153.31373 91.285193,154 89.068359,154 84.385962,154 83.670724,152.59778 84.1875,144.43359 L 84.5,139.5 l 4.835938,-0.30859 c 0.875386,-0.0558 1.682818,-0.0723 2.425781,-0.0488 z m -17.683594,43.95898 0.05469,0.0566 c 0.01515,4.8e-4 0.03513,-3.2e-4 0.05078,0 l -0.05273,-0.0508 c -0.01823,-0.002 -0.03537,-0.004 -0.05273,-0.006 z" />
        </g>
    </svg>
    <svg version="1.0" id="r_plus" xmlns="http://www.w3.org/2000/svg" viewBox="0 0 120.000000 120.000000"
        preserveAspectRatio="xMidYMid meet">
        <g transform="translate(0.000000,120.000000) scale(0.050000,-0.050000)" fill="#000000" stroke="none">
            <path d="M920 2283 c0 -51 71 -111 112 -95 30 12 27 21 -23 73 -65 68 -89 74
-89 22z" />
            <path d="M1420 2251 c0 -15 17 -34 38 -40 21 -7 68 -39 105 -71 37 -33 74 -60
81 -60 8 0 29 -27 46 -60 31 -60 111 -85 109 -35 -2 91 -379 356 -379 266z" />
            <path d="M760 2231 c0 -63 70 -170 112 -171 70 0 69 22 -5 113 -74 90 -107
108 -107 58z" />
            <path d="M1229 2179 c-13 -22 44 -77 82 -78 11 -1 73 -50 136 -111 102 -97
121 -107 158 -87 41 22 41 24 -28 85 -220 193 -314 245 -348 191z" />
            <path d="M600 2143 c0 -22 9 -46 20 -53 11 -7 20 -31 20 -53 0 -43 72 -157 99
-157 46 0 31 105 -27 193 -69 105 -112 132 -112 70z" />
            <path d="M1053 2087 c-29 -29 -10 -67 46 -97 33 -17 102 -71 152 -120 95 -93
147 -110 187 -63 17 21 0 46 -80 115 -57 48 -125 108 -153 133 -49 43 -124 59
-152 32z" />
            <path d="M455 2028 c-7 -7 -4 -34 6 -61 11 -28 14 -72 7 -98 -7 -27 -4 -49 7
-49 11 0 31 -27 45 -59 42 -103 71 -110 99 -24 32 97 -109 347 -164 291z" />
            <path d="M884 1936 c-42 -42 -26 -94 37 -127 34 -17 96 -63 139 -101 68 -62
86 -69 149 -57 87 16 91 49 11 96 -33 19 -60 46 -61 59 -1 68 -229 176 -275
130z" />
            <path d="M288 1852 c-6 -16 -1 -47 10 -69 12 -22 16 -66 10 -97 -12 -60 80
-245 122 -245 58 0 97 161 52 216 -24 29 -56 80 -71 113 -36 77 -107 124 -123
82z" />
            <path d="M1614 1807 c-8 -7 -14 -52 -14 -99 0 -70 -17 -111 -92 -218 -51 -73
-88 -137 -82 -143 50 -49 258 269 250 381 -6 75 -32 109 -62 79z" />
            <path d="M1780 1727 c0 -79 -15 -116 -101 -243 -72 -105 -95 -156 -81 -170 23
-23 121 53 123 94 0 12 27 57 59 100 69 92 94 195 63 264 -35 76 -63 56 -63
-45z" />
            <path d="M713 1747 c-93 -94 195 -341 335 -288 57 22 68 56 23 73 -16 7 -35
28 -41 49 -28 87 -269 213 -317 166z" />
            <path d="M1960 1685 c0 -57 -25 -112 -100 -225 -109 -163 -120 -200 -62 -200
26 0 59 38 102 115 36 63 77 129 91 145 30 34 44 179 21 216 -28 46 -52 23
-52 -51z" />
            <path d="M1449 1699 c-7 -12 -15 -41 -18 -65 -3 -24 -41 -98 -86 -164 -79
-117 -90 -148 -45 -120 33 20 220 313 220 344 0 31 -52 35 -71 5z" />
            <path d="M2134 1611 c-6 -38 -57 -138 -113 -223 -110 -167 -122 -208 -62 -208
27 0 65 43 123 140 45 78 91 146 100 152 31 18 22 208 -9 208 -16 0 -33 -29
-39 -69z" />
            <path d="M131 1625 c28 -67 33 -141 10 -182 -28 -53 82 -263 137 -263 62 0
132 199 81 231 -11 7 -42 47 -69 89 -78 123 -199 219 -159 125z" />
            <path d="M2312 1517 c-7 -35 -37 -96 -67 -135 -62 -80 -145 -239 -145 -278 0
-69 89 -10 142 94 31 59 74 127 97 151 40 43 54 135 29 199 -19 50 -42 37 -56
-31z" />
            <path d="M544 1491 c-56 -124 107 -275 300 -279 126 -2 134 33 34 139 -168
178 -293 230 -334 140z" />
            <path d="M7 1310 c7 -44 13 -98 13 -120 0 -46 155 -215 182 -199 55 35 -45
255 -165 361 l-43 38 13 -80z" />
            <path d="M410 1220 c-71 -78 -4 -221 121 -256 243 -69 328 -56 231 34 -34 32
-62 71 -62 87 0 28 -195 175 -233 175 -12 0 -37 -18 -57 -40z" />
            <path d="M281 1043 c-21 -41 -10 -63 32 -63 15 0 27 22 27 50 0 59 -30 65 -59
13z" />
            <path d="M1363 1006 c-10 -20 -14 -109 -9 -199 12 -198 15 -195 -228 -189
-185 4 -186 4 -207 -49 -34 -90 0 -107 228 -113 l203 -6 6 -204 c6 -224 22
-249 131 -207 50 19 52 25 57 215 l6 196 170 2 c243 2 240 2 240 56 0 108 -8
111 -220 98 -231 -14 -218 -28 -215 244 l1 180 -72 6 c-53 5 -76 -3 -91 -30z" />
            <path d="M289 898 c-15 -25 286 -338 324 -338 56 0 45 46 -32 133 -44 51 -81
100 -81 108 0 9 -17 22 -38 28 -20 7 -58 30 -83 52 -52 45 -71 48 -90 17z" />
        </g>
    </svg>
    <svg version="1.1" id="rhq_1" viewBox="0 0 214 212" xmlns="http://www.w3.org/2000/svg">
        <path
            d="M 94.437091,201.75 91.5,198.5 l 3.25,2.93709 C 97.779455,204.17487 98.459652,205 97.687091,205 c -0.1721,0 -1.6346,-1.4625 -3.25,-3.25 z M 91.2,165.8 C 90.327563,164.92756 90,157.42801 90,138.32605 V 112.05209 L 74.75,111.77605 59.5,111.5 59.225025,94.574452 c -0.209108,-12.871258 0.03043,-17.119366 1,-17.734687 0.701236,-0.445027 7.678902,-0.81603 15.505923,-0.824452 C 92.480396,75.99729 90.882642,77.697101 91.254669,59.5 L 91.5,47.5 108.42503,47.225028 c 9.30876,-0.151235 17.30997,0.109971 17.78046,0.580458 0.47048,0.470486 0.96176,6.541759 1.09171,13.491717 0.15232,8.145774 0.65947,13.059466 1.42711,13.82711 0.78293,0.782923 5.5727,1.232681 13.98326,1.313025 7.03584,0.06721 13.35493,0.472863 14.04243,0.901449 0.91718,0.571766 1.25,5.128311 1.25,17.113241 0,13.971972 -0.22874,16.421772 -1.58179,16.940982 -0.86998,0.33385 -7.36842,0.60699 -14.44098,0.60699 -7.56076,0 -13.11584,0.41526 -13.48207,1.00784 -0.34259,0.55431 -0.5807,12.3045 -0.52914,26.11153 0.0657,17.60378 -0.25052,25.51851 -1.05858,26.49216 C 125.3631,167.47234 93.042933,167.64293 91.2,165.8 Z" />
    </svg>
    <svg version="1.1" id="rhq_2" viewBox="0 0 214 211" xmlns="http://www.w3.org/2000/svg">
        <path
            d="M 87.442818,199.72419 81.5,193.50068 l 5.97683,5.49966 c 3.287256,3.02481 6.174756,5.61216 6.416666,5.74966 0.241911,0.1375 0.226605,0.46323 -0.03401,0.72385 -0.260617,0.26062 -3.148117,-2.32673 -6.416667,-5.74966 z M 56.533945,131.79899 C 55.452614,131.17188 53.51966,129.61057 52.23849,128.3294 50.059097,126.15001 49.139253,126 37.954545,126 H 26 v -5.78491 c 0,-5.57574 0.171755,-5.95467 4.75,-10.47955 4.514617,-4.462 13.964629,-12.459661 25.091856,-21.23554 2.789453,-2.2 4.94389,-4.45 4.787639,-5 C 60.473243,82.95 58.692686,82.360336 56.6727,82.189635 53.345735,81.908486 53,81.602543 53,78.939635 V 76 h 8.869372 c 8.853336,0 8.878514,-0.0073 13.926348,-4.026425 4.889808,-3.893323 7.26493,-8.448391 5.713829,-10.958125 -0.351254,-0.568341 -0.351758,-1.937246 -0.0011,-3.042012 0.618439,-1.948528 1.361347,-2.000652 24.814551,-1.741051 L 130.5,56.5 130.76994,60 c 0.14847,1.925 0.47135,4.420097 0.71752,5.54466 0.24616,1.124562 8.19592,8.549562 17.66612,16.5 24.31919,20.41648 26.76027,22.52643 32.13627,27.77713 4.69439,4.58497 4.78408,4.78783 4.5,10.17821 l -0.28985,5.5 -11.48173,0.28492 c -10.4479,0.25926 -11.70847,0.49587 -14,2.62781 -6.59243,6.13333 -13.69689,6.01982 -19.42562,-0.31035 C 138.73539,126.05013 137.93443,126 107,126 c -30.934434,0 -31.73539,0.0501 -33.592652,2.10238 -4.146989,4.58237 -12.275445,6.36315 -16.873403,3.69661 z M 122.28731,64.5 C 121.94336,62.882878 114.3145,62.212153 102,62.716352 91.292458,63.154757 86.67693,64.212955 90.082783,65.448603 94.590445,67.083989 122.66104,66.257154 122.28731,64.5 Z" />
    </svg>
    <svg version="1.1" id="rhq_3" viewBox="0 0 218 205" xmlns="http://www.w3.org/2000/svg">
        <path
            d="M 91.946167,197.25 88.5,193.5 l 3.75,3.44617 C 95.740419,200.15378 96.459787,201 95.696167,201 c -0.167108,0 -1.854608,-1.6875 -3.75,-3.75 z M 85.5,154.64849 c -3.3,-1.81355 -8.25,-4.56153 -11,-6.10663 -2.75,-1.5451 -7.475,-4.15036 -10.5,-5.78946 -3.025,-1.6391 -7.4125,-4.09669 -9.75,-5.46131 L 50,134.80996 v -28.8324 -28.8324 l 2.634859,-2.07258 C 54.084031,73.932661 55.595294,73 55.993221,73 56.391149,73 63.642962,69.12867 72.108363,64.397045 80.573763,59.66542 90.875,53.982238 95,51.767752 99.125,49.553266 106.16094,45.774596 110.63542,43.370707 117.4604,39.704022 119.66958,39 124.35047,39 c 9.86694,0 20.21591,4.160307 33.3756,13.417058 L 164.95214,57.5 165.13397,66 c 0.44661,20.87779 0.48603,40.87104 0.0889,45.06831 -0.49861,5.26917 2.12776,3.32409 -33.72283,24.97504 -11.55,6.9753 -24.35431,14.76908 -28.45402,17.3195 -4.099703,2.55043 -8.374703,4.62496 -9.499995,4.61007 C 92.420693,157.95803 88.8,156.46203 85.5,154.64849 Z M 88,130.4096 c 0,-9.05246 -0.237276,-10.56297 -1.75,-11.14059 -0.9625,-0.36752 -6.174167,-3.27839 -11.581482,-6.46861 C 69.261203,109.61018 64.198703,107 63.418518,107 c -2.233535,0 -2.023703,19.6738 0.23647,22.17126 0.910243,1.00581 1.963723,1.82874 2.341068,1.82874 0.377344,0 5.117926,2.44882 10.534625,5.44183 5.4167,2.99301 10.213219,5.21645 10.658932,4.94098 C 87.635326,141.10735 88,136.1694 88,130.4096 Z m 33,-0.47367 c 10.175,-6.20315 20.975,-12.75345 24,-14.55621 10.68933,-6.37034 10,-5.24539 10,-16.319416 0,-7.586048 -0.32617,-9.971488 -1.42086,-10.391561 -0.78147,-0.299879 -4.26897,1.174691 -7.75,3.276821 l -6.32914,3.822055 -0.29356,5.956151 c -0.57827,11.73247 -9.04412,16.65797 -15.64283,9.10112 -3.52585,-4.0378 -2.962,-4.14581 -15.81361,3.02913 l -7.75,4.32675 v 11.24295 c 0,10.51578 0.39417,13.05177 1.88948,12.15629 0.33579,-0.20109 8.93552,-5.44093 19.11052,-11.64408 z M 88,107.20821 c 0,-5.5118 -0.205459,-5.98762 -4.25,-9.842523 -4.371753,-4.166773 -8.636074,-6.501773 -14.75,-8.076606 -5.767511,-1.485603 -7,-0.748008 -7,4.189221 0,4.112428 0.240398,4.471744 4.75,7.099668 2.6125,1.5224 6.325,3.99921 8.25,5.50402 C 78.58336,108.88317 85.864382,113 87.235191,113 87.655836,113 88,110.39369 88,107.20821 Z m 27,-3.99963 c 2.475,-1.8514 5.0625,-4.091724 5.75,-4.978507 C 122.42823,96.065377 122.3368,93 120.594,93 c -1.65229,0 -18.75449,9.85447 -19.82869,11.42551 -0.868086,1.26959 -1.009538,5.99693 -0.20356,6.80291 0.71966,0.71966 8.62564,-3.67178 14.43825,-8.01984 z m 0.28512,-16.099729 c 8.36819,-4.890132 16.81563,-9.783718 18.7721,-10.874636 C 147.28716,68.857259 154,64.558679 154,63.463808 c 0,-0.696441 -1.64962,-2.323205 -3.66583,-3.615032 -2.01621,-1.291827 -4.90954,-3.159205 -6.42963,-4.149729 -8.49431,-5.535082 -21.41938,-7.397498 -27.07791,-3.901743 -1.82965,1.13033 -6.49663,3.775844 -10.37108,5.878921 C 79.506864,72.304146 72.078319,76.621017 72.342458,77.5 c 0.165277,0.55 3.295567,2.575 6.956199,4.5 3.660632,1.925 7.903466,4.586091 9.428519,5.913535 C 96.830386,94.966771 98.151906,96 99.069919,96 c 0.55018,0 7.847021,-4.001017 16.215201,-8.891149 z m 37.74021,-5.134176 c 2.31408,-2.314082 2.61448,-6.791928 0.50982,-7.599561 -1.41474,-0.542885 -7.86741,2.675715 -17.80859,8.882947 -4.00869,2.503009 -4.57499,3.219643 -3.53472,4.47309 2.65332,3.197055 5.10774,3.119584 12.08349,-0.381403 3.72642,-1.870219 7.66392,-4.289002 8.75,-5.375073 z" />
    </svg>
    <svg version="1.1" id="rhq_4" viewBox="0 0 208 203" xmlns="http://www.w3.org/2000/svg">
        <path
            d="m 87.75,198.33772 c 0.6875,-0.27741 1.8125,-0.27741 2.5,0 0.6875,0.27741 0.125,0.50439 -1.25,0.50439 -1.375,0 -1.9375,-0.22698 -1.25,-0.50439 z M 72.404988,183.75 70.5,181.5 l 2.25,1.90499 C 74.864445,185.19521 75.455241,186 74.654988,186 c -0.189757,0 -1.202257,-1.0125 -2.25,-2.25 z m 16.867495,-29.17335 c -19.334931,-3.81082 -37.379221,-19.84657 -43.412901,-38.58054 -2.777248,-8.62307 -2.230023,-10.20976 3.381269,-9.80405 L 53.5,106.5 54.030863,112 c 0.625188,6.47725 1.782335,8.82358 6.173979,12.51891 3.187773,2.68233 3.41292,2.71926 11.772542,1.93062 13.162448,-1.24174 24.61453,-1.0331 26.439733,0.48168 1.291525,1.07187 1.582883,3.64721 1.582883,13.99123 0,12.38572 -0.657415,15.24015 -3.45,14.97959 -0.5775,-0.0539 -3.852383,-0.6503 -7.277517,-1.32538 z M 104.25,155.32772 C 103.3338,154.96535 103,151.12737 103,140.95521 v -13.87812 l 4.25,-1.17538 c 3.23253,-0.89398 6.52435,-0.9009 13.75,-0.0289 5.225,0.63056 11.42833,1.14213 13.78518,1.13683 7.7827,-0.0175 13.11439,-5.63077 14.10798,-14.85299 0.65013,-6.0343 1.73982,-6.96756 6.68593,-5.72616 2.99437,0.75153 3.11991,3.18535 0.52982,10.27154 -7.25312,19.84368 -24.32654,34.64898 -43.60891,37.81569 -2.2,0.3613 -4.675,0.80259 -5.5,0.98064 -0.825,0.17805 -2.0625,0.10126 -2.75,-0.17065 z M 64.5,123.28834 c -1.1,-0.26381 -3.032185,-1.65451 -4.293744,-3.09044 -1.906627,-2.17017 -2.244169,-3.54638 -2,-8.15435 L 58.5,106.5 h 20 20 v 4.9863 c 0,4.2018 -0.314665,5.04193 -2,5.33984 -1.1,0.19443 -2.67537,1.21102 -3.500822,2.25908 -1.180906,1.49937 -4.058568,2.22457 -13.5,3.40218 C 72.89963,123.31054 67.275,123.93542 67,123.87601 c -0.275,-0.0594 -1.4,-0.32386 -2.5,-0.58767 z m 58.5064,-0.9037 c -9.09806,-1.09164 -11.80756,-1.7806 -13,-3.30558 -0.82852,-1.05957 -2.6314,-2.07333 -4.0064,-2.25278 -2.28983,-0.29885 -2.5,-0.74662 -2.5,-5.32628 v -5 l 19.72566,-0.27106 19.72567,-0.27106 0.59013,2.35127 c 0.32457,1.2932 0.44802,4.29519 0.27433,6.67109 -0.23803,3.25618 -0.93135,4.75503 -2.81579,6.08738 -3.79196,2.681 -5.55202,2.80983 -17.9936,1.31702 z M 44.244794,101.84479 c -1.61758,-1.61758 -1.613686,-10.301915 0.0052,-11.609632 0.747772,-0.604039 3.861587,-0.752512 7.75,-0.369536 5.967447,0.587744 6.480677,0.823209 6.264155,2.873939 -0.129715,1.228558 -1.030771,3.927249 -2.002346,5.997091 -1.614859,3.440288 -2.153039,3.788658 -6.269361,4.058138 -2.637198,0.17266 -5.018614,-0.22096 -5.747654,-0.95 z m 15.805698,0.20758 c -1.227546,-0.77659 -1.074417,-1.65473 1,-5.734689 2.979541,-5.860148 3.50229,-5.97498 19.268931,-4.23279 9.166725,1.012909 12.022358,1.685215 12.723623,2.99554 0.497309,0.929232 2.041069,1.974848 3.430576,2.323593 2.717851,0.682137 3.25615,2.466204 1.326378,4.395976 -1.453434,1.45343 -35.491295,1.68099 -37.749508,0.25237 z m 44.373498,-0.35206 c -2.40007,-1.34784 -1.58649,-3.505708 1.58433,-4.202137 1.65457,-0.363405 3.43354,-1.455283 3.95327,-2.426395 0.74312,-1.388537 2.82382,-1.914228 9.74168,-2.46125 4.8382,-0.382575 10.8968,-0.90263 13.46355,-1.155677 4.42145,-0.435895 4.77636,-0.282858 6.75,2.910566 1.14575,1.853858 2.08318,4.310404 2.08318,5.458992 0,2.029941 -0.50552,2.096551 -18.07601,2.381971 -9.94181,0.16149 -18.71681,-0.0662 -19.5,-0.50607 z m 41.56307,-4.230507 C 144.89418,94.920215 144,92.47392 144,92.033592 c 0,-1.212307 13.05626,-2.377336 14.16925,-1.264344 0.52345,0.523451 0.81201,3.15201 0.64124,5.841241 L 158.5,101.5 l -5.26294,0.30271 -5.26295,0.30271 z M 76.25,88.256012 C 68.92246,87.956785 68,87.706164 68,86.014594 c 0,-2.400625 9.047528,-8.989857 16.493159,-12.011817 5.020781,-2.037786 5.875599,-2.114649 9.994004,-0.898629 3.891809,1.149115 4.585913,1.768461 5.109447,4.559137 1.36256,7.263092 -3.007981,11.437703 -11.59661,11.076727 -1.925,-0.08091 -7.2125,-0.298706 -11.75,-0.484 z m 31.25,-0.640457 -4,-1.171326 -0.29889,-5.688265 -0.2989,-5.688266 3.67102,-1.533849 C 108.59229,72.690232 111.0942,72 112.13302,72 c 3.04612,0 10.96077,4.022024 16.56967,8.420277 5.16142,4.047363 6.45127,6.287001 4.04731,7.027572 -3.56201,1.097326 -21.66481,1.217561 -25.25,0.167706 z M 50,86.186868 c -2.475,-0.172222 -4.885534,-0.692756 -5.356741,-1.156741 -1.144763,-1.127216 2.68703,-11.165965 6.924946,-18.14237 1.87508,-3.086734 5.440779,-7.484854 7.923776,-9.7736 L 64.00652,52.9528 81.237176,53.2264 98.467832,53.5 99.088521,57.323967 C 99.738352,61.327479 98.273217,64 95.428571,64 c -0.785714,0 -2.251597,0.823026 -3.257518,1.828947 -1.005921,1.005921 -4.204528,2.60596 -7.108016,3.555643 C 77.973681,71.703401 72.967632,74.998175 66.716791,81.459331 61.113771,87.250869 61.938578,87.017612 50,86.186868 Z m 85.0855,-5.793563 c -5.6414,-5.757919 -12.13155,-9.623877 -20.15817,-12.007527 -2.59566,-0.770829 -4.9525,-2.008983 -5.23741,-2.751453 -0.28491,-0.74247 -1.9067,-1.627681 -3.60397,-1.967135 C 103.28344,63.106689 103,62.698674 103,59.225 c 0,-2.10375 0.54,-4.365 1.2,-5.025 0.83587,-0.835875 6.1816,-1.2 17.61722,-1.2 h 16.41721 l 4.72117,4.75 c 8.24589,8.296252 15.36471,22.366945 13.61847,26.917567 -0.36724,0.957016 -2.70373,1.321112 -8.29269,1.292251 L 140.5,85.919637 Z M 73.764703,46.673596 c 1.734295,-1.279522 5.084221,-2.901384 7.44428,-3.604139 2.360059,-0.702754 5.324691,-1.680872 6.58807,-2.173596 C 89.060432,40.403137 92.097932,40 94.547053,40 H 99 V 44.5 49 H 84.80572 70.611441 Z m 29.629337,0.910877 c -0.29875,-0.77854 -0.39713,-2.69104 -0.21861,-4.25 0.27741,-2.422627 0.82478,-2.882091 3.7672,-3.162199 4.42386,-0.421134 14.35978,2.31796 19.80737,5.460413 2.3375,1.348391 4.25,2.657651 4.25,2.909467 C 131,48.793969 124.91088,49 117.46862,49 106.7221,49 103.82544,48.708673 103.39404,47.584473 Z" />
    </svg>
</svg>