<svg xmlns="http://www.w3.org/2000/svg" xmlns:xlink="http://www.w3.org/1999/xlink" width="0" height="0">
    <svg version="1.0" xmlns="http://www.w3.org/2000/svg" id="st_0" viewBox="0 0 120.000000 120.000000"
        preserveAspectRatio="xMidYMid meet">
        <g transform="translate(0.000000,120.000000) scale(0.100000,-0.100000)" stroke="none">
            <path d="M546 1151 c-3 -5 1 -14 9 -21 12 -10 15 -10 15 3 0 19 -16 31 -24 18z" />
            <path d="M450 1141 c0 -18 34 -51 52 -51 21 0 22 9 5 31 -15 20 -57 34 -57 20z" />
            <path d="M716 1121 c-5 -8 55 -51 72 -51 4 0 25 -22 46 -49 36 -46 66 -58 66
-27 0 14 -39 52 -84 82 -91 61 -91 61 -100 45z" />
            <path d="M380 1109 c0 -24 42 -79 61 -79 25 0 24 7 -7 52 -26 36 -54 51 -54
27z" />
            <path d="M621 1091 c-10 -7 -8 -12 10 -25 13 -9 28 -16 34 -16 5 0 23 -14 39
-30 16 -17 33 -30 38 -30 4 0 8 -6 8 -13 0 -16 38 -40 50 -32 18 11 10 28 -31
63 -43 37 -120 92 -129 92 -3 0 -11 -4 -19 -9z" />
            <path d="M300 1066 c0 -8 5 -18 10 -21 6 -3 10 -16 10 -28 0 -12 12 -35 26
-52 21 -24 27 -27 34 -15 14 22 12 41 -7 62 -9 10 -21 28 -27 40 -13 27 -46
37 -46 14z" />
            <path d="M536 1038 c-25 -14 -19 -26 19 -42 19 -8 55 -35 79 -60 46 -48 72
-57 83 -30 6 17 -72 98 -107 109 -11 3 -20 10 -20 15 0 12 -36 18 -54 8z" />
            <path d="M220 1001 c0 -5 4 -12 9 -15 5 -3 12 -22 15 -41 4 -20 16 -57 28 -83
l20 -47 15 40 c13 36 12 43 -3 70 -10 17 -20 32 -23 35 -3 3 -11 14 -17 25
-12 21 -44 33 -44 16z" />
            <path d="M460 970 c-23 -5 -26 -11 -21 -40 0 -5 14 -16 29 -24 16 -8 48 -31
71 -50 43 -36 84 -46 97 -24 5 7 -13 30 -44 59 -77 71 -103 87 -132 79z" />
            <path d="M140 918 c0 -6 7 -20 17 -30 14 -15 14 -22 3 -42 -11 -21 -9 -29 19
-70 18 -25 36 -46 40 -46 4 0 16 15 26 33 18 35 15 46 -28 102 -4 6 -16 22
-28 38 -21 27 -49 37 -49 15z" />
            <path d="M899 910 c-1 -3 -2 -29 -4 -59 -1 -38 -7 -56 -18 -63 -10 -5 -17 -14
-17 -20 0 -5 -13 -27 -30 -48 -16 -21 -30 -43 -30 -49 0 -22 37 -10 51 17 7
15 28 48 46 74 36 52 43 101 18 134 -8 10 -15 17 -16 14z" />
            <path d="M806 891 c-3 -4 -5 -24 -4 -44 1 -36 -29 -93 -75 -144 -22 -24 -18
-39 7 -30 16 6 83 106 99 148 16 41 -7 102 -27 70z" />
            <path d="M358 863 c-5 -55 17 -82 92 -117 45 -21 110 -25 110 -7 0 12 -92 102
-124 122 -40 24 -75 25 -78 2z" />
            <path d="M983 837 c1 -32 -4 -48 -21 -65 -13 -13 -30 -39 -38 -57 -7 -18 -18
-35 -22 -37 -16 -6 -25 -48 -10 -48 23 0 37 14 53 53 8 20 20 37 25 37 5 0 12
11 16 24 3 14 12 27 20 30 12 5 14 33 5 99 -1 4 -7 7 -15 7 -11 0 -14 -12 -13
-43z" />
            <path d="M733 853 c-7 -2 -13 -18 -13 -34 0 -20 -15 -48 -45 -86 -24 -31 -43
-59 -41 -60 10 -10 36 14 66 60 70 105 79 139 33 120z" />
            <path d="M1068 844 c-4 -3 -4 -20 -1 -38 3 -22 0 -36 -11 -45 -9 -7 -16 -22
-16 -31 0 -10 -3 -20 -7 -22 -12 -5 -73 -95 -73 -107 0 -22 39 -10 57 17 62
93 85 146 81 188 -3 35 -16 52 -30 38z" />
            <path d="M75 793 c15 -35 17 -61 6 -67 -18 -12 -12 -55 9 -68 11 -7 20 -20 20
-29 0 -9 9 -24 19 -34 19 -17 21 -16 40 16 27 44 26 80 -1 112 -13 15 -33 40
-46 57 -26 33 -59 42 -47 13z" />
            <path d="M288 756 c-41 -31 -6 -103 64 -131 40 -16 123 -23 135 -11 5 5 -51
82 -77 104 -19 16 -87 52 -97 52 -4 0 -16 -7 -25 -14z" />
            <path d="M1154 753 c4 -10 -4 -30 -24 -54 -16 -21 -30 -41 -30 -44 0 -4 -7
-13 -15 -21 -8 -9 -15 -24 -15 -34 0 -10 -4 -22 -10 -25 -18 -11 -11 -35 11
-35 12 0 23 8 26 20 3 11 9 20 14 20 5 0 9 8 9 19 0 10 16 38 35 62 36 46 44
76 23 97 -17 17 -31 15 -24 -5z" />
            <path d="M6 628 c4 -33 13 -59 25 -70 10 -9 19 -21 19 -27 0 -11 32 -31 49
-31 38 0 -30 144 -79 170 -20 11 -21 9 -14 -42z" />
            <path d="M218 619 c-22 -12 -23 -45 -4 -90 12 -28 22 -35 77 -51 113 -31 155
-20 95 25 -18 15 -36 37 -40 49 -3 14 -25 34 -56 51 -27 15 -51 27 -53 27 -1
0 -10 -5 -19 -11z" />
            <path d="M1175 600 c-3 -5 -1 -10 4 -10 6 0 11 5 11 10 0 6 -2 10 -4 10 -3 0
-8 -4 -11 -10z" />
            <path d="M146 524 c-10 -25 -7 -34 9 -34 8 0 15 9 15 19 0 26 -16 35 -24 15z" />
            <path d="M629 507 c-73 -38 -102 -132 -87 -281 10 -99 16 -121 41 -149 32 -36
58 -46 121 -48 66 -2 99 16 132 75 45 80 38 284 -12 355 -46 64 -125 84 -195
48z m133 -56 l33 -29 0 -147 0 -147 -33 -29 c-55 -49 -117 -33 -147 38 -21 49
-20 205 1 266 27 81 87 101 146 48z" />
            <path d="M146 442 c-3 -5 7 -18 22 -27 15 -10 52 -44 82 -77 41 -44 60 -58 73
-53 21 9 22 24 2 32 -9 3 -26 20 -38 38 -42 62 -125 113 -141 87z" />
        </g>
    </svg>
    <svg version="1.0" xmlns="http://www.w3.org/2000/svg" id="st_0_1" viewBox="0 0 120.000000 120.000000"
        preserveAspectRatio="xMidYMid meet">
        <g transform="translate(0.000000,120.000000) scale(0.100000,-0.100000)" stroke="none">
            <path d="M450 1083 c-61 -32 -78 -47 -107 -94 -45 -75 -59 -161 -36 -239 13
-46 27 -67 90 -128 l75 -73 -11 -87 c-7 -48 -16 -114 -21 -147 -5 -33 -12 -95
-16 -137 l-6 -78 146 -2 c80 -1 158 -2 174 -2 27 -1 27 0 25 54 -2 30 -10 84
-18 120 -38 170 -55 268 -50 281 3 8 23 26 45 39 22 14 40 28 40 31 0 3 13 22
30 40 16 19 30 43 30 55 0 11 4 24 10 30 13 13 15 132 3 177 -32 112 -153 197
-283 197 -37 0 -66 -9 -120 -37z m234 -138 c45 -22 126 -102 126 -126 0 -24
-68 -98 -112 -120 -49 -25 -157 -29 -209 -7 -35 16 -139 114 -139 132 0 25 56
86 102 111 86 47 150 49 232 10z" />
            <path d="M542 874 c-32 -22 -30 -76 3 -103 22 -16 31 -18 56 -9 61 21 71 86
18 113 -36 19 -49 19 -77 -1z" />
        </g>
    </svg>
    <svg version="1.0" xmlns="http://www.w3.org/2000/svg" id="st_0_1_1" viewBox="0 0 120.000000 120.000000"
        preserveAspectRatio="xMidYMid meet">
        <g transform="translate(0.000000,120.000000) scale(0.100000,-0.100000)" stroke="none">
            <path d="M572 1178 c-46 -12 -71 -37 -83 -80 -14 -54 1 -81 123 -210 58 -62
127 -135 151 -163 25 -27 47 -48 49 -45 2 3 10 18 18 35 9 16 31 40 50 53 31
21 44 23 103 19 37 -2 67 -3 67 -1 0 1 -82 86 -183 188 -197 199 -229 222
-295 204z" />
            <path d="M465 862 c-27 -15 -56 -33 -63 -40 -8 -7 -27 -21 -41 -30 -110 -68
-211 -174 -260 -271 l-23 -44 49 -49 c258 -263 344 -348 353 -348 5 0 10 10
10 21 0 12 16 54 35 93 28 58 46 80 99 121 62 48 159 105 178 105 5 0 35 13
66 28 32 16 69 32 84 35 58 15 106 88 101 155 0 6 -1 21 -2 32 -2 34 -37 60
-81 60 -78 0 -113 -47 -85 -114 8 -20 12 -36 8 -37 -5 0 -18 -2 -30 -3 -16 -2
-61 37 -179 156 -87 87 -160 158 -163 158 -3 0 -28 -13 -56 -28z" />
            <path d="M620 219 c-39 -16 -89 -70 -96 -103 -12 -65 30 -109 86 -91 34 11 90
65 105 102 13 30 13 39 0 69 -11 28 -19 34 -42 33 -15 0 -39 -5 -53 -10z" />
        </g>
    </svg>
    <svg version="1.0" xmlns="http://www.w3.org/2000/svg" id="st_0_2" viewBox="0 0 120.000000 120.000000"
        preserveAspectRatio="xMidYMid meet">
        <g transform="translate(0.000000,120.000000) scale(0.100000,-0.100000)" stroke="none">
            <path d="M278 861 c-2 -53 -3 -98 -1 -100 1 -2 17 -6 35 -10 l33 -7 0 -139 0
-140 -36 -23 -36 -24 1 -76 1 -77 125 -2 c156 -1 170 1 170 30 0 34 28 67 55
67 28 0 60 -41 52 -65 -4 -8 -1 -17 4 -21 6 -3 72 -6 147 -7 l137 -1 3 76 3
76 -34 20 c-32 18 -35 24 -41 85 -9 84 -5 208 7 225 5 6 23 12 39 12 l29 0 -3
98 -3 97 -70 0 -70 0 2 -31 c4 -44 -16 -57 -71 -49 -43 7 -45 9 -48 44 l-3 36
-80 0 -80 0 -3 -37 c-3 -31 -7 -37 -30 -42 -15 -3 -38 -4 -52 -3 -21 2 -25 8
-28 39 -4 43 -13 48 -94 46 l-56 -2 -4 -95z m513 -113 c2 -18 3 -79 1 -135
l-3 -102 -37 -7 c-20 -4 -54 -15 -74 -25 -39 -20 -78 -24 -94 -11 -5 5 -35 17
-66 27 l-58 19 0 51 c0 27 -3 87 -7 133 l-6 82 170 0 171 0 3 -32z" />
            <path d="M588 718 c-2 -17 -12 -24 -33 -28 -16 -3 -30 -11 -29 -18 1 -6 2 -21
3 -31 1 -14 10 -21 29 -23 23 -3 27 -7 25 -33 -3 -61 4 -75 42 -75 l35 0 0 55
c0 52 1 55 25 55 20 0 25 5 25 24 0 13 -7 29 -15 36 -8 7 -15 9 -15 5 0 -4 -7
-2 -15 5 -8 6 -14 15 -13 18 3 24 -6 32 -31 32 -23 0 -30 -5 -33 -22z" />
        </g>
    </svg>
    <svg version="1.0" xmlns="http://www.w3.org/2000/svg" id="st_0_3" viewBox="0 0 120.000000 120.000000"
        preserveAspectRatio="xMidYMid meet">
        <g transform="translate(0.000000,120.000000) scale(0.100000,-0.100000)" stroke="none">
            <path d="M826 1010 c-14 -22 -26 -43 -26 -47 0 -10 220 -223 230 -223 9 0 60
65 60 76 0 10 -222 234 -231 234 -4 0 -18 -18 -33 -40z" />
            <path d="M779 833 c-19 -21 -51 -58 -71 -83 -20 -25 -59 -70 -87 -100 -28 -30
-51 -58 -51 -62 0 -4 39 -4 88 -1 97 7 102 9 211 126 l55 58 -49 49 c-27 28
-52 50 -55 50 -3 0 -22 -17 -41 -37z" />
            <path d="M558 533 c-29 -4 -153 -131 -193 -197 -11 -18 -33 -52 -49 -75 -34
-49 -25 -75 15 -40 13 12 49 39 80 60 59 39 259 233 259 250 0 9 -59 10 -112
2z" />
        </g>
    </svg>
    <svg version="1.0" xmlns="http://www.w3.org/2000/svg" id="st_0_4" viewBox="0 0 120.000000 120.000000"
        preserveAspectRatio="xMidYMid meet">
        <g transform="translate(0.000000,120.000000) scale(0.100000,-0.100000)" stroke="none">
            <path d="M550 1068 c-101 -7 -161 -29 -196 -71 -20 -24 -24 -37 -20 -61 12
-61 100 -97 251 -102 167 -5 296 26 325 81 20 37 -13 94 -71 122 -57 27 -176
40 -289 31z m146 -27 c83 -10 149 -34 158 -58 26 -68 -147 -122 -314 -98 -71
10 -131 33 -145 55 -13 20 7 49 47 70 33 17 87 30 163 39 6 0 46 -3 91 -8z" />
            <path d="M330 772 c0 -113 12 -131 107 -160 85 -26 145 -31 236 -21 135 15
177 28 225 72 19 18 22 30 22 104 0 66 -3 83 -14 83 -8 0 -18 -4 -21 -10 -7
-11 -55 -34 -109 -51 -22 -6 -92 -12 -155 -12 -131 -1 -210 17 -260 59 l-31
26 0 -90z" />
            <path d="M398 563 c-2 -5 -1 -95 2 -202 l5 -194 60 -15 c73 -17 290 -11 350 9
l40 14 -2 194 c-2 107 -5 196 -7 198 -2 2 -28 -3 -57 -11 -98 -27 -214 -29
-303 -6 -92 23 -84 22 -88 13z" />
        </g>
    </svg>
    <svg version="1.0" xmlns="http://www.w3.org/2000/svg" id="st_1" viewBox="0 0 120.000000 120.000000"
        preserveAspectRatio="xMidYMid meet">
        <g transform="translate(0.000000,120.000000) scale(0.050000,-0.050000)" stroke="none">
            <path d="M920 2280 c0 -26 74 -100 100 -100 33 0 23 51 -17 87 -40 37 -83 44
-83 13z" />
            <path d="M754 2225 c6 -19 23 -48 36 -65 13 -16 30 -46 36 -65 14 -39 84 -47
105 -13 8 12 -21 57 -63 100 -80 82 -136 103 -114 43z" />
            <path d="M1420 2242 c0 -10 34 -32 75 -49 88 -37 196 -132 214 -189 15 -48 54
-67 92 -43 44 27 -8 97 -152 204 -116 86 -229 124 -229 77z" />
            <path d="M1220 2184 c0 -9 38 -38 85 -64 47 -26 121 -87 165 -134 76 -81 153
-110 178 -69 13 21 -105 130 -235 218 -90 60 -193 87 -193 49z" />
            <path d="M580 2152 c0 -15 14 -38 30 -52 17 -14 30 -41 30 -61 0 -48 64 -159
93 -159 28 0 45 82 26 132 -35 94 -179 207 -179 140z" />
            <path d="M1053 2087 c-31 -32 -8 -63 72 -96 47 -20 112 -70 145 -112 62 -80
190 -115 190 -52 0 88 -353 313 -407 260z" />
            <path d="M451 2022 c-6 -10 -2 -42 8 -70 11 -28 15 -65 8 -82 -6 -17 0 -44 13
-60 14 -17 41 -59 59 -94 50 -93 74 -89 88 12 16 120 -131 366 -176 294z" />
            <path d="M871 1915 c-34 -48 -3 -95 62 -95 14 0 66 -40 115 -89 71 -71 100
-87 145 -81 31 4 64 8 72 9 59 5 -60 146 -198 234 -124 79 -154 82 -196 22z" />
            <path d="M280 1831 c0 -17 11 -49 24 -70 18 -29 18 -50 1 -89 -21 -44 -15 -63
48 -156 79 -118 107 -139 107 -79 0 22 15 66 33 98 33 57 33 60 -43 177 -43
65 -78 119 -79 121 -12 24 -91 23 -91 -2z" />
            <path d="M1791 1802 c-6 -10 -3 -40 7 -67 20 -53 -75 -250 -157 -324 -59 -54
-56 -117 4 -89 55 25 235 323 235 388 0 65 -64 131 -89 92z" />
            <path d="M1614 1785 c-5 -8 -2 -33 6 -55 18 -50 -7 -108 -115 -264 -101 -147
-103 -154 -25 -110 33 19 60 50 60 69 0 19 9 35 20 35 12 0 29 20 39 45 10 25
37 72 60 105 54 80 56 190 2 190 -21 0 -43 -7 -47 -15z" />
            <path d="M735 1752 c-56 -43 -45 -140 20 -174 30 -15 60 -35 66 -43 48 -64
299 -109 299 -54 0 43 -312 310 -348 298 -1 0 -18 -12 -37 -27z" />
            <path d="M1975 1748 c-6 -6 -4 -36 4 -66 10 -33 7 -67 -6 -86 -13 -18 -36 -52
-53 -76 -16 -25 -60 -85 -97 -133 -73 -97 -76 -172 -5 -122 40 27 162 199 214
299 38 73 36 169 -4 184 -38 15 -39 15 -53 0z" />
            <path d="M1465 1707 c-14 -6 -25 -35 -25 -64 0 -30 -31 -102 -70 -160 -76
-116 -79 -123 -51 -123 10 0 52 56 93 125 41 69 87 140 103 159 43 50 13 88
-50 63z" />
            <path d="M2148 1672 c-7 -18 -1 -47 13 -64 16 -19 19 -36 7 -45 -32 -22 -168
-232 -168 -258 0 -14 -8 -25 -18 -25 -27 0 -46 -64 -25 -85 37 -37 94 7 143
110 27 58 54 110 61 115 23 19 79 146 79 180 0 55 -76 115 -92 72z" />
            <path d="M130 1605 c29 -75 34 -166 11 -194 -27 -33 64 -221 116 -241 36 -14
83 25 83 68 0 19 10 44 23 57 24 24 -12 145 -43 145 -8 0 -26 27 -40 61 -25
60 -107 139 -145 139 -11 0 -13 -16 -5 -35z" />
            <path d="M2320 1515 c0 -42 -15 -87 -35 -107 -33 -33 -67 -84 -98 -148 -8 -16
-27 -42 -41 -56 -27 -28 -35 -108 -13 -130 16 -16 87 22 87 47 0 11 23 56 51
101 142 225 154 269 89 328 -39 36 -40 35 -40 -35z" />
            <path d="M595 1519 c-50 -30 -82 -97 -59 -125 11 -13 23 -41 27 -61 17 -86
397 -180 397 -98 0 36 -166 225 -197 225 -9 0 -38 18 -63 40 -52 45 -57 46
-105 19z" />
            <path d="M6 1245 c7 -104 17 -125 91 -202 140 -145 169 -58 48 147 -111 188
-148 203 -139 55z" />
            <path d="M399 1195 c-34 -75 17 -200 91 -222 33 -10 90 -30 126 -45 164 -70
251 -22 144 79 -33 31 -60 64 -60 74 0 32 -186 159 -233 159 -30 0 -55 -17
-68 -45z" />
            <path d="M291 1053 c-6 -18 -15 -47 -21 -64 -7 -22 1 -30 25 -25 41 8 58 71
28 101 -15 15 -25 12 -32 -12z" />
            <path d="M1284 1044 c-97 -6 -106 -10 -100 -50 5 -36 17 -43 69 -38 89 9 91 3
88 -411 -3 -405 -3 -404 -116 -405 -52 0 -65 -8 -65 -40 0 -38 13 -40 241 -40
220 0 241 3 235 35 -4 24 -31 38 -86 45 l-80 10 -5 443 c-6 500 9 462 -181
451z" />
            <path d="M288 877 c-16 -27 299 -337 343 -337 41 0 36 53 -8 84 -20 14 -51 53
-68 86 -47 92 -239 212 -267 167z" />
        </g>
    </svg>
    <svg version="1.0" xmlns="http://www.w3.org/2000/svg" id="st_1_1" viewBox="0 0 120.000000 120.000000"
        preserveAspectRatio="xMidYMid meet">
        <g transform="translate(0.000000,120.000000) scale(0.100000,-0.100000)" stroke="none">
            <path d="M565 1051 c-88 -16 -167 -77 -206 -159 -26 -57 -36 -174 -19 -227 28
-86 104 -166 191 -203 l44 -19 0 -164 0 -164 36 -9 c69 -17 69 -16 69 167 l0
164 58 26 c31 13 70 38 85 55 16 17 37 39 46 50 46 50 67 203 37 273 -28 64
-102 145 -163 178 -63 34 -115 44 -178 32z m179 -102 c74 -50 94 -84 103 -174
4 -40 1 -81 -7 -109 -14 -52 -67 -110 -120 -133 -42 -17 -151 -19 -182 -2 -32
17 -118 110 -118 129 -1 8 -7 32 -14 53 -12 32 -12 47 1 102 13 57 20 70 69
114 61 56 74 60 163 53 48 -4 75 -12 105 -33z" />
            <path d="M545 889 c-14 -17 -24 -37 -22 -43 6 -20 46 -18 73 3 34 27 49 26 68
-1 14 -20 13 -24 -24 -71 -36 -44 -50 -84 -35 -99 9 -9 55 4 55 16 0 6 14 29
30 50 32 43 40 99 19 139 -17 32 -28 37 -86 37 -45 0 -54 -4 -78 -31z" />
            <path d="M597 623 c-4 -3 -7 -16 -7 -29 0 -15 8 -24 25 -28 35 -9 45 -1 45 35
0 25 -4 29 -28 29 -16 0 -32 -3 -35 -7z" />
        </g>
    </svg>
    <svg version="1.0" xmlns="http://www.w3.org/2000/svg" id="st_1_2" viewBox="0 0 120.000000 120.000000"
        preserveAspectRatio="xMidYMid meet">
        <g transform="translate(0.000000,120.000000) scale(0.100000,-0.100000)" stroke="none">
            <path d="M822 988 l-102 -101 0 -54 c0 -29 4 -53 8 -53 4 0 52 43 105 95 54
52 100 95 104 95 3 0 49 -45 103 -100 53 -55 99 -100 102 -100 3 0 4 27 3 61
l-2 60 -99 100 c-54 54 -103 99 -109 99 -6 0 -56 -46 -113 -102z" />
            <path d="M335 925 c-10 -31 -20 -54 -58 -135 -20 -41 -43 -99 -52 -128 -10
-29 -27 -67 -40 -85 -19 -28 -27 -32 -62 -30 l-40 2 2 -62 c2 -57 4 -62 26
-65 13 -2 35 -14 49 -27 20 -19 116 -65 135 -65 18 0 -2 22 -39 44 -24 14 -46
33 -50 41 -6 17 11 103 25 120 4 6 28 62 53 125 44 112 69 144 82 103 3 -10
10 -26 15 -35 5 -10 9 -23 9 -30 0 -7 20 -58 45 -113 29 -65 45 -113 45 -140
0 -38 -3 -42 -53 -70 -40 -23 -47 -31 -32 -33 29 -4 110 34 133 62 10 13 27
25 38 28 13 2 20 13 21 33 1 17 4 41 5 55 3 23 0 25 -30 22 -37 -4 -72 20 -72
48 0 10 -7 23 -15 30 -8 7 -15 21 -15 32 0 11 -6 32 -14 46 -8 15 -22 47 -31
72 -9 25 -23 60 -31 78 -8 18 -14 38 -14 45 0 7 -6 22 -14 33 -14 19 -15 19
-21 -1z" />
            <path d="M829 728 c-92 -92 -102 -106 -107 -144 -2 -24 -2 -50 2 -59 5 -14 11
-12 36 13 16 17 30 34 30 39 0 5 13 16 29 26 15 9 45 35 65 57 20 22 40 40 46
40 5 0 51 -43 103 -95 51 -52 96 -95 100 -95 4 0 7 25 7 56 l0 57 -90 90 c-49
49 -90 93 -90 97 0 4 -6 10 -14 13 -9 4 -53 -33 -117 -95z" />
            <path d="M875 508 c-23 -24 -66 -67 -98 -96 l-57 -53 0 -60 c0 -32 3 -59 8
-59 4 0 27 24 52 53 25 28 68 74 97 100 l52 49 100 -104 c111 -114 127 -119
114 -30 -7 47 -15 58 -102 146 -51 53 -101 96 -110 96 -9 0 -34 -19 -56 -42z" />
        </g>
    </svg>
    <svg version="1.0" xmlns="http://www.w3.org/2000/svg" id="st_1_3" viewBox="0 0 120.000000 120.000000"
        preserveAspectRatio="xMidYMid meet">
        <g transform="translate(0.000000,120.000000) scale(0.100000,-0.100000)" stroke="none">
            <path d="M392 1047 l-72 -72 0 -87 c0 -85 1 -89 30 -115 34 -30 37 -45 15 -63
-11 -9 -15 -27 -13 -54 3 -39 4 -41 38 -42 82 -3 80 -2 80 -33 0 -56 1 -56
128 -54 l117 2 3 39 c3 37 5 40 40 46 20 3 47 3 60 0 15 -4 22 -2 23 7 3 33
-4 66 -18 90 -15 25 -14 27 21 62 36 36 36 37 36 119 l0 84 -73 72 -72 72
-135 0 -135 -1 -73 -72z m166 -293 c6 -77 -64 -120 -115 -72 -29 27 -29 63 0
94 18 20 30 24 67 22 l45 -3 3 -41z m189 24 c45 -42 20 -118 -38 -118 -53 0
-102 93 -67 128 20 20 79 14 105 -10z" />
            <path d="M75 689 c36 -60 106 -153 152 -200 50 -52 58 -56 104 -58 33 -1 49 3
49 11 0 18 -159 169 -223 211 -67 45 -94 57 -82 36z" />
            <path d="M1052 661 c-64 -44 -234 -209 -227 -221 3 -5 25 -10 47 -10 36 0 47
6 82 43 60 62 116 132 116 145 0 6 7 15 16 20 9 5 14 18 12 30 -3 21 -4 21
-46 -7z" />
            <path d="M300 387 c0 -7 8 -20 18 -28 23 -21 92 -97 92 -102 0 -10 85 -97 94
-97 6 0 30 19 54 41 42 41 43 41 65 23 12 -11 30 -29 40 -41 10 -13 24 -23 31
-23 10 0 72 66 132 139 10 13 29 33 42 44 12 11 22 29 22 39 0 15 -9 18 -63
18 l-63 0 -80 -75 c-43 -41 -82 -75 -85 -75 -4 0 -41 34 -84 75 l-77 75 -69 0
c-49 0 -69 -4 -69 -13z" />
            <path d="M557 152 c-15 -15 -27 -33 -27 -39 0 -13 60 -63 75 -63 13 0 65 52
65 65 0 12 -61 65 -75 65 -6 0 -23 -13 -38 -28z" />
        </g>
    </svg>
    <svg version="1.0" xmlns="http://www.w3.org/2000/svg" id="st_2" viewBox="0 0 120.000000 120.000000"
        preserveAspectRatio="xMidYMid meet">
        <g transform="translate(0.000000,120.000000) scale(0.050000,-0.050000)" stroke="none">
            <path d="M1065 2296 c11 -34 71 -67 89 -49 9 9 -2 29 -23 45 -47 34 -77 36
-66 4z" />
            <path d="M900 2273 c0 -47 97 -124 124 -97 18 18 12 35 -24 74 -51 54 -100 66
-100 23z" />
            <path d="M740 2235 c1 -63 92 -185 139 -185 73 0 68 32 -17 125 -77 85 -122
107 -122 60z" />
            <path d="M1410 2240 c-7 -11 4 -26 24 -33 72 -26 228 -153 257 -209 31 -60 95
-78 121 -34 16 26 -103 140 -247 237 -91 62 -134 73 -155 39z" />
            <path d="M1220 2162 c0 -10 39 -41 87 -69 47 -28 123 -88 167 -134 63 -65 90
-80 123 -70 74 23 48 65 -111 180 -143 103 -266 146 -266 93z" />
            <path d="M591 2141 c-6 -10 -3 -24 9 -31 11 -7 20 -32 21 -56 1 -54 83 -200
109 -196 56 8 51 143 -8 206 -18 19 -44 48 -58 65 -29 35 -56 40 -73 12z" />
            <path d="M1055 2078 c-53 -31 -43 -54 40 -89 41 -17 113 -71 159 -120 80 -85
170 -111 217 -64 15 15 -124 149 -214 207 -41 25 -79 56 -86 67 -17 26 -70 26
-116 -1z" />
            <path d="M451 1965 c8 -30 13 -76 12 -102 -2 -27 29 -91 69 -145 77 -106 93
-117 86 -63 -3 19 1 64 10 100 13 56 5 78 -61 164 -87 113 -140 134 -116 46z" />
            <path d="M873 1927 c-35 -36 -4 -88 88 -147 55 -36 113 -84 129 -107 31 -43
159 -52 198 -13 18 18 -140 200 -174 200 -10 0 -41 18 -69 40 -49 39 -145 54
-172 27z" />
            <path d="M280 1821 c0 -21 10 -45 22 -52 14 -9 18 -43 10 -91 -11 -66 -2 -93
53 -178 69 -105 95 -123 95 -65 0 19 14 61 30 92 34 65 39 113 11 113 -10 0
-23 16 -30 35 -31 97 -191 219 -191 146z" />
            <path d="M1645 1806 c-14 -5 -25 -42 -26 -83 -1 -79 -35 -155 -127 -283 -58
-81 -62 -111 -10 -89 33 13 178 230 178 265 0 13 9 24 20 24 23 0 28 153 5
166 -8 5 -26 5 -40 0z" />
            <path d="M1790 1735 c11 -71 5 -98 -38 -161 -29 -42 -52 -84 -52 -95 0 -10 -9
-19 -19 -19 -21 0 -81 -103 -81 -139 0 -74 104 26 208 202 80 133 91 214 35
264 -56 51 -67 40 -53 -52z" />
            <path d="M1967 1703 c8 -47 5 -86 -7 -93 -11 -7 -20 -29 -20 -50 0 -20 -8 -40
-18 -43 -34 -13 -164 -224 -154 -250 42 -108 314 301 284 424 -24 95 -100 107
-85 12z" />
            <path d="M724 1736 c-91 -91 104 -283 287 -283 133 0 143 21 56 111 -157 162
-287 228 -343 172z" />
            <path d="M1465 1707 c-14 -6 -25 -31 -25 -56 0 -50 -26 -107 -92 -201 -78
-113 -82 -124 -27 -88 59 40 227 309 209 338 -13 21 -25 23 -65 7z" />
            <path d="M2153 1687 c-7 -8 -13 -48 -13 -90 0 -50 -14 -91 -40 -117 -22 -22
-40 -53 -40 -70 0 -16 -8 -30 -18 -30 -24 0 -102 -133 -102 -173 0 -24 13 -28
55 -18 56 15 84 43 85 86 0 14 8 25 18 25 11 0 25 27 32 60 7 33 21 60 32 60
10 0 18 12 18 28 0 15 14 38 30 52 39 33 38 129 -1 169 -36 35 -38 36 -56 18z" />
            <path d="M115 1628 c-6 -6 3 -37 22 -68 27 -49 29 -68 8 -123 -24 -64 79 -277
135 -277 30 0 100 114 100 165 0 99 -219 350 -265 303z" />
            <path d="M2314 1510 c-6 -39 -37 -105 -68 -146 -120 -158 -162 -284 -96 -284
36 0 110 70 110 105 0 14 32 72 70 129 78 117 88 184 33 234 -36 32 -38 30
-49 -38z" />
            <path d="M610 1524 c-73 -16 -91 -92 -45 -190 40 -85 435 -179 435 -103 0 64
-324 308 -390 293z" />
            <path d="M9 1298 c7 -37 13 -91 13 -120 0 -58 132 -198 186 -198 79 0 -50 271
-168 354 -45 32 -45 32 -31 -36z" />
            <path d="M404 1209 c-75 -85 7 -201 188 -266 163 -57 330 -28 209 36 -21 12
-51 46 -65 76 -57 120 -274 220 -332 154z" />
            <path d="M292 1048 c-20 -53 -14 -88 17 -88 15 0 34 18 41 40 22 68 -33 114
-58 48z" />
            <path d="M1226 1006 c-73 -10 -123 -57 -92 -88 13 -13 49 -13 108 1 423 97
461 -160 83 -551 -305 -315 -307 -308 95 -308 307 0 320 2 320 40 0 38 -13 40
-220 40 -260 0 -258 -4 -84 172 451 458 358 765 -210 694z" />
            <path d="M280 885 c0 -29 331 -325 364 -325 52 0 62 35 16 60 -22 12 -62 56
-89 98 -65 103 -291 233 -291 167z" />
        </g>
    </svg>
    <svg version="1.0" xmlns="http://www.w3.org/2000/svg" id="st_2_1" viewBox="0 0 120.000000 120.000000"
        preserveAspectRatio="xMidYMid meet">
        <g transform="translate(0.000000,120.000000) scale(0.100000,-0.100000)" stroke="none">
            <path d="M460 1060 c-8 -5 -82 -74 -165 -155 l-150 -145 28 -25 c31 -30 33
-38 12 -55 -8 -7 -15 -27 -15 -46 l0 -33 57 -3 58 -3 -2 -38 -2 -38 117 3 117
3 0 35 0 35 55 5 c51 5 55 7 58 33 2 16 -4 39 -13 53 -16 24 -15 26 14 60 29
32 31 40 31 110 l0 75 -68 69 c-69 70 -96 82 -132 60z m78 -306 c45 -31 18
-114 -38 -114 -50 0 -84 114 -37 123 42 8 53 7 75 -9z m-173 -15 c10 -31 -38
-99 -71 -99 -34 0 -54 22 -54 59 0 38 31 61 82 61 28 0 38 -5 43 -21z" />
            <path d="M944 933 c-4 -10 -20 -46 -35 -81 -43 -93 -45 -109 -19 -117 29 -9
40 4 75 89 22 52 26 74 19 94 -11 32 -32 40 -40 15z" />
            <path d="M775 700 c-7 -12 15 -81 28 -85 66 -20 86 -16 132 26 25 23 42 45 38
49 -11 10 -192 19 -198 10z" />
            <path d="M708 561 c-26 -10 -62 -31 -80 -46 -32 -27 -77 -97 -78 -123 -1 -28
-84 -147 -137 -196 -38 -34 -41 -52 -13 -61 21 -7 70 17 70 34 0 4 11 13 23
18 22 10 23 9 19 -13 -2 -13 -2 -24 0 -24 3 0 24 19 48 42 51 50 68 36 21 -18
-50 -56 -45 -59 87 -56 192 4 195 5 237 64 20 27 39 57 42 66 3 10 12 24 18
32 7 8 17 41 22 72 13 77 -3 138 -48 187 -34 35 -38 37 -110 39 -53 1 -87 -4
-121 -17z" />
        </g>
    </svg>
    <svg version="1.0" xmlns="http://www.w3.org/2000/svg" id="st_2_2" viewBox="0 0 120.000000 120.000000"
        preserveAspectRatio="xMidYMid meet">
        <g transform="translate(0.000000,120.000000) scale(0.050000,-0.050000)" stroke="none">
            <path d="M845 2386 c-14 -5 -68 -54 -120 -108 -52 -54 -174 -179 -270 -277
-217 -222 -235 -358 -74 -552 44 -53 3 -54 -42 -2 -53 61 -101 46 -148 -45
-85 -165 135 -415 294 -333 l48 25 -9 -185 c-18 -387 135 -581 451 -575 136 2
145 -1 146 -41 2 -71 91 -283 122 -289 16 -3 154 122 308 277 515 522 659 663
704 693 168 113 -139 346 -456 346 -258 0 -405 -79 -574 -307 -38 -52 -45 -55
-45 -21 0 67 264 336 377 385 151 65 348 60 458 -12 198 -130 106 221 -99 375
-118 90 -348 88 -412 -3 -37 -53 -83 -46 -153 22 -177 171 -659 129 -731 -64
-11 -30 -30 -83 -43 -116 -40 -107 -65 -36 -30 85 58 197 166 263 442 266 210
3 225 11 203 99 -14 57 -127 131 -199 131 -60 0 -63 5 -29 59 41 66 -49 192
-119 167z m255 -914 c123 -45 105 -98 -27 -82 -155 20 -276 -25 -409 -150 -58
-55 -109 -100 -113 -100 -17 0 19 95 57 150 124 180 308 248 492 182z" />
            <path d="M1486 2030 c-118 -83 -70 -204 62 -157 45 16 102 24 127 18 64 -17
56 20 -22 100 -74 76 -104 83 -167 39z" />
        </g>
    </svg>
    <svg version="1.0" xmlns="http://www.w3.org/2000/svg" id="st_2_3" viewBox="0 0 120.000000 120.000000"
        preserveAspectRatio="xMidYMid meet">
        <g transform="translate(0.000000,120.000000) scale(0.100000,-0.100000)" stroke="none">
            <path d="M565 869 c-44 -39 -88 -75 -97 -80 -10 -5 -18 -14 -18 -19 0 -14 27
-12 59 5 40 20 45 8 15 -32 -14 -19 -24 -37 -21 -39 3 -3 29 2 58 10 56 17
109 21 109 9 0 -10 -54 -45 -97 -64 -39 -16 -42 -27 -10 -33 92 -19 131 -26
195 -36 106 -17 99 -28 -33 -50 -110 -17 -185 -34 -185 -40 0 -3 27 -22 60
-42 91 -56 77 -67 -48 -36 -48 12 -60 7 -38 -15 8 -8 18 -27 22 -43 l7 -28
-47 28 c-53 31 -75 26 -35 -7 76 -63 128 -109 162 -142 21 -20 41 -34 44 -31
3 3 -3 34 -15 68 -11 35 -17 67 -12 72 4 4 46 -6 92 -23 87 -33 95 -36 170
-70 52 -23 78 -27 78 -11 0 6 -4 10 -9 10 -10 0 -205 218 -209 234 -1 7 23 16
60 24 181 37 324 62 350 62 42 0 35 26 -9 33 -21 3 -81 13 -133 22 -52 9 -132
22 -178 29 -46 8 -89 19 -95 25 -8 8 9 31 64 88 150 156 159 168 143 171 -13
3 -109 -32 -201 -74 -63 -29 -117 -44 -125 -36 -4 4 -1 29 7 56 17 55 19 76 8
76 -5 0 -44 -32 -88 -71z" />
            <path d="M26 679 c-25 -19 -26 -25 -26 -108 0 -120 12 -134 118 -141 42 -3
107 -4 144 -2 l66 4 -14 47 c-16 54 -18 81 -4 81 6 0 10 -13 10 -29 0 -54 19
-89 52 -97 25 -5 34 -2 49 17 36 49 34 185 -4 227 -22 24 -56 29 -74 11 -8 -8
-13 -8 -17 0 -5 7 -55 11 -140 11 -120 0 -136 -2 -160 -21z m378 -45 c3 -9 6
-40 6 -69 0 -29 -3 -60 -6 -69 -8 -21 -30 -21 -38 0 -8 21 -8 139 1 147 11 12
31 7 37 -9z m-87 -21 c-4 -3 -7 0 -7 7 0 7 3 10 7 7 3 -4 3 -10 0 -14z" />
        </g>
    </svg>
    <svg version="1.0" xmlns="http://www.w3.org/2000/svg" id="st_2_4" viewBox="0 0 120.000000 120.000000"
        preserveAspectRatio="xMidYMid meet">
        <g transform="translate(0.000000,120.000000) scale(0.100000,-0.100000)" stroke="none">
            <path d="M535 1024 c-27 -8 -75 -22 -105 -30 -107 -30 -118 -41 -82 -80 38
-42 142 -115 172 -121 22 -4 41 -18 59 -44 14 -21 29 -38 33 -39 3 0 15 17 25
37 15 31 25 39 54 44 21 3 52 18 70 32 19 15 39 31 44 35 77 56 86 65 83 84
-4 26 -12 30 -124 62 -121 35 -169 39 -229 20z" />
            <path d="M242 862 c-6 -5 -23 -48 -37 -98 -14 -49 -29 -103 -35 -120 -12 -36
-13 -97 -2 -108 4 -4 19 -56 33 -114 l25 -107 36 -3 c30 -3 39 1 49 20 7 13
15 25 18 28 21 16 91 136 91 155 0 17 11 30 40 46 22 13 40 26 40 31 0 4 -18
17 -40 28 -30 15 -40 26 -40 44 0 27 -108 179 -139 195 -23 13 -23 13 -39 3z" />
            <path d="M952 863 c-29 -6 -142 -153 -142 -186 0 -27 -22 -51 -63 -66 -15 -6
-27 -14 -27 -18 0 -5 21 -21 46 -36 35 -21 45 -32 41 -47 -5 -19 5 -37 76
-135 37 -51 49 -60 78 -63 l35 -3 13 63 c7 35 17 74 21 88 23 69 30 127 21
170 -23 103 -66 242 -73 239 -2 -1 -13 -4 -26 -6z" />
            <path d="M579 443 c-28 -46 -37 -53 -68 -53 -14 0 -45 -17 -70 -38 -25 -21
-61 -48 -79 -61 -27 -19 -33 -29 -30 -54 3 -28 8 -31 68 -48 210 -59 204 -59
380 -11 91 25 105 32 108 51 4 27 -17 52 -78 94 -25 17 -54 39 -64 49 -11 10
-28 18 -39 18 -32 0 -58 20 -73 56 -8 19 -18 34 -23 34 -5 0 -20 -17 -32 -37z" />
        </g>
    </svg>
    <svg version="1.0" xmlns="http://www.w3.org/2000/svg" id="st_3" viewBox="0 0 120.000000 120.000000"
        preserveAspectRatio="xMidYMid meet">
        <g transform="translate(0.000000,120.000000) scale(0.050000,-0.050000)" stroke="none">
            <path d="M940 2238 c0 -23 79 -96 105 -97 29 -2 15 53 -22 86 -41 38 -83 43
-83 11z" />
            <path d="M1460 2220 c0 -10 35 -37 77 -59 43 -21 123 -86 180 -143 98 -101
173 -102 110 -2 -56 90 -367 262 -367 204z" />
            <path d="M760 2202 c0 -9 14 -28 30 -42 17 -14 30 -40 30 -58 0 -44 39 -82 83
-82 62 0 57 32 -17 117 -67 77 -126 107 -126 65z" />
            <path d="M1264 2163 c-26 -17 48 -83 92 -83 9 0 68 -49 130 -110 110 -108 159
-131 185 -88 17 27 -81 131 -161 173 -33 17 -85 52 -117 78 -60 50 -87 56
-129 30z" />
            <path d="M620 2111 c0 -88 114 -292 141 -251 31 49 22 97 -34 180 -43 66 -107
108 -107 71z" />
            <path d="M1105 2066 c-67 -13 -55 -60 26 -98 39 -18 112 -73 162 -122 86 -83
207 -111 207 -47 0 23 -195 201 -220 201 -12 0 -41 18 -65 40 -23 22 -48 39
-54 37 -6 -1 -31 -6 -56 -11z" />
            <path d="M449 1978 c-7 -12 -3 -32 9 -44 12 -12 22 -47 22 -78 0 -30 29 -102
64 -160 l65 -104 17 79 c26 115 27 110 -55 224 -76 107 -98 122 -122 83z" />
            <path d="M936 1926 c-65 -16 -70 -126 -5 -126 16 0 29 -10 29 -22 0 -13 17
-18 37 -13 22 6 46 -5 60 -28 13 -20 37 -37 53 -37 17 0 30 -18 30 -40 0 -43
145 -61 169 -21 33 52 -296 305 -373 287z" />
            <path d="M280 1791 c0 -16 10 -35 21 -42 14 -8 17 -43 8 -92 -10 -59 -5 -89
19 -115 18 -20 49 -70 69 -111 l37 -76 43 89 c57 117 55 126 -32 234 -122 151
-165 181 -165 113z" />
            <path d="M1657 1766 c-1 -20 -1 -70 2 -111 3 -44 -5 -75 -18 -75 -12 0 -31
-22 -41 -50 -10 -27 -28 -50 -40 -50 -11 0 -20 -12 -20 -27 0 -15 -18 -43 -40
-63 -47 -42 -51 -70 -12 -70 58 0 255 314 248 396 -6 79 -73 122 -79 50z" />
            <path d="M1836 1790 c-6 -7 -7 -49 -2 -96 7 -63 0 -95 -27 -127 -20 -24 -50
-63 -67 -88 -16 -24 -40 -54 -52 -67 -55 -58 -71 -112 -32 -112 44 0 124 80
124 124 0 18 14 37 30 43 17 7 30 24 30 40 0 15 14 40 31 54 22 18 29 54 25
126 -5 90 -30 132 -60 103z" />
            <path d="M2023 1669 c3 -64 -6 -102 -26 -117 -16 -12 -36 -35 -43 -52 -15 -31
-54 -92 -122 -188 -20 -29 -32 -58 -26 -64 72 -73 312 308 278 440 -26 100
-65 88 -61 -19z" />
            <path d="M741 1701 c-45 -83 21 -201 112 -201 15 0 27 -8 27 -17 0 -47 165
-78 248 -45 38 15 -142 222 -193 222 -10 0 -42 18 -70 40 -63 50 -98 51 -124
1z" />
            <path d="M1505 1687 c-14 -6 -25 -32 -25 -58 0 -26 -45 -106 -99 -178 -55 -72
-88 -131 -74 -131 39 0 253 302 253 357 0 24 -14 26 -55 10z" />
            <path d="M2200 1604 c0 -46 -13 -90 -30 -104 -16 -14 -30 -32 -30 -41 0 -9
-36 -70 -80 -137 -92 -138 -100 -171 -35 -151 54 17 38 -1 116 129 36 61 78
125 94 143 34 40 26 220 -10 232 -17 6 -25 -16 -25 -71z" />
            <path d="M128 1551 c36 -55 42 -142 12 -161 -34 -21 -22 -69 30 -126 28 -29
50 -64 50 -76 0 -85 79 -69 127 26 49 95 -25 266 -152 355 -72 50 -106 41 -67
-18z" />
            <path d="M2382 1550 c-4 -11 -5 -40 -3 -65 2 -27 -21 -70 -58 -107 -34 -34
-61 -82 -61 -110 0 -26 -9 -48 -20 -48 -25 0 -92 -135 -75 -152 28 -28 101 21
128 87 16 39 48 95 70 124 31 43 38 78 32 172 -4 66 -10 110 -13 99z" />
            <path d="M586 1495 c-46 -21 -49 -56 -17 -179 17 -63 200 -136 342 -136 113 0
117 12 32 101 -40 42 -82 87 -93 98 -26 28 -151 110 -190 124 -16 6 -50 2 -74
-8z" />
            <path d="M0 1204 c0 -112 160 -307 200 -244 33 52 22 102 -40 180 -33 42 -60
85 -60 97 0 20 -61 63 -89 63 -6 0 -11 -43 -11 -96z" />
            <path d="M432 1190 c-42 -32 -48 -122 -14 -187 24 -44 243 -123 340 -123 90 0
95 36 14 114 -39 39 -72 78 -72 86 0 13 -207 141 -225 139 -3 0 -22 -13 -43
-29z" />
            <path d="M291 1033 c-6 -18 -15 -47 -21 -64 -7 -22 1 -30 25 -25 41 8 58 71
28 101 -15 15 -25 12 -32 -12z" />
            <path d="M1184 1020 c-83 -19 -96 -32 -66 -67 17 -22 41 -24 98 -11 256 59
391 -13 343 -185 -28 -102 -75 -135 -216 -150 -168 -17 -189 -97 -23 -89 157
7 294 -105 272 -223 -26 -142 -180 -208 -368 -158 -92 25 -124 18 -124 -27 0
-71 369 -88 496 -22 141 73 158 301 31 412 -71 63 -72 63 -29 93 101 71 125
269 44 369 -55 68 -290 98 -458 58z" />
            <path d="M283 845 c23 -52 317 -305 354 -305 55 0 55 27 -2 74 -25 21 -55 55
-67 77 -48 85 -319 232 -285 154z" />
        </g>
    </svg>
    <svg version="1.0" xmlns="http://www.w3.org/2000/svg" id="st_3_1" viewBox="0 0 120.000000 120.000000"
        preserveAspectRatio="xMidYMid meet">
        <g transform="translate(0.000000,120.000000) scale(0.050000,-0.050000)" stroke="none">
            <path d="M1183 2095 c-13 -80 -37 -212 -52 -295 -15 -82 -41 -226 -58 -320
-37 -204 -76 -401 -85 -435 -13 -47 -59 -25 -178 87 -66 61 -130 117 -143 125
-13 7 -84 70 -159 140 -129 121 -178 137 -128 43 13 -24 44 -112 70 -196 26
-85 76 -237 112 -339 82 -236 83 -236 -238 -133 -149 48 -143 24 44 -169 154
-159 287 -310 340 -386 44 -63 67 -27 26 42 -19 31 -34 70 -34 87 0 16 -13 40
-30 54 -95 79 6 77 115 -2 107 -77 111 -61 46 183 -57 214 -58 219 -32 219 21
0 221 -293 221 -323 0 -9 11 -17 25 -17 23 0 99 276 148 535 6 36 19 65 28 65
17 0 21 -11 58 -170 13 -55 36 -149 52 -210 16 -60 31 -132 34 -158 9 -89 47
-65 153 98 169 256 181 220 59 -176 -29 -94 -8 -102 107 -38 125 70 134 61 69
-65 -74 -140 -48 -176 47 -66 199 230 316 364 364 415 96 103 79 109 -134 50
-173 -48 -190 -49 -190 -6 0 34 68 276 100 356 42 105 121 376 112 385 -5 5
-94 -65 -196 -157 -102 -92 -195 -174 -206 -183 -11 -9 -51 -43 -89 -76 -82
-71 -97 -73 -110 -14 -51 242 -78 382 -91 475 -9 61 -31 178 -49 260 -17 83
-40 212 -50 287 -25 192 -49 201 -78 28z" />
        </g>
    </svg>
    <svg version="1.0" xmlns="http://www.w3.org/2000/svg" id="st_3_2" viewBox="0 0 120.000000 120.000000"
        preserveAspectRatio="xMidYMid meet">
        <g transform="translate(0.000000,120.000000) scale(0.050000,-0.050000)" stroke="none">
            <path d="M307 1858 c7 -27 13 -105 13 -175 0 -141 -15 -119 255 -363 157 -141
171 -175 95 -221 -27 -16 -117 -96 -199 -177 l-149 -146 4 -171 c2 -99 13
-175 25 -179 22 -7 769 706 769 734 0 31 -750 718 -805 738 -13 4 -16 -11 -8
-40z" />
            <path d="M1819 1723 c-110 -218 -219 -323 -296 -284 -60 30 -326 105 -336 94
-6 -5 31 -60 82 -122 171 -211 181 -248 92 -350 -23 -26 -41 -55 -41 -65 0 -9
-37 -57 -83 -106 -109 -119 -42 -122 233 -9 90 36 148 39 174 8 14 -17 35 -41
46 -55 12 -13 55 -72 98 -130 105 -145 123 -130 117 100 -4 135 2 196 20 210
37 29 311 126 355 126 99 0 42 42 -135 100 -256 84 -245 71 -245 291 0 252
-23 307 -81 192z" />
            <path d="M60 1446 c0 -63 15 -87 100 -166 123 -114 123 -113 0 -226 -88 -82
-100 -102 -100 -173 0 -118 31 -105 242 102 l186 183 -72 62 c-40 34 -130 114
-201 177 -153 136 -155 136 -155 41z" />
        </g>
    </svg>
    <svg version="1.0" xmlns="http://www.w3.org/2000/svg" id="st_3_3" viewBox="0 0 120.000000 120.000000"
        preserveAspectRatio="xMidYMid meet">
        <g transform="translate(0.000000,120.000000) scale(0.050000,-0.050000)" stroke="none">
            <path d="M1259 2370 c-1 -11 -1 -150 1 -309 3 -328 -10 -302 198 -391 153 -66
618 -284 662 -311 224 -137 242 -119 64 65 -77 80 -211 221 -297 313 -380 404
-626 652 -628 633z" />
            <path d="M376 1570 c-182 -182 -326 -333 -319 -337 7 -4 265 -6 573 -5 l560 2
6 222 c6 249 12 237 -156 307 -60 26 -157 68 -214 94 -57 26 -107 47 -111 47
-3 0 -156 -149 -339 -330z" />
            <path d="M1264 1435 l6 -205 430 -10 c418 -10 518 -1 418 37 -27 10 -184 83
-348 163 -273 131 -475 220 -502 220 -5 0 -7 -92 -4 -205z" />
            <path d="M595 1145 c-550 -6 -582 -12 -470 -83 36 -23 191 -173 345 -334 154
-160 355 -370 448 -465 92 -95 181 -193 197 -218 16 -25 42 -45 58 -45 43 0
31 1149 -13 1150 -16 1 -271 -2 -565 -5z" />
        </g>
    </svg>
    <svg version="1.0" xmlns="http://www.w3.org/2000/svg" id="st_3_4" viewBox="0 0 120.000000 120.000000"
        preserveAspectRatio="xMidYMid meet">
        <g transform="translate(0.000000,120.000000) scale(0.050000,-0.050000)" stroke="none">
            <path d="M462 1978 c-48 -78 -62 -164 -68 -398 l-4 -170 70 -11 c137 -21 140
-17 140 210 0 191 -34 367 -81 419 -9 9 -35 -13 -57 -50z" />
            <path d="M1864 1922 c-38 -99 -45 -148 -40 -315 l6 -197 96 -6 96 -6 -8 226
c-15 392 -71 502 -150 298z" />
            <path d="M1184 1855 c-64 -77 -101 -251 -107 -505 l-7 -259 76 -13 c42 -6 98
-8 125 -3 l49 10 0 272 c0 240 -6 287 -47 388 -56 138 -61 144 -89 110z" />
            <path d="M376 1317 c-14 -9 -51 -17 -81 -17 -35 0 -55 -11 -55 -30 0 -25 41
-30 249 -30 237 0 339 24 217 51 -31 7 -69 18 -86 24 -48 18 -216 20 -244 2z" />
            <path d="M1735 1305 c-48 -5 -75 -18 -75 -36 0 -24 47 -29 262 -29 200 0 259
6 253 25 -15 44 -221 63 -440 40z" />
            <path d="M413 1167 c-16 -17 -17 -193 -1 -235 18 -47 162 -44 176 3 12 40 -1
197 -19 226 -13 22 -135 26 -156 6z" />
            <path d="M1850 1168 c-11 -4 -20 -60 -19 -123 l1 -115 78 0 77 0 2 110 c3 129
-41 170 -139 128z" />
            <path d="M1031 981 c-7 -11 -44 -21 -81 -21 -73 0 -107 -31 -73 -65 18 -18
288 -26 598 -17 97 3 80 49 -30 80 -128 36 -397 51 -414 23z" />
            <path d="M420 822 c0 -26 60 -45 103 -31 21 7 32 20 26 30 -15 24 -129 25
-129 1z" />
            <path d="M1865 815 c5 -14 29 -25 55 -25 26 0 50 11 55 25 5 16 -13 25 -55 25
-42 0 -60 -9 -55 -25z" />
            <path d="M1080 630 l0 -172 115 6 115 6 0 160 0 160 -115 6 -115 6 0 -172z" />
            <path d="M1114 367 c-27 -26 11 -47 87 -47 57 0 79 8 79 30 0 31 -138 45 -166
17z" />
        </g>
    </svg>
    <svg version="1.0" xmlns="http://www.w3.org/2000/svg" id="st_3_5" viewBox="0 0 120.000000 120.000000"
        preserveAspectRatio="xMidYMid meet">
        <g transform="translate(0.000000,120.000000) scale(0.050000,-0.050000)" stroke="none">
            <path d="M991 1930 c-26 -23 -80 -96 -221 -300 -54 -77 -103 -144 -111 -150
-7 -5 -67 -86 -134 -180 -66 -93 -139 -187 -163 -208 -51 -46 -55 -92 -7 -91
36 1 159 26 662 138 317 71 321 70 277 -23 -17 -36 -41 -106 -54 -156 -28
-110 -118 -343 -141 -368 -10 -11 -46 4 -87 35 -120 91 -132 78 -64 -71 26
-58 59 -141 75 -184 42 -120 39 -120 287 39 55 35 142 83 194 106 152 69 161
133 11 76 -143 -55 -147 -44 -41 110 40 59 83 125 95 147 27 49 215 336 230
350 12 11 148 207 206 296 54 83 82 143 73 153 -7 7 -428 -50 -733 -100 -123
-20 -110 4 110 201 107 96 191 180 185 186 -18 20 -625 15 -649 -6z" />
        </g>
    </svg>
    <svg version="1.0" xmlns="http://www.w3.org/2000/svg" id="st_3_5_1" viewBox="0 0 120.000000 120.000000"
        preserveAspectRatio="xMidYMid meet">
        <g transform="translate(0.000000,120.000000) scale(0.050000,-0.050000)" stroke="none">
            <path d="M684 2064 c-54 -41 -159 -129 -233 -197 l-135 -123 13 -197 c26 -410
23 -399 120 -444 95 -45 110 -77 111 -233 1 -363 12 -382 270 -477 44 -16 152
-57 240 -91 188 -72 198 -74 247 -25 20 20 117 108 215 194 98 87 210 189 248
228 39 39 133 120 208 180 l138 109 -14 277 c-18 364 -7 344 -243 438 -332
133 -356 143 -439 179 -157 67 -342 142 -494 199 l-154 57 -98 -74z m576 -170
c109 -29 121 -82 26 -116 -13 -4 -84 -67 -160 -139 -170 -163 -172 -164 -234
-136 -58 26 -64 51 -83 341 -16 251 -22 246 206 147 107 -46 218 -90 245 -97z
m-506 -167 l12 -259 -128 -104 c-70 -57 -144 -119 -163 -137 -48 -47 -50 -42
-74 191 -29 286 -28 296 32 347 30 25 104 92 165 149 140 129 142 127 156
-187z m990 -35 l266 -109 13 -176 c7 -98 19 -215 27 -262 19 -107 -14 -125
-134 -68 -176 83 -322 143 -345 143 -65 0 -87 70 -101 325 -8 140 -9 255 -3
255 5 0 130 -49 277 -108z m-357 3 c14 -50 18 -395 5 -395 -10 0 -318 144
-332 155 -14 11 266 282 293 284 12 0 28 -19 34 -44z m-717 -695 c7 -11 25
-20 41 -20 26 0 165 -55 249 -99 17 -8 30 -24 30 -35 0 -29 -311 -272 -327
-256 -15 16 -58 409 -45 421 15 15 39 10 52 -11z" />
        </g>
    </svg>
    <svg version="1.0" xmlns="http://www.w3.org/2000/svg" id="st_4" viewBox="0 0 120.000000 120.000000"
        preserveAspectRatio="xMidYMid meet">
        <g transform="translate(0.000000,120.000000) scale(0.050000,-0.050000)" stroke="none">
            <path d="M900 2263 c0 -32 83 -123 111 -123 41 0 36 45 -12 96 -40 44 -99 60
-99 27z" />
            <path d="M752 2224 c-13 -22 61 -173 100 -206 74 -61 95 28 27 113 -69 88
-111 118 -127 93z" />
            <path d="M1400 2205 c0 -9 44 -45 99 -80 54 -36 124 -101 155 -144 58 -83 77
-93 124 -63 22 15 21 27 -10 70 -83 116 -368 284 -368 217z" />
            <path d="M1200 2144 c0 -17 109 -104 131 -104 6 0 51 -40 98 -90 79 -82 191
-126 191 -74 0 20 -123 137 -233 221 -76 58 -187 86 -187 47z" />
            <path d="M600 2120 c0 -11 8 -36 19 -55 10 -19 24 -57 30 -85 18 -83 86 -156
111 -120 33 50 23 99 -41 191 -56 82 -119 118 -119 69z" />
            <path d="M1055 2046 c-54 -14 -43 -33 58 -106 50 -36 121 -98 156 -136 60 -66
171 -84 171 -29 0 27 -129 158 -218 222 -88 63 -101 67 -167 49z" />
            <path d="M474 1987 c-44 -44 77 -368 126 -337 26 16 49 152 28 167 -22 16 -62
79 -88 138 -19 45 -42 56 -66 32z" />
            <path d="M881 1891 c-36 -43 -18 -90 49 -127 33 -19 88 -64 122 -101 58 -62
69 -66 145 -53 109 18 107 24 -59 178 -145 134 -210 160 -257 103z" />
            <path d="M300 1801 c0 -12 11 -39 25 -61 20 -32 20 -48 -1 -81 -22 -35 -16
-56 41 -159 66 -121 115 -154 115 -79 0 22 15 63 32 90 36 54 45 32 -87 219
-54 76 -125 117 -125 71z" />
            <path d="M1612 1765 c-7 -6 -12 -45 -12 -85 0 -50 -19 -100 -60 -157 -33 -45
-60 -89 -60 -97 0 -7 -20 -34 -43 -60 -44 -46 -40 -79 7 -61 56 21 236 315
236 384 0 62 -39 106 -68 76z" />
            <path d="M1769 1705 c12 -69 2 -92 -99 -243 -74 -111 -105 -175 -92 -188 49
-49 295 311 273 401 -30 120 -101 146 -82 30z" />
            <path d="M735 1718 c-121 -70 94 -298 281 -298 119 0 119 26 0 146 -168 168
-212 193 -281 152z" />
            <path d="M1940 1643 c0 -62 -24 -113 -112 -242 -73 -108 -105 -172 -92 -185
31 -31 102 24 149 114 22 44 62 108 88 142 64 83 68 248 7 248 -33 0 -40 -13
-40 -77z" />
            <path d="M1432 1655 c-3 -14 -17 -57 -29 -96 -30 -95 -29 -109 8 -78 39 32 89
127 89 168 0 37 -58 42 -68 6z" />
            <path d="M2114 1647 c-7 -6 -8 -35 -2 -64 6 -36 -10 -85 -51 -153 -91 -149
-109 -176 -136 -206 -29 -32 -33 -84 -6 -84 45 0 121 41 121 66 0 15 36 83 80
152 90 139 107 246 43 281 -21 11 -43 14 -49 8z" />
            <path d="M154 1608 c-6 -6 -1 -39 10 -72 15 -41 15 -81 1 -126 -24 -80 74
-277 132 -266 82 16 117 225 46 276 -8 5 -36 44 -61 85 -45 75 -106 124 -128
103z" />
            <path d="M2275 1461 c-6 -46 -36 -113 -70 -156 -130 -166 -161 -310 -56 -262
28 13 51 38 51 55 0 18 41 95 90 171 104 162 106 169 43 228 l-47 45 -11 -81z" />
            <path d="M563 1482 c-55 -34 -15 -213 52 -234 19 -7 53 -19 75 -28 207 -86
330 -68 241 33 -17 21 -59 71 -93 112 -34 41 -74 75 -88 75 -14 0 -36 14 -50
30 -27 33 -95 39 -137 12z" />
            <path d="M1299 1379 c-24 -34 -37 -68 -29 -75 15 -15 110 86 110 117 0 38 -38
18 -81 -42z" />
            <path d="M8 1332 c-7 -19 -3 -45 9 -57 13 -13 23 -55 23 -95 0 -58 16 -88 86
-156 89 -88 114 -90 114 -11 0 108 -205 390 -232 319z" />
            <path d="M413 1178 c-87 -124 93 -296 311 -297 95 -1 111 27 47 86 -28 26 -51
62 -51 80 0 36 -192 173 -244 173 -18 0 -47 -19 -63 -42z" />
            <path d="M302 1016 c-19 -50 1 -89 36 -67 28 17 29 85 2 101 -11 7 -28 -8 -38
-34z" />
            <path d="M1246 845 c-77 -107 -151 -217 -166 -245 -14 -27 -32 -54 -39 -60
-38 -29 -103 -165 -97 -203 6 -42 15 -44 206 -41 244 3 246 2 254 -146 6 -119
7 -120 66 -120 58 0 60 3 54 80 -10 126 23 190 97 190 91 0 73 66 -21 80 l-70
10 -5 300 c-7 351 -6 350 -82 350 -51 0 -76 -25 -197 -195z m150 -250 l-6
-205 -118 -6 c-170 -9 -187 2 -127 81 27 36 65 97 85 135 19 39 41 75 48 80 7
6 29 35 48 65 62 97 76 67 70 -150z" />
            <path d="M300 855 c1 -51 277 -315 330 -315 66 0 64 11 -27 109 -43 46 -81 92
-85 102 -26 62 -218 153 -218 104z" />
        </g>
    </svg>
    <svg version="1.0" xmlns="http://www.w3.org/2000/svg" id="st_4_1" viewBox="0 0 120.000000 120.000000"
        preserveAspectRatio="xMidYMid meet">
        <g transform="translate(0.000000,120.000000) scale(0.050000,-0.050000)" stroke="none">
            <path d="M1100 2330 l0 -70 110 -3 c61 -2 121 -4 135 -5 15 -1 27 27 29 73 l4
75 -139 0 -139 0 0 -70z" />
            <path d="M1108 2182 c-29 -29 8 -42 124 -42 96 0 129 7 123 25 -8 23 -225 38
-247 17z" />
            <path d="M1116 2056 c-2 -14 -4 -110 -5 -212 l-1 -185 130 5 130 6 0 200 0
200 -125 6 c-91 4 -126 -1 -129 -20z" />
            <path d="M1441 1601 c-26 -16 -24 -26 12 -65 22 -25 47 -62 54 -82 12 -36 111
-36 239 -1 41 12 31 73 -21 132 -35 39 -231 50 -284 16z" />
            <path d="M1110 1575 l-160 -20 -45 -162 c-25 -90 -45 -187 -45 -215 0 -29 -12
-88 -27 -130 -15 -46 -20 -104 -12 -141 17 -80 -4 -121 -40 -78 -37 44 -52 40
-141 -44 -88 -83 -98 -121 -43 -168 20 -17 49 -48 65 -69 40 -54 248 -228 273
-228 55 0 153 123 129 161 -37 58 -34 60 121 54 131 -5 154 1 244 56 131 81
138 109 25 109 -74 0 -185 56 -121 62 9 0 107 3 217 5 l200 3 0 60 0 60 -130
1 c-71 0 -163 -5 -203 -12 -65 -12 -76 -7 -97 39 -13 29 -41 85 -62 126 -46
89 -56 385 -13 371 14 -4 27 -39 30 -77 11 -137 22 -158 82 -158 126 0 148 59
92 250 -56 189 -38 181 -339 145z" />
            <path d="M1659 1382 c-96 -19 -119 -36 -116 -88 1 -24 -4 -60 -12 -79 -14 -31
-2 -35 95 -35 162 0 174 8 174 122 0 107 0 107 -141 80z" />
            <path d="M1437 1105 c-101 -8 -131 -41 -96 -106 21 -40 415 -62 422 -24 1 8 5
44 8 80 l6 65 -124 -4 c-68 -2 -165 -7 -216 -11z" />
            <path d="M454 565 c43 -120 299 -346 390 -344 45 0 44 2 -14 51 -110 93 -179
160 -256 244 -78 87 -143 113 -120 49z" />
            <path d="M1156 447 c-38 -11 -51 -126 -39 -332 l7 -115 137 0 138 0 -4 225 -5
225 -100 3 c-55 2 -115 -1 -134 -6z" />
        </g>
    </svg>
    <svg version="1.0" xmlns="http://www.w3.org/2000/svg" id="st_4_2" viewBox="0 0 360.000000 360.000000"
        preserveAspectRatio="xMidYMid meet">
        <g transform="translate(0.000000,360.000000) scale(0.100000,-0.100000)" stroke="none">
            <path d="M2105 2910 c-150 -6 -177 -10 -232 -33 -34 -14 -76 -28 -93 -32 -16
-4 -32 -10 -35 -15 -3 -5 -43 -27 -88 -50 -45 -22 -93 -47 -107 -55 -26 -15
-126 -102 -194 -171 -23 -22 -49 -43 -58 -47 -13 -4 -18 -17 -18 -41 0 -29 7
-39 42 -65 59 -44 91 -41 123 9 13 21 33 44 42 49 10 5 47 38 83 73 43 43 82
70 115 82 28 10 59 27 70 37 31 28 106 59 145 59 19 0 47 7 62 14 50 26 341
20 488 -11 82 -17 152 -49 250 -114 137 -91 235 -175 274 -237 13 -20 38 -50
54 -66 22 -20 33 -42 38 -73 4 -25 18 -58 35 -79 16 -20 29 -49 29 -63 0 -14
7 -48 16 -76 20 -66 36 -350 24 -417 -6 -28 -10 -67 -10 -87 0 -36 -36 -158
-58 -197 -6 -12 -21 -47 -32 -77 -12 -31 -34 -67 -49 -80 -16 -13 -39 -42 -52
-65 -13 -23 -32 -45 -41 -48 -10 -3 -27 -17 -38 -32 -12 -15 -36 -38 -54 -52
-18 -14 -59 -44 -90 -68 -31 -24 -80 -55 -109 -69 -29 -14 -65 -35 -82 -47
-16 -11 -52 -23 -80 -27 -27 -4 -88 -13 -135 -20 -88 -14 -245 -14 -327 1
-133 23 -171 33 -205 55 -20 14 -57 30 -83 36 -30 8 -57 24 -78 46 -18 19 -51
46 -74 59 -22 14 -44 31 -47 39 -2 7 -28 32 -56 54 -48 38 -56 41 -115 41 -75
0 -90 -13 -82 -69 13 -100 363 -361 517 -386 25 -4 73 -18 107 -30 70 -27 103
-32 258 -44 89 -7 129 -5 210 9 55 10 111 23 125 29 14 6 57 20 97 30 67 17
108 41 241 136 93 67 260 229 292 283 18 31 52 86 76 122 23 36 47 82 54 103
6 21 22 50 34 65 17 21 28 59 45 161 25 152 26 195 11 408 -11 152 -23 208
-59 267 -11 17 -29 56 -41 88 -11 31 -32 71 -45 90 -13 18 -31 48 -40 67 -8
19 -24 40 -33 47 -10 7 -40 45 -66 84 -27 39 -58 75 -70 80 -11 4 -30 18 -41
29 -58 65 -331 222 -410 236 -22 4 -47 13 -55 20 -13 11 -108 31 -180 39 -14
1 -101 0 -195 -4z" />
            <path d="M2116 2476 l-47 -55 -2 -383 c-1 -211 2 -405 6 -431 8 -45 11 -50 54
-68 66 -28 94 -24 165 23 88 58 129 84 160 99 184 95 235 149 253 273 6 39 4
46 -14 56 -45 24 -219 -28 -303 -89 -23 -17 -50 -31 -59 -31 -37 0 -40 21 -38
273 l3 245 -29 57 c-26 51 -63 85 -93 85 -5 0 -30 -24 -56 -54z" />
            <path d="M534 2318 c-23 -24 -79 -80 -125 -126 -67 -67 -130 -134 -146 -155
-1 -1 -5 -91 -8 -199 -7 -218 -7 -218 56 -283 21 -22 45 -53 53 -69 14 -27 13
-32 -15 -84 -23 -44 -29 -67 -29 -116 0 -34 4 -66 8 -73 14 -22 62 -33 142
-33 123 0 171 -42 125 -108 -15 -20 -14 -24 17 -57 l33 -35 242 -4 c189 -2
247 0 261 10 15 10 20 30 25 89 3 42 11 83 17 91 9 10 38 14 112 14 132 0 138
4 138 85 0 57 -3 68 -29 98 -49 55 -49 77 -2 131 23 26 55 59 71 73 17 14 34
33 39 42 5 9 6 99 2 201 l-6 185 -36 45 c-20 25 -86 96 -147 157 -62 62 -112
117 -112 121 0 26 -65 32 -348 38 l-298 5 -40 -43z m264 -783 c5 -83 -4 -107
-68 -173 -52 -54 -64 -62 -96 -62 -29 0 -44 7 -70 35 -55 59 -55 148 -1 211
24 28 95 43 187 40 l45 -1 3 -50z m399 15 c81 -60 91 -104 42 -180 -46 -70
-88 -83 -171 -51 -39 15 -70 82 -76 163 -6 90 1 98 92 98 64 0 76 -3 113 -30z" />
        </g>
    </svg>
    <svg version="1.0" xmlns="http://www.w3.org/2000/svg" id="st_4_3" viewBox="0 0 125.000000 125.000000"
        preserveAspectRatio="xMidYMid meet">
        <g transform="translate(0.000000,125.000000) scale(0.050000,-0.050000)" stroke="none">
            <path d="M1024 2429 c-92 -65 -62 -172 76 -278 119 -90 160 -109 160 -73 0 10
46 51 102 92 185 133 89 370 -103 256 -54 -32 -60 -32 -95 0 -46 42 -82 43
-140 3z" />
            <path d="M983 1732 c-106 -111 -123 -139 -124 -205 0 -42 -13 -99 -29 -127
-16 -27 -29 -70 -29 -94 -1 -46 -57 -153 -135 -258 -86 -115 5 -256 205 -319
60 -19 119 -47 131 -62 24 -28 118 -38 117 -12 0 8 -13 32 -30 54 -16 21 -29
51 -29 66 0 14 -26 72 -57 127 l-58 100 -63 -54 c-103 -86 -123 -34 -37 96 38
58 77 129 85 156 9 28 36 82 61 121 24 39 48 88 52 108 13 68 71 85 117 35 51
-54 73 -55 100 -4 36 67 76 45 136 -75 31 -63 80 -151 108 -195 64 -102 135
-264 122 -277 -17 -18 -75 11 -110 55 -41 51 -49 43 -127 -128 -32 -71 -70
-142 -84 -156 -66 -71 7 -87 98 -22 32 23 106 59 163 80 223 80 252 168 124
373 -78 125 -92 166 -107 304 -20 175 -46 223 -191 357 -147 136 -246 125
-409 -44z" />
            <path d="M51 1336 c-66 -95 -46 -149 102 -271 109 -90 135 -100 161 -60 9 14
54 51 100 82 178 121 88 374 -95 266 -54 -32 -119 -27 -119 9 0 39 -118 18
-149 -26z" />
            <path d="M2011 1336 c-67 -96 -38 -172 98 -256 39 -24 71 -52 71 -62 0 -55
107 1 244 128 51 46 59 66 48 118 -20 103 -135 154 -192 86 -14 -16 -41 -30
-60 -30 -19 0 -46 14 -60 30 -37 44 -113 37 -149 -14z" />
            <path d="M1061 1262 c-86 -121 9 -382 140 -382 145 0 249 271 150 389 -46 56
-51 57 -87 25 -46 -42 -81 -43 -125 -3 -32 29 -38 26 -78 -29z" />
            <path d="M1008 390 c-80 -80 -56 -172 63 -241 47 -28 90 -64 97 -80 14 -37 85
-38 106 -2 9 15 45 42 80 60 109 56 140 168 69 250 -39 44 -131 58 -153 23
-15 -25 -104 -26 -119 -2 -26 42 -97 38 -143 -8z" />
        </g>
    </svg>
    <svg version="1.0" xmlns="http://www.w3.org/2000/svg" id="st_4_4" viewBox="0 0 120.000000 120.000000"
        preserveAspectRatio="xMidYMid meet">
        <g transform="translate(0.000000,120.000000) scale(0.050000,-0.050000)" stroke="none">
            <path d="M1132 2346 c-92 -98 -85 -202 19 -340 27 -35 49 -78 49 -96 0 -51 69
-27 77 27 3 26 -9 104 -28 173 -27 101 -30 140 -12 191 13 36 23 73 23 82 0
37 -81 14 -128 -37z" />
            <path d="M1423 2120 c30 -85 13 -189 -52 -327 -43 -91 -52 -130 -41 -193 11
-67 49 -115 50 -65 0 8 45 63 99 122 161 176 180 334 55 456 -80 78 -137 81
-111 7z" />
            <path d="M855 1986 c-49 -13 -44 -30 24 -75 58 -39 107 -127 130 -237 13 -59
76 -134 114 -134 29 0 11 248 -25 325 -20 45 -166 142 -199 133 -5 -2 -25 -7
-44 -12z" />
            <path d="M510 1888 c52 -123 56 -219 14 -340 -32 -93 -37 -138 -24 -197 28
-126 47 -121 140 33 122 204 133 333 37 440 -76 85 -196 130 -167 64z" />
            <path d="M1723 1776 c-120 -121 -104 -277 43 -446 48 -55 93 -116 100 -136 8
-20 23 -31 34 -24 25 15 27 215 2 241 -39 42 -69 186 -64 304 6 148 -19 160
-115 61z" />
            <path d="M801 1357 c-39 -29 -122 -105 -185 -170 l-114 -117 -5 -205 -6 -204
79 -81 c78 -80 78 -80 44 -138 -82 -139 -41 -228 103 -225 122 2 139 -11 147
-117 l6 -90 284 -6 284 -5 6 105 6 106 134 -1 c116 -1 135 4 144 38 14 54 -7
148 -40 175 -47 38 -32 86 52 168 l80 78 0 183 0 183 -175 181 -176 181 -298
7 c-297 7 -299 7 -370 -46z m641 -737 c125 -35 157 -175 61 -267 -101 -97
-232 -8 -246 167 -7 89 2 99 103 118 6 1 42 -7 82 -18z m-385 -57 c15 -111
-78 -243 -172 -243 -107 0 -161 146 -92 252 47 72 253 65 264 -9z" />
        </g>
    </svg>
    <svg version="1.0" xmlns="http://www.w3.org/2000/svg" id="st_4_4_1" viewBox="0 0 240.000000 240.000000">
        <g transform="translate(0.000000,240.000000) scale(0.100000,-0.100000)" stroke="none" id="g87">
            <rect id="rect117" width="380.27322" height="380.27322" x="-714.258" y="-1180.9843"
                transform="matrix(0.70710678,-0.70710678,-0.70710678,-0.70710678,0,0)" />
            <rect id="rect117-5" width="380.27322" height="380.27322" x="-714.258" y="-1585.2251"
                transform="matrix(0.70710678,-0.70710678,-0.70710678,-0.70710678,0,0)" />
            <rect id="rect117-5-3" width="380.27322" height="380.27322" x="-310.01715" y="-1989.4657"
                transform="matrix(0.70710678,-0.70710678,-0.70710678,-0.70710678,0,0)" />
            <rect id="rect117-5-3-5" width="380.27322" height="380.27322" x="94.223625" y="-2393.7095"
                transform="matrix(0.70710678,-0.70710678,-0.70710678,-0.70710678,0,0)" />
            <rect id="rect117-3" width="380.27322" height="380.27322" x="94.223656" y="-1989.4657"
                transform="matrix(0.70710678,-0.70710678,-0.70710678,-0.70710678,0,0)" />
            <rect id="rect117-6" width="380.27322" height="380.27322" x="498.46436" y="-2393.7095"
                transform="matrix(0.70710678,-0.70710678,-0.70710678,-0.70710678,0,0)" />
            <rect id="rect117-7" width="380.27322" height="380.27322" x="-310.01718" y="-1585.2251"
                transform="matrix(0.70710678,-0.70710678,-0.70710678,-0.70710678,0,0)" />
        </g>
    </svg>
    <svg version="1.0" xmlns="http://www.w3.org/2000/svg" id="st_4_5" viewBox="0 0 120.000000 120.000000"
        preserveAspectRatio="xMidYMid meet">
        <g transform="translate(0.000000,120.000000) scale(0.050000,-0.050000)" stroke="none">
            <path d="M1230 2122 c-44 -19 -195 -66 -335 -104 -302 -81 -306 -94 -40 -146
   l201 -39 67 58 c216 190 269 304 107 231z" />
            <path d="M1438 2135 c-17 -14 -64 -67 -104 -119 -41 -52 -102 -121 -134 -153
   -33 -33 -60 -70 -60 -81 0 -28 634 -662 662 -662 27 0 358 342 358 370 0 27
   -644 670 -671 670 -12 0 -35 -11 -51 -25z" />
            <path d="M479 1855 c-1 -3 -5 -38 -9 -79 -4 -41 -18 -94 -31 -118 -13 -24 -31
   -89 -40 -146 -25 -151 -75 -358 -111 -464 -35 -103 -27 -118 72 -139 69 -15
   193 -49 302 -82 118 -36 152 -22 165 69 14 100 59 293 123 534 75 279 79 308
   47 318 -15 4 -81 19 -147 34 -66 14 -149 37 -184 52 -55 22 -184 37 -187 21z" />
            <path d="M1087 1635 c-9 -14 -19 -47 -23 -75 -4 -27 -15 -59 -25 -72 -11 -12
   -19 -44 -18 -70 1 -79 -61 -342 -103 -433 -80 -177 -69 -185 173 -108 98 31
   272 83 386 115 265 74 265 68 10 312 -120 113 -249 240 -289 281 -79 82 -88
   87 -111 50z" />
            <path d="M2084 1316 c-13 -13 -24 -34 -24 -47 0 -12 -44 -69 -98 -125 -110
   -115 -114 -148 -43 -384 53 -177 67 -150 173 330 20 88 44 171 54 184 35 49
   -19 85 -62 42z" />
            <path d="M1490 909 c-225 -71 -372 -115 -527 -158 -48 -13 -96 -39 -106 -57
   -17 -31 -23 -31 -73 4 -30 20 -99 48 -154 61 -55 13 -133 33 -174 45 -127 37
   -155 5 -56 -66 47 -34 177 -156 289 -270 233 -238 237 -239 188 -43 -20 80
   -36 159 -35 175 2 52 115 -206 129 -295 16 -102 72 -127 174 -79 36 17 142 50
   235 75 94 25 179 51 190 60 11 8 83 30 160 49 173 42 206 69 174 140 -13 29
   -24 72 -24 97 0 25 -8 54 -17 64 -10 10 -28 64 -42 119 -42 175 -33 173 -331
   79z" />
        </g>
    </svg>
    <svg version="1.0" xmlns="http://www.w3.org/2000/svg" id="st_m_a" viewBox="0 0 120.000000 120.000000"
        preserveAspectRatio="xMidYMid meet">
        <g transform="translate(0.000000,120.000000) scale(0.050000,-0.050000)" stroke="none">
            <path d="M997 2085 c-197 -165 -239 -308 -125 -427 51 -54 52 -56 17 -114 -50
-86 -27 -129 66 -121 69 7 75 3 85 -53 9 -55 17 -60 85 -57 41 1 111 3 155 5
66 2 84 11 99 51 14 35 37 50 85 55 64 6 66 8 66 99 0 60 12 106 35 131 77 86
49 249 -66 373 l-100 109 -168 2 c-155 2 -173 -2 -234 -53z m131 -417 c80 -31
7 -188 -87 -188 -87 0 -110 91 -41 160 41 41 74 49 128 28z m281 -11 c58 -27
65 -69 20 -133 -69 -98 -192 -19 -161 105 14 57 58 65 141 28z" />
            <path d="M242 1158 c-193 -120 -266 -323 -164 -456 30 -39 33 -61 18 -117 -23
-83 -8 -129 39 -124 97 10 122 -1 129 -56 8 -74 319 -88 333 -15 10 50 39 69
107 70 69 0 80 20 52 94 -20 52 -16 71 23 134 76 124 53 262 -65 385 l-93 97
-163 10 c-129 8 -175 3 -216 -22z m138 -495 c0 -74 -81 -152 -138 -134 -95 31
-27 191 81 191 49 0 57 -8 57 -57z m273 30 c47 -51 -10 -173 -82 -173 -66 0
-114 129 -66 177 19 19 128 16 148 -4z" />
            <path d="M1683 1061 c-124 -124 -151 -267 -68 -369 29 -36 42 -70 33 -90 -49
-114 -37 -142 60 -142 89 0 92 -2 92 -61 l0 -61 164 6 c156 6 165 8 176 55 9
38 30 54 88 68 75 18 76 19 64 93 -9 57 -2 87 28 126 80 101 56 246 -60 369
l-99 105 -190 0 -189 0 -99 -99z m192 -354 c58 -15 59 -80 2 -141 -77 -82
-172 -41 -146 62 19 75 66 100 144 79z m288 -12 c75 -60 40 -175 -53 -175 -89
0 -132 98 -70 160 46 46 80 50 123 15z" />
        </g>
    </svg>
    <svg version="1.0" xmlns="http://www.w3.org/2000/svg" id="st_m_b" viewBox="0 0 120.000000 120.000000"
        preserveAspectRatio="xMidYMid meet">
        <g transform="translate(0.000000,120.000000) scale(0.050000,-0.050000)" stroke="none">
            <path d="M1788 1927 l-102 -110 -78 33 c-434 182 -990 55 -1329 -304 -222
-234 -250 -351 -122 -511 93 -117 196 -220 294 -296 129 -99 129 -97 38 -197
l-71 -79 45 -41 c60 -56 64 -55 150 47 96 116 93 115 268 58 491 -160 1072 61
1376 523 111 168 -23 413 -342 625 -94 63 -94 83 4 189 l79 85 -42 46 c-56 58
-50 61 -168 -68z m-339 -173 c119 -31 128 -51 60 -131 -60 -72 -76 -75 -158
-32 -325 170 -719 -222 -552 -549 51 -100 42 -144 -47 -212 -92 -70 -101 -68
-262 67 -82 70 -250 277 -250 308 0 69 278 379 364 406 20 6 36 19 36 28 0 23
209 106 330 132 121 26 345 18 479 -17z m405 -217 c202 -156 317 -315 280
-387 -149 -291 -574 -531 -938 -530 -285 1 -387 51 -308 150 l47 59 115 -36
c309 -98 562 78 558 387 -1 109 -11 168 -35 201 -44 64 -44 67 39 159 91 100
109 100 242 -3z m-540 -89 c8 -22 -15 -59 -71 -112 -45 -43 -94 -94 -108 -112
-15 -19 -59 -65 -100 -102 l-74 -68 -22 58 c-67 177 62 368 250 368 85 0 115
-8 125 -32z m145 -167 c84 -156 -60 -359 -255 -360 -155 -1 -151 30 25 211 83
86 151 163 151 172 0 32 59 15 79 -23z" />
        </g>
    </svg>
    <svg version="1.0" xmlns="http://www.w3.org/2000/svg" id="st_m_c" viewBox="0 0 120.000000 120.000000"
        preserveAspectRatio="xMidYMid meet">
        <g transform="translate(0.000000,120.000000) scale(0.050000,-0.050000)" stroke="none">
            <path d="M870 1961 c-132 -42 -294 -96 -360 -120 -66 -24 -156 -52 -200 -63
-263 -66 -271 -74 -120 -118 195 -57 214 -58 318 -22 306 106 446 128 745 115
292 -12 415 -33 605 -99 93 -33 160 -46 180 -36 18 9 59 21 92 28 188 35 207
79 49 113 -80 17 -590 159 -849 236 -167 50 -211 47 -460 -34z" />
            <path d="M970 1678 c-44 -9 -120 -22 -170 -28 -190 -23 -270 -59 -266 -121 7
-85 21 -109 65 -109 40 0 55 -48 44 -140 -25 -208 0 -371 68 -441 79 -81 82
-94 36 -174 -60 -103 -26 -165 92 -165 142 0 161 -12 161 -102 l0 -78 259 0
259 0 -4 85 -4 85 125 6 c140 7 161 45 95 171 -42 80 -38 97 30 163 l61 58
-11 191 c-18 310 -9 286 -110 316 -311 91 -616 97 -970 19 -85 -18 -1 43 96
71 263 74 694 51 938 -51 103 -43 193 74 110 143 -91 75 -704 144 -904 101z
m191 -852 c24 -62 4 -124 -68 -215 -111 -138 -285 77 -182 225 50 71 222 64
250 -10z m403 0 c108 -104 32 -263 -118 -248 -46 4 -126 148 -126 227 l0 75
94 0 c75 0 105 -11 150 -54z" />
            <path d="M262 1515 c0 -47 8 -193 16 -325 12 -195 10 -248 -14 -285 -41 -64
-22 -236 31 -289 l41 -41 31 58 c82 152 87 210 22 275 -24 24 -33 100 -42 336
-7 168 -21 317 -32 331 -37 46 -55 26 -53 -60z" />
        </g>
    </svg>
    <svg version="1.0" xmlns="http://www.w3.org/2000/svg" id="st_m_d" viewBox="0 0 120.000000 120.000000"
        preserveAspectRatio="xMidYMid meet">
        <g transform="translate(0.000000,120.000000) scale(0.100000,-0.100000)" stroke="none">
            <path d="M365 980 c-3 -6 -15 -10 -26 -10 -10 0 -19 -4 -19 -10 0 -5 -7 -10
-15 -10 -8 0 -59 -24 -113 -54 -54 -29 -107 -56 -118 -60 -20 -6 -21 -13 -20
-216 1 -125 5 -213 11 -218 6 -6 55 -34 110 -63 153 -80 189 -98 200 -99 9 0
302 145 313 155 3 3 4 188 3 361 l-1 71 -52 28 c-55 29 -140 72 -220 112 -28
14 -49 19 -53 13z m130 -81 c106 -52 125 -64 125 -79 0 -6 -6 -10 -12 -10 -7
0 -72 -29 -144 -66 l-131 -66 -94 46 c-125 62 -147 79 -130 100 7 9 20 16 29
16 8 0 30 11 48 25 18 14 38 25 45 25 7 0 20 6 28 14 33 28 96 56 116 50 11
-4 65 -28 120 -55z m166 -198 c2 -183 -2 -266 -14 -278 -17 -17 -234 -123
-251 -123 -23 0 -26 24 -24 198 l2 163 98 49 c54 27 112 60 130 73 50 40 58
28 59 -82z" />
            <path d="M786 958 c4 -13 6 -52 5 -88 l-2 -65 96 -89 c52 -48 95 -95 95 -105
0 -9 -28 -41 -63 -72 -152 -137 -136 -114 -138 -204 -2 -64 1 -81 13 -83 15
-3 378 350 378 367 0 6 -66 74 -147 153 -81 79 -162 158 -180 176 -38 38 -68
44 -57 10z" />
        </g>
    </svg>
    <svg version="1.0" xmlns="http://www.w3.org/2000/svg" id="st_plus" viewBox="0 0 120.000000 120.000000"
        preserveAspectRatio="xMidYMid meet">
        <g transform="translate(0.000000,120.000000) scale(0.050000,-0.050000)" stroke="none">
            <path d="M920 2283 c0 -51 71 -111 112 -95 30 12 27 21 -23 73 -65 68 -89 74
-89 22z" />
            <path d="M1420 2251 c0 -15 17 -34 38 -40 21 -7 68 -39 105 -71 37 -33 74 -60
81 -60 8 0 29 -27 46 -60 31 -60 111 -85 109 -35 -2 91 -379 356 -379 266z" />
            <path d="M760 2231 c0 -63 70 -170 112 -171 70 0 69 22 -5 113 -74 90 -107
108 -107 58z" />
            <path d="M1229 2179 c-13 -22 44 -77 82 -78 11 -1 73 -50 136 -111 102 -97
121 -107 158 -87 41 22 41 24 -28 85 -220 193 -314 245 -348 191z" />
            <path d="M600 2143 c0 -22 9 -46 20 -53 11 -7 20 -31 20 -53 0 -43 72 -157 99
-157 46 0 31 105 -27 193 -69 105 -112 132 -112 70z" />
            <path d="M1053 2087 c-29 -29 -10 -67 46 -97 33 -17 102 -71 152 -120 95 -93
147 -110 187 -63 17 21 0 46 -80 115 -57 48 -125 108 -153 133 -49 43 -124 59
-152 32z" />
            <path d="M455 2028 c-7 -7 -4 -34 6 -61 11 -28 14 -72 7 -98 -7 -27 -4 -49 7
-49 11 0 31 -27 45 -59 42 -103 71 -110 99 -24 32 97 -109 347 -164 291z" />
            <path d="M884 1936 c-42 -42 -26 -94 37 -127 34 -17 96 -63 139 -101 68 -62
86 -69 149 -57 87 16 91 49 11 96 -33 19 -60 46 -61 59 -1 68 -229 176 -275
130z" />
            <path d="M288 1852 c-6 -16 -1 -47 10 -69 12 -22 16 -66 10 -97 -12 -60 80
-245 122 -245 58 0 97 161 52 216 -24 29 -56 80 -71 113 -36 77 -107 124 -123
82z" />
            <path d="M1614 1807 c-8 -7 -14 -52 -14 -99 0 -70 -17 -111 -92 -218 -51 -73
-88 -137 -82 -143 50 -49 258 269 250 381 -6 75 -32 109 -62 79z" />
            <path d="M1780 1727 c0 -79 -15 -116 -101 -243 -72 -105 -95 -156 -81 -170 23
-23 121 53 123 94 0 12 27 57 59 100 69 92 94 195 63 264 -35 76 -63 56 -63
-45z" />
            <path d="M713 1747 c-93 -94 195 -341 335 -288 57 22 68 56 23 73 -16 7 -35
28 -41 49 -28 87 -269 213 -317 166z" />
            <path d="M1960 1685 c0 -57 -25 -112 -100 -225 -109 -163 -120 -200 -62 -200
26 0 59 38 102 115 36 63 77 129 91 145 30 34 44 179 21 216 -28 46 -52 23
-52 -51z" />
            <path d="M1449 1699 c-7 -12 -15 -41 -18 -65 -3 -24 -41 -98 -86 -164 -79
-117 -90 -148 -45 -120 33 20 220 313 220 344 0 31 -52 35 -71 5z" />
            <path d="M2134 1611 c-6 -38 -57 -138 -113 -223 -110 -167 -122 -208 -62 -208
27 0 65 43 123 140 45 78 91 146 100 152 31 18 22 208 -9 208 -16 0 -33 -29
-39 -69z" />
            <path d="M131 1625 c28 -67 33 -141 10 -182 -28 -53 82 -263 137 -263 62 0
132 199 81 231 -11 7 -42 47 -69 89 -78 123 -199 219 -159 125z" />
            <path d="M2312 1517 c-7 -35 -37 -96 -67 -135 -62 -80 -145 -239 -145 -278 0
-69 89 -10 142 94 31 59 74 127 97 151 40 43 54 135 29 199 -19 50 -42 37 -56
-31z" />
            <path d="M544 1491 c-56 -124 107 -275 300 -279 126 -2 134 33 34 139 -168
178 -293 230 -334 140z" />
            <path d="M7 1310 c7 -44 13 -98 13 -120 0 -46 155 -215 182 -199 55 35 -45
255 -165 361 l-43 38 13 -80z" />
            <path d="M410 1220 c-71 -78 -4 -221 121 -256 243 -69 328 -56 231 34 -34 32
-62 71 -62 87 0 28 -195 175 -233 175 -12 0 -37 -18 -57 -40z" />
            <path d="M281 1043 c-21 -41 -10 -63 32 -63 15 0 27 22 27 50 0 59 -30 65 -59
13z" />
            <path d="M1363 1006 c-10 -20 -14 -109 -9 -199 12 -198 15 -195 -228 -189
-185 4 -186 4 -207 -49 -34 -90 0 -107 228 -113 l203 -6 6 -204 c6 -224 22
-249 131 -207 50 19 52 25 57 215 l6 196 170 2 c243 2 240 2 240 56 0 108 -8
111 -220 98 -231 -14 -218 -28 -215 244 l1 180 -72 6 c-53 5 -76 -3 -91 -30z" />
            <path d="M289 898 c-15 -25 286 -338 324 -338 56 0 45 46 -32 133 -44 51 -81
100 -81 108 0 9 -17 22 -38 28 -20 7 -58 30 -83 52 -52 45 -71 48 -90 17z" />
        </g>
    </svg>
    <svg version="1.0" id="hq_1" xmlns="http://www.w3.org/2000/svg" viewBox="0 0 120.000000 120.000000"
        preserveAspectRatio="xMidYMid meet">
        <g transform="translate(0.000000,120.000000) scale(0.100000,-0.100000)" stroke="none">
            <path d="M146 863 c-19 -19 -3 -51 39 -81 25 -18 48 -32 51 -32 3 0 35 -20 72
-44 37 -24 85 -53 107 -65 22 -12 65 -37 95 -56 78 -49 79 -49 98 -33 9 8 51
34 92 57 41 24 82 47 90 51 8 5 38 21 65 36 28 14 57 32 66 40 8 8 19 14 24
14 4 0 27 12 51 28 40 25 56 54 36 66 -4 2 -200 7 -436 10 -235 3 -431 8 -435
11 -5 2 -11 2 -15 -2z" />
            <path d="M144 553 c3 -102 9 -189 12 -192 3 -3 203 -6 444 -7 l439 -2 -3 191
c-1 114 -6 191 -12 190 -16 -3 -189 -106 -192 -115 -2 -4 -8 -8 -12 -8 -5 0
-51 -25 -102 -55 -129 -77 -133 -78 -210 -27 -14 9 -57 35 -95 56 -37 22 -110
66 -161 98 -51 32 -98 58 -103 58 -7 0 -9 -61 -5 -187z" />
        </g>
    </svg>
    <svg version="1.0" id="hq_2" xmlns="http://www.w3.org/2000/svg" viewBox="0 0 120.000000 120.000000"
        preserveAspectRatio="xMidYMid meet">
        <g transform="translate(0.000000,120.000000) scale(0.050000,-0.050000)" stroke="none">
            <path d="M870 1806 c-109 -10 -453 -82 -545 -114 l-75 -26 -5 -553 c-6 -591
-4 -601 89 -514 108 101 458 240 604 241 76 0 96 -19 176 -175 61 -117 97
-132 127 -50 77 210 138 261 274 225 217 -56 325 -106 510 -234 52 -36 99 -66
105 -66 5 0 10 242 10 537 l0 537 -45 20 c-318 142 -806 211 -1225 172z m146
-471 l-6 -205 -120 -14 c-66 -9 -176 -30 -245 -49 -152 -40 -141 -50 -157 147
-15 188 11 233 146 257 42 8 121 26 176 40 55 15 125 27 156 28 l55 1 -5 -205z
m609 146 c91 -21 190 -48 220 -59 l55 -21 0 -213 c0 -239 17 -223 -170 -157
-55 19 -118 43 -140 52 -22 10 -80 20 -130 23 l-90 6 -6 204 -5 204 50 0 c27
0 124 -17 216 -39z" />
        </g>
    </svg>
    <svg version="1.0" id="hq_3" xmlns="http://www.w3.org/2000/svg" viewBox="0 0 120.000000 120.000000"
        preserveAspectRatio="xMidYMid meet">
        <g transform="translate(0.000000,120.000000) scale(0.050000,-0.050000)" stroke="none">
            <path d="M240 2103 c0 -9 50 -63 111 -119 110 -101 111 -102 78 -152 -32 -50
-32 -52 94 -191 148 -163 168 -168 264 -61 79 87 78 129 -3 147 -113 25 -159
83 -120 153 l35 61 -59 12 c-33 7 -69 24 -82 39 -13 16 -38 28 -57 28 -19 0
-78 22 -133 50 -106 54 -128 59 -128 33z" />
            <path d="M2030 2051 c-162 -78 -244 -111 -277 -111 -46 0 -58 -33 -29 -80 30
-49 -22 -102 -139 -141 -85 -29 -82 -55 15 -147 44 -41 80 -84 80 -94 0 -40
39 -12 177 125 146 147 158 165 123 187 -42 26 -16 84 80 176 146 141 137 166
-30 85z" />
            <path d="M905 1588 c-36 -28 -65 -60 -65 -71 0 -11 -27 -42 -60 -70 -89 -75
-90 -276 -1 -359 55 -52 57 -58 30 -111 -54 -103 -40 -130 71 -145 98 -13 100
-15 100 -83 l0 -69 200 0 c195 0 200 1 200 46 0 64 37 94 115 94 78 0 101 40
71 120 -21 56 -7 101 48 156 16 17 26 77 26 161 l0 134 -119 125 -119 124
-216 0 c-201 0 -220 -4 -281 -52z m229 -537 c-23 -142 -128 -214 -203 -140
-83 84 -10 209 123 209 l91 0 -11 -69z m311 41 c80 -60 -1 -247 -98 -229 -54
11 -116 137 -100 203 16 62 131 77 198 26z" />
            <path d="M533 757 c-129 -130 -135 -141 -105 -175 46 -51 44 -56 -78 -173 -60
-58 -110 -111 -110 -117 0 -21 49 -12 110 20 33 17 130 54 215 83 131 44 209
105 135 105 -64 0 -9 77 90 127 141 72 132 168 -11 123 -56 -18 -104 26 -90
82 21 84 -18 65 -156 -75z" />
            <path d="M1688 853 c-7 -18 -7 -46 -1 -62 15 -40 -18 -57 -115 -59 -119 -3
-108 -52 23 -102 122 -47 140 -75 81 -129 l-42 -40 58 -21 c32 -12 129 -49
215 -82 179 -68 227 -67 144 3 -127 109 -158 160 -111 189 41 25 17 82 -60
139 -44 32 -84 74 -90 92 -20 63 -87 110 -102 72z" />
        </g>
    </svg>
    <svg version="1.0" id="hq_4" xmlns="http://www.w3.org/2000/svg" viewBox="0 0 360.000000 360.000000"
        preserveAspectRatio="xMidYMid meet">
        <g transform="translate(0.000000,360.000000) scale(0.100000,-0.100000)" stroke="none">
            <path d="M1724 3127 c-3 -9 -4 -24 -2 -34 3 -15 15 -18 89 -20 93 -3 125 9
113 40 -5 13 -18 17 -54 17 -26 0 -68 3 -93 6 -37 5 -48 3 -53 -9z" />
            <path d="M1674 2945 c-20 -31 -31 -433 -12 -458 12 -16 25 -17 148 -10 l135 8
12 35 c8 23 11 97 10 220 -2 209 -5 219 -74 221 -21 0 -76 2 -122 3 -75 2 -85
0 -97 -19z" />
            <path d="M853 2691 c-12 -10 -40 -21 -62 -25 -46 -7 -90 -48 -122 -114 -18
-37 -19 -47 -9 -72 7 -16 10 -36 7 -45 -7 -18 11 -75 24 -75 6 0 33 -21 61
-47 50 -47 51 -48 132 -54 102 -7 140 1 181 41 60 59 80 162 49 266 -12 42
-26 63 -66 99 -48 43 -53 45 -112 45 -44 -1 -67 -6 -83 -19z" />
            <path d="M2708 2673 c-82 -57 -139 -124 -145 -172 -10 -75 5 -132 45 -169 76
-71 103 -83 198 -89 79 -5 93 -3 124 16 41 23 75 65 107 131 30 60 29 70 -13
156 -29 60 -44 79 -79 99 -23 14 -50 34 -60 45 -14 15 -31 20 -71 20 -44 0
-60 -6 -106 -37z" />
            <path d="M1670 2394 c-14 -7 -39 -13 -55 -14 -17 0 -45 -4 -64 -10 -25 -7 -46
-5 -82 6 -46 15 -50 15 -81 -3 -25 -15 -33 -26 -33 -48 0 -42 35 -57 106 -46
65 11 93 1 111 -36 18 -39 78 -51 164 -34 50 10 78 10 134 1 91 -15 152 -6
203 31 38 27 45 29 99 23 75 -9 108 10 108 61 0 37 -34 70 -61 60 -79 -29
-343 -55 -362 -36 -6 6 -25 11 -42 11 -16 0 -50 11 -75 24 -41 22 -48 23 -70
10z" />
            <path d="M1643 2098 c-9 -14 -20 -224 -28 -528 -5 -188 -5 -198 20 -280 14
-47 39 -107 56 -135 17 -27 33 -64 36 -83 3 -18 10 -35 14 -38 5 -3 9 -21 9
-40 0 -45 16 -74 40 -74 22 0 50 49 81 138 10 30 23 60 28 66 4 6 11 24 15 40
4 16 23 54 43 84 l36 56 3 365 c2 249 0 369 -8 378 -6 7 -22 13 -35 13 -14 0
-36 9 -50 20 -30 23 -51 25 -78 6 -11 -7 -40 -15 -64 -18 -36 -3 -48 0 -67 19
-26 26 -39 29 -51 11z" />
            <path d="M835 2086 c-16 -8 -70 -16 -118 -20 -48 -3 -98 -12 -110 -20 -12 -8
-48 -19 -79 -26 -31 -6 -62 -18 -70 -27 -10 -12 -13 -79 -15 -287 -1 -149 -6
-356 -12 -461 l-10 -190 29 -29 c20 -20 43 -31 72 -35 53 -7 69 -34 73 -124 2
-56 16 -138 29 -177 3 -8 10 -40 16 -72 l11 -56 57 -6 c99 -11 371 -11 381 -1
5 6 16 73 24 150 11 105 20 152 37 184 29 58 63 91 94 91 13 0 39 12 56 27 29
24 31 30 24 62 -4 20 -8 128 -9 241 -1 113 -5 259 -8 325 -3 66 -2 147 3 180
5 33 10 87 12 120 l3 60 -50 14 c-27 8 -77 14 -111 13 -51 -2 -76 4 -157 38
-103 43 -125 46 -172 26z" />
            <path d="M2746 2049 c-10 -6 -71 -19 -135 -28 -64 -10 -127 -23 -139 -30 -19
-10 -30 -10 -54 0 -64 26 -75 -26 -78 -386 -1 -110 -5 -285 -9 -390 -4 -105
-4 -198 1 -207 5 -10 21 -21 36 -24 43 -10 99 -45 110 -68 6 -11 13 -53 15
-92 2 -39 12 -86 21 -104 10 -20 16 -58 16 -96 0 -38 5 -66 12 -70 6 -4 100
-8 207 -9 230 -1 231 -1 231 81 0 29 13 105 29 169 32 128 62 179 110 190 54
12 65 35 56 117 -9 77 -9 98 0 383 2 99 7 244 9 323 5 160 2 167 -62 177 -65
10 -76 13 -107 23 -26 9 -154 36 -225 48 -14 2 -33 -1 -44 -7z" />
        </g>
    </svg>
    <svg id="hq_5" version="1.0" viewBox="0 0 240.000000 240.000000" xmlns="http://www.w3.org/2000/svg">
        <g transform="translate(0.000000,240.000000) scale(0.100000,-0.100000)" stroke="none" id="g87">
            <rect style="stroke-width:7.5" id="rect117" width="900.25244" height="317.65628" x="249.07919"
                y="-726.15118" transform="scale(1,-1)" />
            <rect style="stroke-width:7.5" id="rect117-3" width="900.25244" height="317.65628" x="1239.3317"
                y="-726.15118" transform="scale(1,-1)" />
            <rect style="stroke-width:7.5" id="rect117-6" width="900.25244" height="317.65628" x="247.80463"
                y="-1459.9421" transform="scale(1,-1)" />
            <rect style="stroke-width:8.02587" id="rect117-6-5" width="1030.9236" height="317.65628" x="677.21381"
                y="-1100.5121" transform="scale(1,-1)" />
            <rect style="stroke-width:4.25809" id="rect117-6-5-3" width="290.17999" height="317.66" x="1839.5044"
                y="-1100.51" transform="scale(1,-1)" />
            <rect style="stroke-width:4.25809" id="rect117-6-5-3-5" width="290.17999" height="317.66" x="251.98248"
                y="-1096.6021" transform="scale(1,-1)" />
            <rect style="stroke-width:4.7714" id="rect117-6-5-3-5-6" width="364.35828" height="317.66" x="245.14316"
                y="-1816.0062" transform="scale(1,-1)" />
            <rect style="stroke-width:4.7714" id="rect117-6-5-3-5-6-2" width="364.35828" height="317.66" x="1006.7848"
                y="-1816.01" transform="scale(1,-1)" />
            <rect style="stroke-width:4.7714" id="rect117-6-5-3-5-6-2-9" width="364.35828" height="317.66" x="1764.427"
                y="-1816.01" transform="scale(1,-1)" />
            <rect style="stroke-width:7.5" id="rect117-3-7" width="900.25244" height="317.65628" x="1238.057"
                y="-1459.9421" transform="scale(1,-1)" />
        </g>
    </svg>
    <svg id="hq_6" version="1.0" xmlns="http://www.w3.org/2000/svg" viewBox="0 0 120.000000 120.000000"
        preserveAspectRatio="xMidYMid meet">
        <g transform="translate(0.000000,120.000000) scale(0.050000,-0.050000)" stroke="none">
            <path d="M656 1706 c-8 -70 -65 -77 -201 -26 -121 46 -123 19 -6 -99 52 -53
84 -101 75 -114 -17 -28 -339 -107 -436 -107 -167 0 -75 -44 257 -122 107 -25
195 -55 195 -67 0 -39 -58 -107 -130 -151 -148 -91 -88 -122 100 -51 145 55
179 40 133 -60 -38 -83 22 -59 114 45 96 108 103 136 33 118 -27 -6 -70 -17
-95 -22 -87 -21 -111 21 -50 85 71 74 70 79 -25 95 -233 39 -287 128 -97 158
147 24 169 45 108 106 -103 103 -72 120 134 74 73 -17 68 5 -24 108 l-78 86
-7 -56z" />
            <path d="M2150 1531 c-32 -15 -132 -27 -221 -28 -90 -1 -206 -11 -259 -23
-146 -33 -715 -63 -738 -40 -46 46 -62 15 -62 -123 l0 -142 180 -9 c440 -21
415 -24 434 49 37 142 216 167 331 45 74 -79 77 -80 220 -80 l145 0 0 -58 c0
-63 41 -91 103 -71 25 8 37 31 37 71 0 34 13 64 30 71 40 15 41 193 1 226 -16
13 -31 48 -35 77 -7 64 -71 77 -166 35z" />
            <path d="M1625 1167 c-45 -18 -27 -98 32 -142 47 -34 91 -43 255 -47 l198 -6
6 54 7 54 -182 0 c-176 0 -183 2 -201 50 -18 47 -57 60 -115 37z" />
            <path d="M1195 937 c-63 -23 -73 -85 -26 -148 17 -22 30 -82 30 -134 1 -88 5
-95 51 -95 42 0 50 9 50 61 0 54 4 58 39 40 22 -12 179 -21 367 -21 329 0 329
0 362 -50 41 -63 68 -63 91 -1 13 32 38 50 73 55 30 3 59 17 63 31 16 48 -107
70 -415 75 -170 3 -323 7 -340 9 -16 2 -57 2 -90 1 -78 -3 -119 7 -125 28 -3
9 192 20 433 23 432 5 535 20 517 75 -8 22 -40 22 -205 4 -22 -3 -56 4 -76 14
-24 12 -46 11 -62 -2 -14 -12 -32 -16 -39 -8 -7 7 -131 11 -274 9 -206 -3
-270 3 -304 27 -50 34 -46 34 -120 7z" />
        </g>
    </svg>
    <svg id="hq_7" version="1.0" viewBox="0 0 240.000000 240.000000" xmlns="http://www.w3.org/2000/svg">
        <g transform="translate(0.000000,240.000000) scale(0.100000,-0.100000)" stroke="none" id="g87">
            <path id="rect2980" style="stroke-width:7.5"
                d="M 524.56344,1667.3274 H 1867.3301 L 1983.8042,591.02625 H 414.15091 Z" />
            <path id="path3844"
                d="M 126.03647,50.234983 112.32083,43.334656 98.860904,50.721369 101.18514,35.544705 90.000612,25.026172 105.15271,22.546805 111.70022,8.6592809 118.74049,22.303612 133.9716,24.239183 123.17063,35.15121 Z"
                transform="matrix(9.2456417,0,0,-9.2432406,156.30316,613.14982)" />
            <path id="rect3948" style="stroke-width:10.2221"
                d="M 402.04811,1869.7337 H 2001.3797 l -99.72,-173.7833 H 489.82631 Z" />
            <rect style="stroke-width:8.3856" id="rect4230" width="466.40887" height="164.27368" x="968.09058"
                y="-2066.354" transform="scale(1,-1)" />
            <path id="rect4230-3" style="stroke-width:8.39978"
                d="m 1548.162,2066.3501 h 418.1969 l 49.7906,-164.2737 H 1548.162 Z" />
            <path id="rect4230-3-1" style="stroke-width:8.2786"
                d="M 432.0711,2066.3501 H 839.21304 V 1902.0764 H 384.63069 Z" />
            <g transform="matrix(0.15053194,0,0,0.14415259,731.91407,695.58909)" fill="#ffffff" stroke="none"
                id="g4592">
                <path
                    d="m 2964,5940 c -11,-27 -199,-491 -419,-1030 -221,-539 -479,-1173 -575,-1410 -284,-699 -413,-909 -634,-1031 -160,-89 -447,-87 -638,3 l -131,63 46,-113 c 115,-281 121,-697 13,-926 l -63,-134 50,19 c 158,60 330,-5 567,-213 384,-338 861,-572 1365,-670 271,-53 296,-46 87,24 -667,221 -1012,593 -965,1039 8,74 120,410 320,961 170,467 437,1199 593,1628 156,429 290,786 297,794 11,11 1012,-2361 1334,-3158 187,-465 29,-835 -462,-1081 -189,-95 -476,-203 -546,-207 -18,0 -23,-5 -10,-10 42,-18 398,50 584,111 382,125 738,331 1028,596 188,171 283,213 460,202 l 127,-8 -45,80 c -108,195 -107,623 2,925 59,162 67,152 -79,102 -462,-156 -884,74 -1091,596 -143,360 -1146,2802 -1170,2848 l -26,50 z"
                    id="path4588" />
                <path
                    d="M 722,1040 C 1804,-215 3782,-338 5001,775 c 257,234 390,389 179,207 C 4384,296 3202,15 3037,471 c -32,87 -39,86 -84,-12 C 2743,4 1525,327 746,1045 l -136,125 z"
                    id="path4590" />
            </g>
        </g>
    </svg>
    <svg id="hq_8" version="1.0" viewBox="0 0 240.000000 240.000000" preserveAspectRatio="xMidYMid meet"
        xmlns="http://www.w3.org/2000/svg">
        <g transform="translate(0.000000,240.000000) scale(0.100000,-0.100000)" stroke="none" id="g87">
            <path id="rect2980" style="stroke-width:7.5"
                d="M 524.56344,1667.3274 H 1867.3301 L 1983.8042,591.02625 H 414.15091 Z" />
            <path id="path3844"
                d="M 126.03647,50.234983 112.32083,43.334656 98.860904,50.721369 101.18514,35.544705 90.000612,25.026172 105.15271,22.546805 111.70022,8.6592809 118.74049,22.303612 133.9716,24.239183 123.17063,35.15121 Z"
                transform="matrix(9.245672,0,0,-9.245672,-812.1105,1414.2676)" />
            <path id="path3844-3" transform="matrix(9.2456417,0,0,-9.2456181,1136.3373,1414.2704)"
                d="M 126.03647,50.234983 112.32083,43.334656 98.860904,50.721369 101.18514,35.544705 90.000612,25.026172 105.15271,22.546805 111.70022,8.6592809 118.74049,22.303612 133.9716,24.239183 123.17063,35.15121 Z" />
            <path id="rect3948" style="stroke-width:10.2221"
                d="M 402.04811,1869.7337 H 2001.3797 l -99.72,-173.7833 H 489.82631 Z" />
            <rect style="stroke-width:8.3856" id="rect4230" width="466.40887" height="164.27368" x="968.09058"
                y="-2066.354" transform="scale(1,-1)" />
            <path id="rect4230-3" style="stroke-width:8.39978"
                d="m 1548.162,2066.3501 h 418.1969 l 49.7906,-164.2737 H 1548.162 Z" />
            <path id="rect4230-3-1" style="stroke-width:8.2786"
                d="M 432.0711,2066.3501 H 839.21304 V 1902.0764 H 384.63069 Z" />
            <g transform="matrix(0.15053194,0,0,0.14415259,731.91407,695.58909)" fill="#ffffff" stroke="none"
                id="g4592">
                <path
                    d="m 2964,5940 c -11,-27 -199,-491 -419,-1030 -221,-539 -479,-1173 -575,-1410 -284,-699 -413,-909 -634,-1031 -160,-89 -447,-87 -638,3 l -131,63 46,-113 c 115,-281 121,-697 13,-926 l -63,-134 50,19 c 158,60 330,-5 567,-213 384,-338 861,-572 1365,-670 271,-53 296,-46 87,24 -667,221 -1012,593 -965,1039 8,74 120,410 320,961 170,467 437,1199 593,1628 156,429 290,786 297,794 11,11 1012,-2361 1334,-3158 187,-465 29,-835 -462,-1081 -189,-95 -476,-203 -546,-207 -18,0 -23,-5 -10,-10 42,-18 398,50 584,111 382,125 738,331 1028,596 188,171 283,213 460,202 l 127,-8 -45,80 c -108,195 -107,623 2,925 59,162 67,152 -79,102 -462,-156 -884,74 -1091,596 -143,360 -1146,2802 -1170,2848 l -26,50 z"
                    id="path4588" />
                <path
                    d="M 722,1040 C 1804,-215 3782,-338 5001,775 c 257,234 390,389 179,207 C 4384,296 3202,15 3037,471 c -32,87 -39,86 -84,-12 C 2743,4 1525,327 746,1045 l -136,125 z"
                    id="path4590" />
            </g>
        </g>
    </svg>
    <svg id="hq_9" version="1.0" viewBox="0 0 240.000000 240.000000" xmlns="http://www.w3.org/2000/svg">
        <g transform="translate(0.000000,240.000000) scale(0.100000,-0.100000)" stroke="none" id="g87">
            <path id="rect2980" style="stroke-width:7.5"
                d="M 524.56344,1667.3274 H 1867.3301 L 1983.8042,591.02625 H 414.15091 Z" />
            <path id="path3844"
                d="M 126.03647,50.234983 112.32083,43.334656 98.860904,50.721369 101.18514,35.544705 90.000612,25.026172 105.15271,22.546805 111.70022,8.6592809 118.74049,22.303612 133.9716,24.239183 123.17063,35.15121 Z"
                transform="matrix(9.2456417,0,0,-9.2432406,-803.50512,1373.892)" />
            <path id="path3844-36" transform="matrix(9.2456417,0,0,-9.2432406,152.15528,605.53516)"
                d="M 126.03647,50.234983 112.32083,43.334656 98.860904,50.721369 101.18514,35.544705 90.000612,25.026172 105.15271,22.546805 111.70022,8.6592809 118.74049,22.303612 133.9716,24.239183 123.17063,35.15121 Z" />
            <path id="path3844-3" transform="matrix(9.2456417,0,0,-9.2432406,1136.3373,1373.8948)"
                d="M 126.03647,50.234983 112.32083,43.334656 98.860904,50.721369 101.18514,35.544705 90.000612,25.026172 105.15271,22.546805 111.70022,8.6592809 118.74049,22.303612 133.9716,24.239183 123.17063,35.15121 Z" />
            <path id="rect3948" style="stroke-width:10.2221"
                d="M 402.04811,1869.7337 H 2001.3797 l -99.72,-173.7833 H 489.82631 Z" />
            <rect style="stroke-width:8.3856" id="rect4230" width="466.40887" height="164.27368" x="968.09058"
                y="-2066.354" transform="scale(1,-1)" />
            <path id="rect4230-3" style="stroke-width:8.39978"
                d="m 1548.162,2066.3501 h 418.1969 l 49.7906,-164.2737 H 1548.162 Z" />
            <path id="rect4230-3-1" style="stroke-width:8.2786"
                d="M 432.0711,2066.3501 H 839.21304 V 1902.0764 H 384.63069 Z" />
            <g transform="matrix(0.15053194,0,0,0.14415259,731.91407,695.58909)" fill="#ffffff" stroke="none"
                id="g4592">
                <path
                    d="m 2964,5940 c -11,-27 -199,-491 -419,-1030 -221,-539 -479,-1173 -575,-1410 -284,-699 -413,-909 -634,-1031 -160,-89 -447,-87 -638,3 l -131,63 46,-113 c 115,-281 121,-697 13,-926 l -63,-134 50,19 c 158,60 330,-5 567,-213 384,-338 861,-572 1365,-670 271,-53 296,-46 87,24 -667,221 -1012,593 -965,1039 8,74 120,410 320,961 170,467 437,1199 593,1628 156,429 290,786 297,794 11,11 1012,-2361 1334,-3158 187,-465 29,-835 -462,-1081 -189,-95 -476,-203 -546,-207 -18,0 -23,-5 -10,-10 42,-18 398,50 584,111 382,125 738,331 1028,596 188,171 283,213 460,202 l 127,-8 -45,80 c -108,195 -107,623 2,925 59,162 67,152 -79,102 -462,-156 -884,74 -1091,596 -143,360 -1146,2802 -1170,2848 l -26,50 z"
                    id="path4588" />
                <path
                    d="M 722,1040 C 1804,-215 3782,-338 5001,775 c 257,234 390,389 179,207 C 4384,296 3202,15 3037,471 c -32,87 -39,86 -84,-12 C 2743,4 1525,327 746,1045 l -136,125 z"
                    id="path4590" />
            </g>
        </g>
    </svg>
    <svg id="max_xp" version="1.0" viewBox="0 0 240.000000 240.000000" xmlns="http://www.w3.org/2000/svg">
        <g transform="translate(0.000000,240.000000) scale(0.100000,-0.100000)" stroke="none" id="g87">
            <path id="path3844"
                d="M 126.03647,50.234983 112.32083,43.334656 98.860904,50.721369 101.18514,35.544705 90.000612,25.026172 105.15271,22.546805 111.70022,8.6592809 118.74049,22.303612 133.9716,24.239183 123.17063,35.15121 Z"
                transform="matrix(7.5,0,0,-7.5,350.4699,658.18667)" />
            <path id="path3844-3" transform="matrix(7.5,0,0,-7.5,-24.312512,754.08461)"
                d="M 126.03647,50.234983 112.32083,43.334656 98.860904,50.721369 101.18514,35.544705 90.000612,25.026172 105.15271,22.546805 111.70022,8.6592809 118.74049,22.303612 133.9716,24.239183 123.17063,35.15121 Z" />
            <path id="path3844-6" transform="matrix(7.5,0,0,-7.5,695.25231,754.08909)"
                d="M 126.03647,50.234983 112.32083,43.334656 98.860904,50.721369 101.18514,35.544705 90.000612,25.026172 105.15271,22.546805 111.70022,8.6592809 118.74049,22.303612 133.9716,24.239183 123.17063,35.15121 Z" />
            <g transform="matrix(0.26927697,0,0,0.25786536,387.22053,640.82741)" stroke="none" id="g4592">
                <path
                    d="m 2964,5940 c -11,-27 -199,-491 -419,-1030 -221,-539 -479,-1173 -575,-1410 -284,-699 -413,-909 -634,-1031 -160,-89 -447,-87 -638,3 l -131,63 46,-113 c 115,-281 121,-697 13,-926 l -63,-134 50,19 c 158,60 330,-5 567,-213 384,-338 861,-572 1365,-670 271,-53 296,-46 87,24 -667,221 -1012,593 -965,1039 8,74 120,410 320,961 170,467 437,1199 593,1628 156,429 290,786 297,794 11,11 1012,-2361 1334,-3158 187,-465 29,-835 -462,-1081 -189,-95 -476,-203 -546,-207 -18,0 -23,-5 -10,-10 42,-18 398,50 584,111 382,125 738,331 1028,596 188,171 283,213 460,202 l 127,-8 -45,80 c -108,195 -107,623 2,925 59,162 67,152 -79,102 -462,-156 -884,74 -1091,596 -143,360 -1146,2802 -1170,2848 l -26,50 z"
                    id="path4588" />
                <path
                    d="M 722,1040 C 1804,-215 3782,-338 5001,775 c 257,234 390,389 179,207 C 4384,296 3202,15 3037,471 c -32,87 -39,86 -84,-12 C 2743,4 1525,327 746,1045 l -136,125 z"
                    id="path4590" />
            </g>
        </g>
    </svg>
</svg>