<?xml version="1.0" standalone="no"?>
<!DOCTYPE svg PUBLIC "-//W3C//DTD SVG 20010904//EN"
 "http://www.w3.org/TR/2001/REC-SVG-20010904/DTD/svg10.dtd">
<svg version="1.0" xmlns="http://www.w3.org/2000/svg"
 width="120.000000pt" height="120.000000pt" viewBox="0 0 120.000000 120.000000"
 preserveAspectRatio="xMidYMid meet">

<g transform="translate(0.000000,120.000000) scale(0.100000,-0.100000)"
fill="#000000" stroke="none">
<path d="M546 1151 c-3 -5 1 -14 9 -21 12 -10 15 -10 15 3 0 19 -16 31 -24 18z"/>
<path d="M450 1141 c0 -18 34 -51 52 -51 21 0 22 9 5 31 -15 20 -57 34 -57 20z"/>
<path d="M716 1121 c-5 -8 55 -51 72 -51 4 0 25 -22 46 -49 36 -46 66 -58 66
-27 0 14 -39 52 -84 82 -91 61 -91 61 -100 45z"/>
<path d="M380 1109 c0 -24 42 -79 61 -79 25 0 24 7 -7 52 -26 36 -54 51 -54
27z"/>
<path d="M621 1091 c-10 -7 -8 -12 10 -25 13 -9 28 -16 34 -16 5 0 23 -14 39
-30 16 -17 33 -30 38 -30 4 0 8 -6 8 -13 0 -16 38 -40 50 -32 18 11 10 28 -31
63 -43 37 -120 92 -129 92 -3 0 -11 -4 -19 -9z"/>
<path d="M300 1066 c0 -8 5 -18 10 -21 6 -3 10 -16 10 -28 0 -12 12 -35 26
-52 21 -24 27 -27 34 -15 14 22 12 41 -7 62 -9 10 -21 28 -27 40 -13 27 -46
37 -46 14z"/>
<path d="M536 1038 c-25 -14 -19 -26 19 -42 19 -8 55 -35 79 -60 46 -48 72
-57 83 -30 6 17 -72 98 -107 109 -11 3 -20 10 -20 15 0 12 -36 18 -54 8z"/>
<path d="M220 1001 c0 -5 4 -12 9 -15 5 -3 12 -22 15 -41 4 -20 16 -57 28 -83
l20 -47 15 40 c13 36 12 43 -3 70 -10 17 -20 32 -23 35 -3 3 -11 14 -17 25
-12 21 -44 33 -44 16z"/>
<path d="M460 970 c-23 -5 -26 -11 -21 -40 0 -5 14 -16 29 -24 16 -8 48 -31
71 -50 43 -36 84 -46 97 -24 5 7 -13 30 -44 59 -77 71 -103 87 -132 79z"/>
<path d="M140 918 c0 -6 7 -20 17 -30 14 -15 14 -22 3 -42 -11 -21 -9 -29 19
-70 18 -25 36 -46 40 -46 4 0 16 15 26 33 18 35 15 46 -28 102 -4 6 -16 22
-28 38 -21 27 -49 37 -49 15z"/>
<path d="M899 910 c-1 -3 -2 -29 -4 -59 -1 -38 -7 -56 -18 -63 -10 -5 -17 -14
-17 -20 0 -5 -13 -27 -30 -48 -16 -21 -30 -43 -30 -49 0 -22 37 -10 51 17 7
15 28 48 46 74 36 52 43 101 18 134 -8 10 -15 17 -16 14z"/>
<path d="M806 891 c-3 -4 -5 -24 -4 -44 1 -36 -29 -93 -75 -144 -22 -24 -18
-39 7 -30 16 6 83 106 99 148 16 41 -7 102 -27 70z"/>
<path d="M358 863 c-5 -55 17 -82 92 -117 45 -21 110 -25 110 -7 0 12 -92 102
-124 122 -40 24 -75 25 -78 2z"/>
<path d="M983 837 c1 -32 -4 -48 -21 -65 -13 -13 -30 -39 -38 -57 -7 -18 -18
-35 -22 -37 -16 -6 -25 -48 -10 -48 23 0 37 14 53 53 8 20 20 37 25 37 5 0 12
11 16 24 3 14 12 27 20 30 12 5 14 33 5 99 -1 4 -7 7 -15 7 -11 0 -14 -12 -13
-43z"/>
<path d="M733 853 c-7 -2 -13 -18 -13 -34 0 -20 -15 -48 -45 -86 -24 -31 -43
-59 -41 -60 10 -10 36 14 66 60 70 105 79 139 33 120z"/>
<path d="M1068 844 c-4 -3 -4 -20 -1 -38 3 -22 0 -36 -11 -45 -9 -7 -16 -22
-16 -31 0 -10 -3 -20 -7 -22 -12 -5 -73 -95 -73 -107 0 -22 39 -10 57 17 62
93 85 146 81 188 -3 35 -16 52 -30 38z"/>
<path d="M75 793 c15 -35 17 -61 6 -67 -18 -12 -12 -55 9 -68 11 -7 20 -20 20
-29 0 -9 9 -24 19 -34 19 -17 21 -16 40 16 27 44 26 80 -1 112 -13 15 -33 40
-46 57 -26 33 -59 42 -47 13z"/>
<path d="M288 756 c-41 -31 -6 -103 64 -131 40 -16 123 -23 135 -11 5 5 -51
82 -77 104 -19 16 -87 52 -97 52 -4 0 -16 -7 -25 -14z"/>
<path d="M1154 753 c4 -10 -4 -30 -24 -54 -16 -21 -30 -41 -30 -44 0 -4 -7
-13 -15 -21 -8 -9 -15 -24 -15 -34 0 -10 -4 -22 -10 -25 -18 -11 -11 -35 11
-35 12 0 23 8 26 20 3 11 9 20 14 20 5 0 9 8 9 19 0 10 16 38 35 62 36 46 44
76 23 97 -17 17 -31 15 -24 -5z"/>
<path d="M6 628 c4 -33 13 -59 25 -70 10 -9 19 -21 19 -27 0 -11 32 -31 49
-31 38 0 -30 144 -79 170 -20 11 -21 9 -14 -42z"/>
<path d="M218 619 c-22 -12 -23 -45 -4 -90 12 -28 22 -35 77 -51 113 -31 155
-20 95 25 -18 15 -36 37 -40 49 -3 14 -25 34 -56 51 -27 15 -51 27 -53 27 -1
0 -10 -5 -19 -11z"/>
<path d="M1175 600 c-3 -5 -1 -10 4 -10 6 0 11 5 11 10 0 6 -2 10 -4 10 -3 0
-8 -4 -11 -10z"/>
<path d="M146 524 c-10 -25 -7 -34 9 -34 8 0 15 9 15 19 0 26 -16 35 -24 15z"/>
<path d="M629 507 c-73 -38 -102 -132 -87 -281 10 -99 16 -121 41 -149 32 -36
58 -46 121 -48 66 -2 99 16 132 75 45 80 38 284 -12 355 -46 64 -125 84 -195
48z m133 -56 l33 -29 0 -147 0 -147 -33 -29 c-55 -49 -117 -33 -147 38 -21 49
-20 205 1 266 27 81 87 101 146 48z"/>
<path d="M146 442 c-3 -5 7 -18 22 -27 15 -10 52 -44 82 -77 41 -44 60 -58 73
-53 21 9 22 24 2 32 -9 3 -26 20 -38 38 -42 62 -125 113 -141 87z"/>
</g>
</svg>
