<?xml version="1.0" standalone="no"?>
<!DOCTYPE svg PUBLIC "-//W3C//DTD SVG 20010904//EN"
 "http://www.w3.org/TR/2001/REC-SVG-20010904/DTD/svg10.dtd">
<svg version="1.0" xmlns="http://www.w3.org/2000/svg"
 width="120.000000pt" height="120.000000pt" viewBox="0 0 120.000000 120.000000"
 preserveAspectRatio="xMidYMid meet">

<g transform="translate(0.000000,120.000000) scale(0.100000,-0.100000)"
fill="#000000" stroke="none">
<path d="M572 1178 c-46 -12 -71 -37 -83 -80 -14 -54 1 -81 123 -210 58 -62
127 -135 151 -163 25 -27 47 -48 49 -45 2 3 10 18 18 35 9 16 31 40 50 53 31
21 44 23 103 19 37 -2 67 -3 67 -1 0 1 -82 86 -183 188 -197 199 -229 222
-295 204z"/>
<path d="M465 862 c-27 -15 -56 -33 -63 -40 -8 -7 -27 -21 -41 -30 -110 -68
-211 -174 -260 -271 l-23 -44 49 -49 c258 -263 344 -348 353 -348 5 0 10 10
10 21 0 12 16 54 35 93 28 58 46 80 99 121 62 48 159 105 178 105 5 0 35 13
66 28 32 16 69 32 84 35 58 15 106 88 101 155 0 6 -1 21 -2 32 -2 34 -37 60
-81 60 -78 0 -113 -47 -85 -114 8 -20 12 -36 8 -37 -5 0 -18 -2 -30 -3 -16 -2
-61 37 -179 156 -87 87 -160 158 -163 158 -3 0 -28 -13 -56 -28z"/>
<path d="M620 219 c-39 -16 -89 -70 -96 -103 -12 -65 30 -109 86 -91 34 11 90
65 105 102 13 30 13 39 0 69 -11 28 -19 34 -42 33 -15 0 -39 -5 -53 -10z"/>
</g>
</svg>
