<?xml version="1.0" standalone="no"?>
<!DOCTYPE svg PUBLIC "-//W3C//DTD SVG 20010904//EN"
 "http://www.w3.org/TR/2001/REC-SVG-20010904/DTD/svg10.dtd">
<svg version="1.0" xmlns="http://www.w3.org/2000/svg"
 width="120.000000pt" height="120.000000pt" viewBox="0 0 120.000000 120.000000"
 preserveAspectRatio="xMidYMid meet">

<g transform="translate(0.000000,120.000000) scale(0.100000,-0.100000)"
fill="#000000" stroke="none">
<path d="M278 861 c-2 -53 -3 -98 -1 -100 1 -2 17 -6 35 -10 l33 -7 0 -139 0
-140 -36 -23 -36 -24 1 -76 1 -77 125 -2 c156 -1 170 1 170 30 0 34 28 67 55
67 28 0 60 -41 52 -65 -4 -8 -1 -17 4 -21 6 -3 72 -6 147 -7 l137 -1 3 76 3
76 -34 20 c-32 18 -35 24 -41 85 -9 84 -5 208 7 225 5 6 23 12 39 12 l29 0 -3
98 -3 97 -70 0 -70 0 2 -31 c4 -44 -16 -57 -71 -49 -43 7 -45 9 -48 44 l-3 36
-80 0 -80 0 -3 -37 c-3 -31 -7 -37 -30 -42 -15 -3 -38 -4 -52 -3 -21 2 -25 8
-28 39 -4 43 -13 48 -94 46 l-56 -2 -4 -95z m513 -113 c2 -18 3 -79 1 -135
l-3 -102 -37 -7 c-20 -4 -54 -15 -74 -25 -39 -20 -78 -24 -94 -11 -5 5 -35 17
-66 27 l-58 19 0 51 c0 27 -3 87 -7 133 l-6 82 170 0 171 0 3 -32z"/>
<path d="M588 718 c-2 -17 -12 -24 -33 -28 -16 -3 -30 -11 -29 -18 1 -6 2 -21
3 -31 1 -14 10 -21 29 -23 23 -3 27 -7 25 -33 -3 -61 4 -75 42 -75 l35 0 0 55
c0 52 1 55 25 55 20 0 25 5 25 24 0 13 -7 29 -15 36 -8 7 -15 9 -15 5 0 -4 -7
-2 -15 5 -8 6 -14 15 -13 18 3 24 -6 32 -31 32 -23 0 -30 -5 -33 -22z"/>
</g>
</svg>
