<?xml version="1.0" standalone="no"?>
<!DOCTYPE svg PUBLIC "-//W3C//DTD SVG 20010904//EN"
 "http://www.w3.org/TR/2001/REC-SVG-20010904/DTD/svg10.dtd">
<svg version="1.0" xmlns="http://www.w3.org/2000/svg"
 width="120.000000pt" height="120.000000pt" viewBox="0 0 120.000000 120.000000"
 preserveAspectRatio="xMidYMid meet">

<g transform="translate(0.000000,120.000000) scale(0.100000,-0.100000)"
fill="#000000" stroke="none">
<path d="M826 1010 c-14 -22 -26 -43 -26 -47 0 -10 220 -223 230 -223 9 0 60
65 60 76 0 10 -222 234 -231 234 -4 0 -18 -18 -33 -40z"/>
<path d="M779 833 c-19 -21 -51 -58 -71 -83 -20 -25 -59 -70 -87 -100 -28 -30
-51 -58 -51 -62 0 -4 39 -4 88 -1 97 7 102 9 211 126 l55 58 -49 49 c-27 28
-52 50 -55 50 -3 0 -22 -17 -41 -37z"/>
<path d="M558 533 c-29 -4 -153 -131 -193 -197 -11 -18 -33 -52 -49 -75 -34
-49 -25 -75 15 -40 13 12 49 39 80 60 59 39 259 233 259 250 0 9 -59 10 -112
2z"/>
</g>
</svg>
