<?xml version="1.0" standalone="no"?>
<!DOCTYPE svg PUBLIC "-//W3C//DTD SVG 20010904//EN"
 "http://www.w3.org/TR/2001/REC-SVG-20010904/DTD/svg10.dtd">
<svg version="1.0" xmlns="http://www.w3.org/2000/svg"
 width="120.000000pt" height="120.000000pt" viewBox="0 0 120.000000 120.000000"
 preserveAspectRatio="xMidYMid meet">
<metadata>
Created by potrace 1.10, written by Peter Selinger 2001-2011
</metadata>
<g transform="translate(0.000000,120.000000) scale(0.050000,-0.050000)"
fill="#000000" stroke="none">
<path d="M920 2280 c0 -26 74 -100 100 -100 33 0 23 51 -17 87 -40 37 -83 44
-83 13z"/>
<path d="M754 2225 c6 -19 23 -48 36 -65 13 -16 30 -46 36 -65 14 -39 84 -47
105 -13 8 12 -21 57 -63 100 -80 82 -136 103 -114 43z"/>
<path d="M1420 2242 c0 -10 34 -32 75 -49 88 -37 196 -132 214 -189 15 -48 54
-67 92 -43 44 27 -8 97 -152 204 -116 86 -229 124 -229 77z"/>
<path d="M1220 2184 c0 -9 38 -38 85 -64 47 -26 121 -87 165 -134 76 -81 153
-110 178 -69 13 21 -105 130 -235 218 -90 60 -193 87 -193 49z"/>
<path d="M580 2152 c0 -15 14 -38 30 -52 17 -14 30 -41 30 -61 0 -48 64 -159
93 -159 28 0 45 82 26 132 -35 94 -179 207 -179 140z"/>
<path d="M1053 2087 c-31 -32 -8 -63 72 -96 47 -20 112 -70 145 -112 62 -80
190 -115 190 -52 0 88 -353 313 -407 260z"/>
<path d="M451 2022 c-6 -10 -2 -42 8 -70 11 -28 15 -65 8 -82 -6 -17 0 -44 13
-60 14 -17 41 -59 59 -94 50 -93 74 -89 88 12 16 120 -131 366 -176 294z"/>
<path d="M871 1915 c-34 -48 -3 -95 62 -95 14 0 66 -40 115 -89 71 -71 100
-87 145 -81 31 4 64 8 72 9 59 5 -60 146 -198 234 -124 79 -154 82 -196 22z"/>
<path d="M280 1831 c0 -17 11 -49 24 -70 18 -29 18 -50 1 -89 -21 -44 -15 -63
48 -156 79 -118 107 -139 107 -79 0 22 15 66 33 98 33 57 33 60 -43 177 -43
65 -78 119 -79 121 -12 24 -91 23 -91 -2z"/>
<path d="M1791 1802 c-6 -10 -3 -40 7 -67 20 -53 -75 -250 -157 -324 -59 -54
-56 -117 4 -89 55 25 235 323 235 388 0 65 -64 131 -89 92z"/>
<path d="M1614 1785 c-5 -8 -2 -33 6 -55 18 -50 -7 -108 -115 -264 -101 -147
-103 -154 -25 -110 33 19 60 50 60 69 0 19 9 35 20 35 12 0 29 20 39 45 10 25
37 72 60 105 54 80 56 190 2 190 -21 0 -43 -7 -47 -15z"/>
<path d="M735 1752 c-56 -43 -45 -140 20 -174 30 -15 60 -35 66 -43 48 -64
299 -109 299 -54 0 43 -312 310 -348 298 -1 0 -18 -12 -37 -27z"/>
<path d="M1975 1748 c-6 -6 -4 -36 4 -66 10 -33 7 -67 -6 -86 -13 -18 -36 -52
-53 -76 -16 -25 -60 -85 -97 -133 -73 -97 -76 -172 -5 -122 40 27 162 199 214
299 38 73 36 169 -4 184 -38 15 -39 15 -53 0z"/>
<path d="M1465 1707 c-14 -6 -25 -35 -25 -64 0 -30 -31 -102 -70 -160 -76
-116 -79 -123 -51 -123 10 0 52 56 93 125 41 69 87 140 103 159 43 50 13 88
-50 63z"/>
<path d="M2148 1672 c-7 -18 -1 -47 13 -64 16 -19 19 -36 7 -45 -32 -22 -168
-232 -168 -258 0 -14 -8 -25 -18 -25 -27 0 -46 -64 -25 -85 37 -37 94 7 143
110 27 58 54 110 61 115 23 19 79 146 79 180 0 55 -76 115 -92 72z"/>
<path d="M130 1605 c29 -75 34 -166 11 -194 -27 -33 64 -221 116 -241 36 -14
83 25 83 68 0 19 10 44 23 57 24 24 -12 145 -43 145 -8 0 -26 27 -40 61 -25
60 -107 139 -145 139 -11 0 -13 -16 -5 -35z"/>
<path d="M2320 1515 c0 -42 -15 -87 -35 -107 -33 -33 -67 -84 -98 -148 -8 -16
-27 -42 -41 -56 -27 -28 -35 -108 -13 -130 16 -16 87 22 87 47 0 11 23 56 51
101 142 225 154 269 89 328 -39 36 -40 35 -40 -35z"/>
<path d="M595 1519 c-50 -30 -82 -97 -59 -125 11 -13 23 -41 27 -61 17 -86
397 -180 397 -98 0 36 -166 225 -197 225 -9 0 -38 18 -63 40 -52 45 -57 46
-105 19z"/>
<path d="M6 1245 c7 -104 17 -125 91 -202 140 -145 169 -58 48 147 -111 188
-148 203 -139 55z"/>
<path d="M399 1195 c-34 -75 17 -200 91 -222 33 -10 90 -30 126 -45 164 -70
251 -22 144 79 -33 31 -60 64 -60 74 0 32 -186 159 -233 159 -30 0 -55 -17
-68 -45z"/>
<path d="M291 1053 c-6 -18 -15 -47 -21 -64 -7 -22 1 -30 25 -25 41 8 58 71
28 101 -15 15 -25 12 -32 -12z"/>
<path d="M1284 1044 c-97 -6 -106 -10 -100 -50 5 -36 17 -43 69 -38 89 9 91 3
88 -411 -3 -405 -3 -404 -116 -405 -52 0 -65 -8 -65 -40 0 -38 13 -40 241 -40
220 0 241 3 235 35 -4 24 -31 38 -86 45 l-80 10 -5 443 c-6 500 9 462 -181
451z"/>
<path d="M288 877 c-16 -27 299 -337 343 -337 41 0 36 53 -8 84 -20 14 -51 53
-68 86 -47 92 -239 212 -267 167z"/>
</g>
</svg>
