<?xml version="1.0" standalone="no"?>
<!DOCTYPE svg PUBLIC "-//W3C//DTD SVG 20010904//EN"
 "http://www.w3.org/TR/2001/REC-SVG-20010904/DTD/svg10.dtd">
<svg version="1.0" xmlns="http://www.w3.org/2000/svg"
 width="120.000000pt" height="120.000000pt" viewBox="0 0 120.000000 120.000000"
 preserveAspectRatio="xMidYMid meet">
<metadata>
Created by potrace 1.10, written by Peter Selinger 2001-2011
</metadata>
<g transform="translate(0.000000,120.000000) scale(0.100000,-0.100000)"
fill="#000000" stroke="none">
<path d="M392 1047 l-72 -72 0 -87 c0 -85 1 -89 30 -115 34 -30 37 -45 15 -63
-11 -9 -15 -27 -13 -54 3 -39 4 -41 38 -42 82 -3 80 -2 80 -33 0 -56 1 -56
128 -54 l117 2 3 39 c3 37 5 40 40 46 20 3 47 3 60 0 15 -4 22 -2 23 7 3 33
-4 66 -18 90 -15 25 -14 27 21 62 36 36 36 37 36 119 l0 84 -73 72 -72 72
-135 0 -135 -1 -73 -72z m166 -293 c6 -77 -64 -120 -115 -72 -29 27 -29 63 0
94 18 20 30 24 67 22 l45 -3 3 -41z m189 24 c45 -42 20 -118 -38 -118 -53 0
-102 93 -67 128 20 20 79 14 105 -10z"/>
<path d="M75 689 c36 -60 106 -153 152 -200 50 -52 58 -56 104 -58 33 -1 49 3
49 11 0 18 -159 169 -223 211 -67 45 -94 57 -82 36z"/>
<path d="M1052 661 c-64 -44 -234 -209 -227 -221 3 -5 25 -10 47 -10 36 0 47
6 82 43 60 62 116 132 116 145 0 6 7 15 16 20 9 5 14 18 12 30 -3 21 -4 21
-46 -7z"/>
<path d="M300 387 c0 -7 8 -20 18 -28 23 -21 92 -97 92 -102 0 -10 85 -97 94
-97 6 0 30 19 54 41 42 41 43 41 65 23 12 -11 30 -29 40 -41 10 -13 24 -23 31
-23 10 0 72 66 132 139 10 13 29 33 42 44 12 11 22 29 22 39 0 15 -9 18 -63
18 l-63 0 -80 -75 c-43 -41 -82 -75 -85 -75 -4 0 -41 34 -84 75 l-77 75 -69 0
c-49 0 -69 -4 -69 -13z"/>
<path d="M557 152 c-15 -15 -27 -33 -27 -39 0 -13 60 -63 75 -63 13 0 65 52
65 65 0 12 -61 65 -75 65 -6 0 -23 -13 -38 -28z"/>
</g>
</svg>
