<?xml version="1.0" standalone="no"?>
<!DOCTYPE svg PUBLIC "-//W3C//DTD SVG 20010904//EN"
 "http://www.w3.org/TR/2001/REC-SVG-20010904/DTD/svg10.dtd">
<svg version="1.0" xmlns="http://www.w3.org/2000/svg"
 width="120.000000pt" height="120.000000pt" viewBox="0 0 120.000000 120.000000"
 preserveAspectRatio="xMidYMid meet">
<metadata>
Created by potrace 1.10, written by Peter Selinger 2001-2011
</metadata>
<g transform="translate(0.000000,120.000000) scale(0.100000,-0.100000)"
fill="#000000" stroke="none">
<path d="M460 1060 c-8 -5 -82 -74 -165 -155 l-150 -145 28 -25 c31 -30 33
-38 12 -55 -8 -7 -15 -27 -15 -46 l0 -33 57 -3 58 -3 -2 -38 -2 -38 117 3 117
3 0 35 0 35 55 5 c51 5 55 7 58 33 2 16 -4 39 -13 53 -16 24 -15 26 14 60 29
32 31 40 31 110 l0 75 -68 69 c-69 70 -96 82 -132 60z m78 -306 c45 -31 18
-114 -38 -114 -50 0 -84 114 -37 123 42 8 53 7 75 -9z m-173 -15 c10 -31 -38
-99 -71 -99 -34 0 -54 22 -54 59 0 38 31 61 82 61 28 0 38 -5 43 -21z"/>
<path d="M944 933 c-4 -10 -20 -46 -35 -81 -43 -93 -45 -109 -19 -117 29 -9
40 4 75 89 22 52 26 74 19 94 -11 32 -32 40 -40 15z"/>
<path d="M775 700 c-7 -12 15 -81 28 -85 66 -20 86 -16 132 26 25 23 42 45 38
49 -11 10 -192 19 -198 10z"/>
<path d="M708 561 c-26 -10 -62 -31 -80 -46 -32 -27 -77 -97 -78 -123 -1 -28
-84 -147 -137 -196 -38 -34 -41 -52 -13 -61 21 -7 70 17 70 34 0 4 11 13 23
18 22 10 23 9 19 -13 -2 -13 -2 -24 0 -24 3 0 24 19 48 42 51 50 68 36 21 -18
-50 -56 -45 -59 87 -56 192 4 195 5 237 64 20 27 39 57 42 66 3 10 12 24 18
32 7 8 17 41 22 72 13 77 -3 138 -48 187 -34 35 -38 37 -110 39 -53 1 -87 -4
-121 -17z"/>
</g>
</svg>
