<?xml version="1.0" standalone="no"?>
<!DOCTYPE svg PUBLIC "-//W3C//DTD SVG 20010904//EN"
 "http://www.w3.org/TR/2001/REC-SVG-20010904/DTD/svg10.dtd">
<svg version="1.0" xmlns="http://www.w3.org/2000/svg"
 width="120.000000pt" height="120.000000pt" viewBox="0 0 120.000000 120.000000"
 preserveAspectRatio="xMidYMid meet">
<metadata>
Created by potrace 1.10, written by Peter Selinger 2001-2011
</metadata>
<g transform="translate(0.000000,120.000000) scale(0.100000,-0.100000)"
fill="#000000" stroke="none">
<path d="M565 869 c-44 -39 -88 -75 -97 -80 -10 -5 -18 -14 -18 -19 0 -14 27
-12 59 5 40 20 45 8 15 -32 -14 -19 -24 -37 -21 -39 3 -3 29 2 58 10 56 17
109 21 109 9 0 -10 -54 -45 -97 -64 -39 -16 -42 -27 -10 -33 92 -19 131 -26
195 -36 106 -17 99 -28 -33 -50 -110 -17 -185 -34 -185 -40 0 -3 27 -22 60
-42 91 -56 77 -67 -48 -36 -48 12 -60 7 -38 -15 8 -8 18 -27 22 -43 l7 -28
-47 28 c-53 31 -75 26 -35 -7 76 -63 128 -109 162 -142 21 -20 41 -34 44 -31
3 3 -3 34 -15 68 -11 35 -17 67 -12 72 4 4 46 -6 92 -23 87 -33 95 -36 170
-70 52 -23 78 -27 78 -11 0 6 -4 10 -9 10 -10 0 -205 218 -209 234 -1 7 23 16
60 24 181 37 324 62 350 62 42 0 35 26 -9 33 -21 3 -81 13 -133 22 -52 9 -132
22 -178 29 -46 8 -89 19 -95 25 -8 8 9 31 64 88 150 156 159 168 143 171 -13
3 -109 -32 -201 -74 -63 -29 -117 -44 -125 -36 -4 4 -1 29 7 56 17 55 19 76 8
76 -5 0 -44 -32 -88 -71z"/>
<path d="M26 679 c-25 -19 -26 -25 -26 -108 0 -120 12 -134 118 -141 42 -3
107 -4 144 -2 l66 4 -14 47 c-16 54 -18 81 -4 81 6 0 10 -13 10 -29 0 -54 19
-89 52 -97 25 -5 34 -2 49 17 36 49 34 185 -4 227 -22 24 -56 29 -74 11 -8 -8
-13 -8 -17 0 -5 7 -55 11 -140 11 -120 0 -136 -2 -160 -21z m378 -45 c3 -9 6
-40 6 -69 0 -29 -3 -60 -6 -69 -8 -21 -30 -21 -38 0 -8 21 -8 139 1 147 11 12
31 7 37 -9z m-87 -21 c-4 -3 -7 0 -7 7 0 7 3 10 7 7 3 -4 3 -10 0 -14z"/>
</g>
</svg>
