<?xml version="1.0" standalone="no"?>
<!DOCTYPE svg PUBLIC "-//W3C//DTD SVG 20010904//EN"
 "http://www.w3.org/TR/2001/REC-SVG-20010904/DTD/svg10.dtd">
<svg version="1.0" xmlns="http://www.w3.org/2000/svg"
 width="120.000000pt" height="120.000000pt" viewBox="0 0 120.000000 120.000000"
 preserveAspectRatio="xMidYMid meet">
<metadata>
Created by potrace 1.10, written by Peter Selinger 2001-2011
</metadata>
<g transform="translate(0.000000,120.000000) scale(0.100000,-0.100000)"
fill="#000000" stroke="none">
<path d="M535 1024 c-27 -8 -75 -22 -105 -30 -107 -30 -118 -41 -82 -80 38
-42 142 -115 172 -121 22 -4 41 -18 59 -44 14 -21 29 -38 33 -39 3 0 15 17 25
37 15 31 25 39 54 44 21 3 52 18 70 32 19 15 39 31 44 35 77 56 86 65 83 84
-4 26 -12 30 -124 62 -121 35 -169 39 -229 20z"/>
<path d="M242 862 c-6 -5 -23 -48 -37 -98 -14 -49 -29 -103 -35 -120 -12 -36
-13 -97 -2 -108 4 -4 19 -56 33 -114 l25 -107 36 -3 c30 -3 39 1 49 20 7 13
15 25 18 28 21 16 91 136 91 155 0 17 11 30 40 46 22 13 40 26 40 31 0 4 -18
17 -40 28 -30 15 -40 26 -40 44 0 27 -108 179 -139 195 -23 13 -23 13 -39 3z"/>
<path d="M952 863 c-29 -6 -142 -153 -142 -186 0 -27 -22 -51 -63 -66 -15 -6
-27 -14 -27 -18 0 -5 21 -21 46 -36 35 -21 45 -32 41 -47 -5 -19 5 -37 76
-135 37 -51 49 -60 78 -63 l35 -3 13 63 c7 35 17 74 21 88 23 69 30 127 21
170 -23 103 -66 242 -73 239 -2 -1 -13 -4 -26 -6z"/>
<path d="M579 443 c-28 -46 -37 -53 -68 -53 -14 0 -45 -17 -70 -38 -25 -21
-61 -48 -79 -61 -27 -19 -33 -29 -30 -54 3 -28 8 -31 68 -48 210 -59 204 -59
380 -11 91 25 105 32 108 51 4 27 -17 52 -78 94 -25 17 -54 39 -64 49 -11 10
-28 18 -39 18 -32 0 -58 20 -73 56 -8 19 -18 34 -23 34 -5 0 -20 -17 -32 -37z"/>
</g>
</svg>
