<?xml version="1.0" standalone="no"?>
<!DOCTYPE svg PUBLIC "-//W3C//DTD SVG 20010904//EN"
 "http://www.w3.org/TR/2001/REC-SVG-20010904/DTD/svg10.dtd">
<svg version="1.0" xmlns="http://www.w3.org/2000/svg"
 width="120.000000pt" height="120.000000pt" viewBox="0 0 120.000000 120.000000"
 preserveAspectRatio="xMidYMid meet">
<metadata>
Created by potrace 1.10, written by Peter Selinger 2001-2011
</metadata>
<g transform="translate(0.000000,120.000000) scale(0.050000,-0.050000)"
fill="#000000" stroke="none">
<path d="M1259 2370 c-1 -11 -1 -150 1 -309 3 -328 -10 -302 198 -391 153 -66
618 -284 662 -311 224 -137 242 -119 64 65 -77 80 -211 221 -297 313 -380 404
-626 652 -628 633z"/>
<path d="M376 1570 c-182 -182 -326 -333 -319 -337 7 -4 265 -6 573 -5 l560 2
6 222 c6 249 12 237 -156 307 -60 26 -157 68 -214 94 -57 26 -107 47 -111 47
-3 0 -156 -149 -339 -330z"/>
<path d="M1264 1435 l6 -205 430 -10 c418 -10 518 -1 418 37 -27 10 -184 83
-348 163 -273 131 -475 220 -502 220 -5 0 -7 -92 -4 -205z"/>
<path d="M595 1145 c-550 -6 -582 -12 -470 -83 36 -23 191 -173 345 -334 154
-160 355 -370 448 -465 92 -95 181 -193 197 -218 16 -25 42 -45 58 -45 43 0
31 1149 -13 1150 -16 1 -271 -2 -565 -5z"/>
</g>
</svg>
