<?xml version="1.0" standalone="no"?>
<!DOCTYPE svg PUBLIC "-//W3C//DTD SVG 20010904//EN"
 "http://www.w3.org/TR/2001/REC-SVG-20010904/DTD/svg10.dtd">
<svg version="1.0" xmlns="http://www.w3.org/2000/svg"
 width="120.000000pt" height="120.000000pt" viewBox="0 0 120.000000 120.000000"
 preserveAspectRatio="xMidYMid meet">
<metadata>
Created by potrace 1.10, written by Peter Selinger 2001-2011
</metadata>
<g transform="translate(0.000000,120.000000) scale(0.050000,-0.050000)"
fill="#000000" stroke="none">
<path d="M684 2064 c-54 -41 -159 -129 -233 -197 l-135 -123 13 -197 c26 -410
23 -399 120 -444 95 -45 110 -77 111 -233 1 -363 12 -382 270 -477 44 -16 152
-57 240 -91 188 -72 198 -74 247 -25 20 20 117 108 215 194 98 87 210 189 248
228 39 39 133 120 208 180 l138 109 -14 277 c-18 364 -7 344 -243 438 -332
133 -356 143 -439 179 -157 67 -342 142 -494 199 l-154 57 -98 -74z m576 -170
c109 -29 121 -82 26 -116 -13 -4 -84 -67 -160 -139 -170 -163 -172 -164 -234
-136 -58 26 -64 51 -83 341 -16 251 -22 246 206 147 107 -46 218 -90 245 -97z
m-506 -167 l12 -259 -128 -104 c-70 -57 -144 -119 -163 -137 -48 -47 -50 -42
-74 191 -29 286 -28 296 32 347 30 25 104 92 165 149 140 129 142 127 156
-187z m990 -35 l266 -109 13 -176 c7 -98 19 -215 27 -262 19 -107 -14 -125
-134 -68 -176 83 -322 143 -345 143 -65 0 -87 70 -101 325 -8 140 -9 255 -3
255 5 0 130 -49 277 -108z m-357 3 c14 -50 18 -395 5 -395 -10 0 -318 144
-332 155 -14 11 266 282 293 284 12 0 28 -19 34 -44z m-717 -695 c7 -11 25
-20 41 -20 26 0 165 -55 249 -99 17 -8 30 -24 30 -35 0 -29 -311 -272 -327
-256 -15 16 -58 409 -45 421 15 15 39 10 52 -11z"/>
</g>
</svg>
