<?xml version="1.0" standalone="no"?>
<!DOCTYPE svg PUBLIC "-//W3C//DTD SVG 20010904//EN"
 "http://www.w3.org/TR/2001/REC-SVG-20010904/DTD/svg10.dtd">
<svg version="1.0" xmlns="http://www.w3.org/2000/svg"
 width="120.000000pt" height="120.000000pt" viewBox="0 0 120.000000 120.000000"
 preserveAspectRatio="xMidYMid meet">
<metadata>
Created by potrace 1.10, written by Peter Selinger 2001-2011
</metadata>
<g transform="translate(0.000000,120.000000) scale(0.050000,-0.050000)"
fill="#000000" stroke="none">
<path d="M1100 2330 l0 -70 110 -3 c61 -2 121 -4 135 -5 15 -1 27 27 29 73 l4
75 -139 0 -139 0 0 -70z"/>
<path d="M1108 2182 c-29 -29 8 -42 124 -42 96 0 129 7 123 25 -8 23 -225 38
-247 17z"/>
<path d="M1116 2056 c-2 -14 -4 -110 -5 -212 l-1 -185 130 5 130 6 0 200 0
200 -125 6 c-91 4 -126 -1 -129 -20z"/>
<path d="M1441 1601 c-26 -16 -24 -26 12 -65 22 -25 47 -62 54 -82 12 -36 111
-36 239 -1 41 12 31 73 -21 132 -35 39 -231 50 -284 16z"/>
<path d="M1110 1575 l-160 -20 -45 -162 c-25 -90 -45 -187 -45 -215 0 -29 -12
-88 -27 -130 -15 -46 -20 -104 -12 -141 17 -80 -4 -121 -40 -78 -37 44 -52 40
-141 -44 -88 -83 -98 -121 -43 -168 20 -17 49 -48 65 -69 40 -54 248 -228 273
-228 55 0 153 123 129 161 -37 58 -34 60 121 54 131 -5 154 1 244 56 131 81
138 109 25 109 -74 0 -185 56 -121 62 9 0 107 3 217 5 l200 3 0 60 0 60 -130
1 c-71 0 -163 -5 -203 -12 -65 -12 -76 -7 -97 39 -13 29 -41 85 -62 126 -46
89 -56 385 -13 371 14 -4 27 -39 30 -77 11 -137 22 -158 82 -158 126 0 148 59
92 250 -56 189 -38 181 -339 145z"/>
<path d="M1659 1382 c-96 -19 -119 -36 -116 -88 1 -24 -4 -60 -12 -79 -14 -31
-2 -35 95 -35 162 0 174 8 174 122 0 107 0 107 -141 80z"/>
<path d="M1437 1105 c-101 -8 -131 -41 -96 -106 21 -40 415 -62 422 -24 1 8 5
44 8 80 l6 65 -124 -4 c-68 -2 -165 -7 -216 -11z"/>
<path d="M454 565 c43 -120 299 -346 390 -344 45 0 44 2 -14 51 -110 93 -179
160 -256 244 -78 87 -143 113 -120 49z"/>
<path d="M1156 447 c-38 -11 -51 -126 -39 -332 l7 -115 137 0 138 0 -4 225 -5
225 -100 3 c-55 2 -115 -1 -134 -6z"/>
</g>
</svg>
