<?xml version="1.0" standalone="no"?>
<!DOCTYPE svg PUBLIC "-//W3C//DTD SVG 20010904//EN"
 "http://www.w3.org/TR/2001/REC-SVG-20010904/DTD/svg10.dtd">
<svg version="1.0" xmlns="http://www.w3.org/2000/svg"
 width="120.000000pt" height="120.000000pt" viewBox="0 0 120.000000 120.000000"
 preserveAspectRatio="xMidYMid meet">
<metadata>
Created by potrace 1.10, written by Peter Selinger 2001-2011
</metadata>
<g transform="translate(0.000000,120.000000) scale(0.050000,-0.050000)"
fill="#000000" stroke="none">
<path d="M1132 2346 c-92 -98 -85 -202 19 -340 27 -35 49 -78 49 -96 0 -51 69
-27 77 27 3 26 -9 104 -28 173 -27 101 -30 140 -12 191 13 36 23 73 23 82 0
37 -81 14 -128 -37z"/>
<path d="M1423 2120 c30 -85 13 -189 -52 -327 -43 -91 -52 -130 -41 -193 11
-67 49 -115 50 -65 0 8 45 63 99 122 161 176 180 334 55 456 -80 78 -137 81
-111 7z"/>
<path d="M855 1986 c-49 -13 -44 -30 24 -75 58 -39 107 -127 130 -237 13 -59
76 -134 114 -134 29 0 11 248 -25 325 -20 45 -166 142 -199 133 -5 -2 -25 -7
-44 -12z"/>
<path d="M510 1888 c52 -123 56 -219 14 -340 -32 -93 -37 -138 -24 -197 28
-126 47 -121 140 33 122 204 133 333 37 440 -76 85 -196 130 -167 64z"/>
<path d="M1723 1776 c-120 -121 -104 -277 43 -446 48 -55 93 -116 100 -136 8
-20 23 -31 34 -24 25 15 27 215 2 241 -39 42 -69 186 -64 304 6 148 -19 160
-115 61z"/>
<path d="M801 1357 c-39 -29 -122 -105 -185 -170 l-114 -117 -5 -205 -6 -204
79 -81 c78 -80 78 -80 44 -138 -82 -139 -41 -228 103 -225 122 2 139 -11 147
-117 l6 -90 284 -6 284 -5 6 105 6 106 134 -1 c116 -1 135 4 144 38 14 54 -7
148 -40 175 -47 38 -32 86 52 168 l80 78 0 183 0 183 -175 181 -176 181 -298
7 c-297 7 -299 7 -370 -46z m641 -737 c125 -35 157 -175 61 -267 -101 -97
-232 -8 -246 167 -7 89 2 99 103 118 6 1 42 -7 82 -18z m-385 -57 c15 -111
-78 -243 -172 -243 -107 0 -161 146 -92 252 47 72 253 65 264 -9z"/>
</g>
</svg>
