<?xml version="1.0" standalone="no"?>
<!DOCTYPE svg PUBLIC "-//W3C//DTD SVG 20010904//EN"
 "http://www.w3.org/TR/2001/REC-SVG-20010904/DTD/svg10.dtd">
<svg version="1.0" xmlns="http://www.w3.org/2000/svg"
 width="360.000000pt" height="360.000000pt" viewBox="0 0 360.000000 360.000000"
 preserveAspectRatio="xMidYMid meet">
<metadata>
Created by potrace 1.10, written by Peter Selinger 2001-2011
</metadata>
<g transform="translate(0.000000,360.000000) scale(0.100000,-0.100000)"
fill="#000000" stroke="none">
<path d="M1724 3127 c-3 -9 -4 -24 -2 -34 3 -15 15 -18 89 -20 93 -3 125 9
113 40 -5 13 -18 17 -54 17 -26 0 -68 3 -93 6 -37 5 -48 3 -53 -9z"/>
<path d="M1674 2945 c-20 -31 -31 -433 -12 -458 12 -16 25 -17 148 -10 l135 8
12 35 c8 23 11 97 10 220 -2 209 -5 219 -74 221 -21 0 -76 2 -122 3 -75 2 -85
0 -97 -19z"/>
<path d="M853 2691 c-12 -10 -40 -21 -62 -25 -46 -7 -90 -48 -122 -114 -18
-37 -19 -47 -9 -72 7 -16 10 -36 7 -45 -7 -18 11 -75 24 -75 6 0 33 -21 61
-47 50 -47 51 -48 132 -54 102 -7 140 1 181 41 60 59 80 162 49 266 -12 42
-26 63 -66 99 -48 43 -53 45 -112 45 -44 -1 -67 -6 -83 -19z"/>
<path d="M2708 2673 c-82 -57 -139 -124 -145 -172 -10 -75 5 -132 45 -169 76
-71 103 -83 198 -89 79 -5 93 -3 124 16 41 23 75 65 107 131 30 60 29 70 -13
156 -29 60 -44 79 -79 99 -23 14 -50 34 -60 45 -14 15 -31 20 -71 20 -44 0
-60 -6 -106 -37z"/>
<path d="M1670 2394 c-14 -7 -39 -13 -55 -14 -17 0 -45 -4 -64 -10 -25 -7 -46
-5 -82 6 -46 15 -50 15 -81 -3 -25 -15 -33 -26 -33 -48 0 -42 35 -57 106 -46
65 11 93 1 111 -36 18 -39 78 -51 164 -34 50 10 78 10 134 1 91 -15 152 -6
203 31 38 27 45 29 99 23 75 -9 108 10 108 61 0 37 -34 70 -61 60 -79 -29
-343 -55 -362 -36 -6 6 -25 11 -42 11 -16 0 -50 11 -75 24 -41 22 -48 23 -70
10z"/>
<path d="M1643 2098 c-9 -14 -20 -224 -28 -528 -5 -188 -5 -198 20 -280 14
-47 39 -107 56 -135 17 -27 33 -64 36 -83 3 -18 10 -35 14 -38 5 -3 9 -21 9
-40 0 -45 16 -74 40 -74 22 0 50 49 81 138 10 30 23 60 28 66 4 6 11 24 15 40
4 16 23 54 43 84 l36 56 3 365 c2 249 0 369 -8 378 -6 7 -22 13 -35 13 -14 0
-36 9 -50 20 -30 23 -51 25 -78 6 -11 -7 -40 -15 -64 -18 -36 -3 -48 0 -67 19
-26 26 -39 29 -51 11z"/>
<path d="M835 2086 c-16 -8 -70 -16 -118 -20 -48 -3 -98 -12 -110 -20 -12 -8
-48 -19 -79 -26 -31 -6 -62 -18 -70 -27 -10 -12 -13 -79 -15 -287 -1 -149 -6
-356 -12 -461 l-10 -190 29 -29 c20 -20 43 -31 72 -35 53 -7 69 -34 73 -124 2
-56 16 -138 29 -177 3 -8 10 -40 16 -72 l11 -56 57 -6 c99 -11 371 -11 381 -1
5 6 16 73 24 150 11 105 20 152 37 184 29 58 63 91 94 91 13 0 39 12 56 27 29
24 31 30 24 62 -4 20 -8 128 -9 241 -1 113 -5 259 -8 325 -3 66 -2 147 3 180
5 33 10 87 12 120 l3 60 -50 14 c-27 8 -77 14 -111 13 -51 -2 -76 4 -157 38
-103 43 -125 46 -172 26z"/>
<path d="M2746 2049 c-10 -6 -71 -19 -135 -28 -64 -10 -127 -23 -139 -30 -19
-10 -30 -10 -54 0 -64 26 -75 -26 -78 -386 -1 -110 -5 -285 -9 -390 -4 -105
-4 -198 1 -207 5 -10 21 -21 36 -24 43 -10 99 -45 110 -68 6 -11 13 -53 15
-92 2 -39 12 -86 21 -104 10 -20 16 -58 16 -96 0 -38 5 -66 12 -70 6 -4 100
-8 207 -9 230 -1 231 -1 231 81 0 29 13 105 29 169 32 128 62 179 110 190 54
12 65 35 56 117 -9 77 -9 98 0 383 2 99 7 244 9 323 5 160 2 167 -62 177 -65
10 -76 13 -107 23 -26 9 -154 36 -225 48 -14 2 -33 -1 -44 -7z"/>
</g>
</svg>
