<?xml version="1.0" standalone="no"?>
<!DOCTYPE svg PUBLIC "-//W3C//DTD SVG 20010904//EN"
 "http://www.w3.org/TR/2001/REC-SVG-20010904/DTD/svg10.dtd">
<svg version="1.0" xmlns="http://www.w3.org/2000/svg"
 width="300.000000pt" height="300.000000pt" viewBox="0 0 300.000000 300.000000"
 preserveAspectRatio="xMidYMid meet">
<metadata>
Created by potrace 1.10, written by Peter Selinger 2001-2011
</metadata>
<g transform="translate(0.000000,300.000000) scale(0.050000,-0.050000)"
fill="#ffffff" stroke="none">
<path d="M2964 5940 c-11 -27 -199 -491 -419 -1030 -221 -539 -479 -1173 -575
-1410 -284 -699 -413 -909 -634 -1031 -160 -89 -447 -87 -638 3 l-131 63 46
-113 c115 -281 121 -697 13 -926 l-63 -134 50 19 c158 60 330 -5 567 -213 384
-338 861 -572 1365 -670 271 -53 296 -46 87 24 -667 221 -1012 593 -965 1039
8 74 120 410 320 961 170 467 437 1199 593 1628 156 429 290 786 297 794 11
11 1012 -2361 1334 -3158 187 -465 29 -835 -462 -1081 -189 -95 -476 -203
-546 -207 -18 0 -23 -5 -10 -10 42 -18 398 50 584 111 382 125 738 331 1028
596 188 171 283 213 460 202 l127 -8 -45 80 c-108 195 -107 623 2 925 59 162
67 152 -79 102 -462 -156 -884 74 -1091 596 -143 360 -1146 2802 -1170 2848
l-26 50 -19 -50z"/>
<path d="M722 1040 c1082 -1255 3060 -1378 4279 -265 257 234 390 389 179 207
-796 -686 -1978 -967 -2143 -511 -32 87 -39 86 -84 -12 -210 -455 -1428 -132
-2207 586 l-136 125 112 -130z"/>
</g>
</svg>
