<?xml version="1.0" standalone="no"?>
<!DOCTYPE svg PUBLIC "-//W3C//DTD SVG 20010904//EN"
 "http://www.w3.org/TR/2001/REC-SVG-20010904/DTD/svg10.dtd">
<svg version="1.0" xmlns="http://www.w3.org/2000/svg"
 width="120.000000pt" height="120.000000pt" viewBox="0 0 120.000000 120.000000"
 preserveAspectRatio="xMidYMid meet">
<metadata>
Created by potrace 1.16, written by Peter Selinger 2001-2019
</metadata>
<g transform="translate(0.000000,120.000000) scale(0.100000,-0.100000)"
fill="#000000" stroke="none">
<path d="M574 1103 c-9 -32 -20 -62 -24 -68 -8 -10 -21 -60 -19 -71 0 -4 -3
-10 -8 -13 -11 -8 -39 -68 -54 -116 -6 -22 -15 -44 -19 -50 -4 -5 -10 -25 -13
-43 -4 -18 -18 -49 -32 -70 -14 -20 -25 -46 -25 -57 -1 -11 -16 -37 -35 -59
-28 -32 -39 -37 -60 -32 -14 3 -36 9 -50 12 -21 5 -25 3 -25 -15 0 -12 5 -31
10 -42 10 -18 3 -63 -17 -115 -4 -11 5 -14 39 -14 38 0 49 -5 80 -38 27 -28
60 -48 123 -71 47 -18 89 -31 92 -28 9 9 -7 26 -40 43 -18 9 -49 30 -71 47
-37 30 -38 32 -33 82 3 28 18 80 34 116 32 70 79 200 97 266 7 24 17 48 24 55
7 7 12 20 12 30 0 25 21 68 34 68 15 0 46 -53 46 -78 0 -11 6 -25 14 -31 7 -6
11 -21 9 -34 -3 -14 2 -29 11 -36 9 -8 16 -21 16 -31 0 -9 3 -19 6 -23 8 -7
74 -169 74 -180 0 -4 9 -27 19 -50 15 -33 17 -53 12 -90 -5 -26 -10 -49 -12
-50 -2 -2 -38 -23 -79 -47 -59 -35 -70 -45 -53 -48 12 -2 37 3 55 12 18 8 44
17 57 21 13 4 50 31 82 61 42 39 67 54 87 54 l29 0 -1 91 c0 86 -1 90 -21 84
-66 -19 -76 -18 -93 6 -28 40 -43 71 -69 144 -14 39 -31 81 -38 95 -16 31 -40
92 -56 145 -7 22 -21 47 -31 57 -10 9 -18 27 -18 40 -1 12 -7 34 -15 48 -8 14
-14 35 -15 47 0 45 -20 32 -36 -24z"/>
</g>
</svg>
